<mxfile host="app.diagrams.net" modified="2023-12-21T11:43:19.601Z" agent="Mozilla/5.0 (Windows NT 10.0; Win64; x64) AppleWebKit/537.36 (KHTML, like Gecko) Chrome/120.0.0.0 Safari/537.36" etag="0Lu722kNHYhgFNCyNefK" version="22.1.11" type="device">
  <diagram name="Page-1" id="c4acf3e9-155e-7222-9cf6-157b1a14988f">
    <mxGraphModel dx="2442" dy="-964" grid="1" gridSize="10" guides="1" tooltips="1" connect="1" arrows="1" fold="1" page="1" pageScale="1" pageWidth="850" pageHeight="1100" background="none" math="0" shadow="0">
      <root>
        <mxCell id="0" />
        <mxCell id="1" parent="0" />
        <mxCell id="Hje7Pb7ly6nMzVSLejZZ-857" value="" style="html=1;dropTarget=0;whiteSpace=wrap;container=0;fontFamily=Times New Roman;fontSize=14;" parent="1" vertex="1">
          <mxGeometry x="94.5" y="2420" width="767" height="1450" as="geometry" />
        </mxCell>
        <mxCell id="Hje7Pb7ly6nMzVSLejZZ-859" value="&lt;b style=&quot;font-size: 14px;&quot;&gt;&lt;font style=&quot;font-size: 14px;&quot;&gt;&lt;span style=&quot;color: rgb(0, 0, 0); font-style: normal; font-variant-ligatures: normal; font-variant-caps: normal; letter-spacing: normal; orphans: 2; text-align: center; text-indent: 0px; text-transform: none; widows: 2; word-spacing: 0px; -webkit-text-stroke-width: 0px; background-color: rgb(251, 251, 251); text-decoration-thickness: initial; text-decoration-style: initial; text-decoration-color: initial; float: none; display: inline !important; font-size: 14px;&quot;&gt;&lt;span style=&quot;white-space: pre; font-size: 14px;&quot;&gt;&#x9;&lt;/span&gt;&lt;span style=&quot;white-space: pre; font-size: 14px;&quot;&gt;&#x9;&lt;/span&gt;&amp;lt;&amp;lt;component&amp;gt;&amp;gt;&lt;/span&gt;&lt;br style=&quot;border-color: var(--border-color); padding: 0px; margin: 0px; color: rgb(0, 0, 0); font-style: normal; font-variant-ligatures: normal; font-variant-caps: normal; letter-spacing: normal; orphans: 2; text-align: center; text-indent: 0px; text-transform: none; widows: 2; word-spacing: 0px; -webkit-text-stroke-width: 0px; background-color: rgb(251, 251, 251); text-decoration-thickness: initial; text-decoration-style: initial; text-decoration-color: initial; font-size: 14px;&quot;&gt;&lt;/font&gt;&lt;/b&gt;&lt;span style=&quot;color: rgb(0, 0, 0); font-style: normal; font-variant-ligatures: normal; font-variant-caps: normal; letter-spacing: normal; orphans: 2; text-align: center; text-indent: 0px; text-transform: none; widows: 2; word-spacing: 0px; -webkit-text-stroke-width: 0px; background-color: rgb(251, 251, 251); text-decoration-thickness: initial; text-decoration-style: initial; text-decoration-color: initial; float: none; font-size: 14px; display: inline !important;&quot;&gt;&lt;b style=&quot;font-size: 14px;&quot;&gt;&lt;font style=&quot;font-size: 14px;&quot;&gt;&amp;nbsp; HealthGuardianLabSubsystem&lt;br style=&quot;font-size: 14px;&quot;&gt;&lt;span style=&quot;white-space: pre; font-size: 14px;&quot;&gt;&#x9;&lt;/span&gt;&lt;span style=&quot;white-space: pre; font-size: 14px;&quot;&gt;&#x9;&lt;/span&gt;&amp;nbsp;Lab Desktop App&lt;/font&gt;&lt;/b&gt;&lt;br style=&quot;font-size: 14px;&quot;&gt;&lt;/span&gt;" style="text;whiteSpace=wrap;html=1;fontFamily=Times New Roman;fontSize=14;" parent="1" vertex="1">
          <mxGeometry x="354" y="2430" width="265" height="50" as="geometry" />
        </mxCell>
        <mxCell id="Hje7Pb7ly6nMzVSLejZZ-860" value="&lt;div style=&quot;text-align: justify; font-size: 14px;&quot;&gt;&lt;/div&gt;" style="html=1;dropTarget=0;whiteSpace=wrap;align=left;fontFamily=Times New Roman;fontSize=14;" parent="1" vertex="1">
          <mxGeometry x="349.5" y="2583.5" width="280" height="150" as="geometry" />
        </mxCell>
        <mxCell id="Hje7Pb7ly6nMzVSLejZZ-861" value="" style="shape=module;jettyWidth=8;jettyHeight=4;fontFamily=Times New Roman;fontSize=14;" parent="Hje7Pb7ly6nMzVSLejZZ-860" vertex="1">
          <mxGeometry x="1" width="20" height="20" relative="1" as="geometry">
            <mxPoint x="-27" y="7" as="offset" />
          </mxGeometry>
        </mxCell>
        <mxCell id="Hje7Pb7ly6nMzVSLejZZ-862" value="" style="html=1;rounded=0;fontFamily=Times New Roman;fontSize=14;" parent="1" vertex="1">
          <mxGeometry x="617.5" y="2633.5" width="30" height="30" as="geometry" />
        </mxCell>
        <mxCell id="Hje7Pb7ly6nMzVSLejZZ-865" value="&lt;b style=&quot;border-color: var(--border-color); color: rgb(0, 0, 0); font-size: 14px; font-style: normal; font-variant-ligatures: normal; font-variant-caps: normal; letter-spacing: normal; orphans: 2; text-align: left; text-indent: 0px; text-transform: none; widows: 2; word-spacing: 0px; -webkit-text-stroke-width: 0px; background-color: rgb(251, 251, 251); text-decoration-thickness: initial; text-decoration-style: initial; text-decoration-color: initial;&quot;&gt;&lt;span style=&quot;border-color: var(--border-color); color: rgb(0, 0, 0); font-size: 14px; font-style: normal; font-variant-ligatures: normal; font-variant-caps: normal; letter-spacing: normal; orphans: 2; text-align: center; text-indent: 0px; text-transform: none; widows: 2; word-spacing: 0px; -webkit-text-stroke-width: 0px; background-color: rgb(251, 251, 251); text-decoration-thickness: initial; text-decoration-style: initial; text-decoration-color: initial; display: inline !important;&quot;&gt;&amp;lt;&amp;lt;component&amp;gt;&amp;gt;&lt;/span&gt;&lt;/b&gt;" style="text;whiteSpace=wrap;html=1;fontFamily=Times New Roman;fontSize=14;" parent="1" vertex="1">
          <mxGeometry x="432.5" y="2583.5" width="95" height="20" as="geometry" />
        </mxCell>
        <mxCell id="Hje7Pb7ly6nMzVSLejZZ-866" value="" style="html=1;rounded=0;fontFamily=Times New Roman;fontSize=14;" parent="1" vertex="1">
          <mxGeometry x="617.5" y="2683.5" width="30" height="30" as="geometry" />
        </mxCell>
        <mxCell id="Hje7Pb7ly6nMzVSLejZZ-867" value="" style="endArrow=none;html=1;rounded=0;align=center;verticalAlign=top;endFill=0;labelBackgroundColor=none;endSize=2;fontFamily=Times New Roman;fontSize=14;" parent="1" source="Hje7Pb7ly6nMzVSLejZZ-1204" edge="1">
          <mxGeometry relative="1" as="geometry">
            <mxPoint x="669.5" y="2698.5" as="targetPoint" />
          </mxGeometry>
        </mxCell>
        <mxCell id="Hje7Pb7ly6nMzVSLejZZ-868" value="" style="html=1;rounded=0;direction=south;fontFamily=Times New Roman;fontSize=14;" parent="1" vertex="1">
          <mxGeometry x="335" y="2653.5" width="30" height="30" as="geometry" />
        </mxCell>
        <mxCell id="Hje7Pb7ly6nMzVSLejZZ-869" value="&lt;b style=&quot;font-size: 14px;&quot;&gt;UserAuthentication Management&lt;/b&gt;" style="text;whiteSpace=wrap;html=1;fontFamily=Times New Roman;fontSize=14;" parent="1" vertex="1">
          <mxGeometry x="388.75" y="2624.5" width="235" height="20" as="geometry" />
        </mxCell>
        <mxCell id="Hje7Pb7ly6nMzVSLejZZ-870" value="&lt;b style=&quot;border-color: var(--border-color); color: rgb(0, 0, 0); font-size: 14px; font-style: normal; font-variant-ligatures: normal; font-variant-caps: normal; letter-spacing: normal; orphans: 2; text-align: left; text-indent: 0px; text-transform: none; widows: 2; word-spacing: 0px; -webkit-text-stroke-width: 0px; background-color: rgb(251, 251, 251); text-decoration-thickness: initial; text-decoration-style: initial; text-decoration-color: initial;&quot;&gt;&lt;span style=&quot;border-color: var(--border-color); color: rgb(0, 0, 0); font-size: 14px; font-style: normal; font-variant-ligatures: normal; font-variant-caps: normal; letter-spacing: normal; orphans: 2; text-align: center; text-indent: 0px; text-transform: none; widows: 2; word-spacing: 0px; -webkit-text-stroke-width: 0px; background-color: rgb(251, 251, 251); text-decoration-thickness: initial; text-decoration-style: initial; text-decoration-color: initial; display: inline !important;&quot;&gt;&amp;lt;&amp;lt;service&amp;gt;&amp;gt;&lt;/span&gt;&lt;/b&gt;" style="text;whiteSpace=wrap;html=1;fontFamily=Times New Roman;fontSize=14;" parent="1" vertex="1">
          <mxGeometry x="432.5" y="2603.5" width="95" height="20" as="geometry" />
        </mxCell>
        <mxCell id="Hje7Pb7ly6nMzVSLejZZ-871" value="&lt;div style=&quot;text-align: justify; font-size: 14px;&quot;&gt;&lt;/div&gt;" style="html=1;dropTarget=0;whiteSpace=wrap;align=left;fontFamily=Times New Roman;fontSize=14;" parent="1" vertex="1">
          <mxGeometry x="352.5" y="2750" width="280" height="220" as="geometry" />
        </mxCell>
        <mxCell id="Hje7Pb7ly6nMzVSLejZZ-872" value="" style="shape=module;jettyWidth=8;jettyHeight=4;fontFamily=Times New Roman;fontSize=14;" parent="Hje7Pb7ly6nMzVSLejZZ-871" vertex="1">
          <mxGeometry x="1" width="20" height="20" relative="1" as="geometry">
            <mxPoint x="-27" y="7" as="offset" />
          </mxGeometry>
        </mxCell>
        <mxCell id="Hje7Pb7ly6nMzVSLejZZ-873" value="" style="html=1;rounded=0;fontFamily=Times New Roman;fontSize=14;" parent="1" vertex="1">
          <mxGeometry x="612.5" y="2821" width="30" height="30" as="geometry" />
        </mxCell>
        <mxCell id="Hje7Pb7ly6nMzVSLejZZ-874" value="" style="endArrow=none;html=1;rounded=0;align=center;verticalAlign=top;endFill=0;labelBackgroundColor=none;endSize=2;fontFamily=Times New Roman;fontSize=14;" parent="1" source="Hje7Pb7ly6nMzVSLejZZ-873" target="Hje7Pb7ly6nMzVSLejZZ-875" edge="1">
          <mxGeometry relative="1" as="geometry" />
        </mxCell>
        <mxCell id="Hje7Pb7ly6nMzVSLejZZ-875" value="" style="ellipse;html=1;fontSize=14;align=center;fillColor=none;points=[];aspect=fixed;resizable=0;verticalAlign=bottom;labelPosition=center;verticalLabelPosition=top;flipH=1;fontFamily=Times New Roman;" parent="1" vertex="1">
          <mxGeometry x="664.5" y="2832" width="8" height="8" as="geometry" />
        </mxCell>
        <mxCell id="Hje7Pb7ly6nMzVSLejZZ-876" value="&lt;b style=&quot;border-color: var(--border-color); color: rgb(0, 0, 0); font-size: 14px; font-style: normal; font-variant-ligatures: normal; font-variant-caps: normal; letter-spacing: normal; orphans: 2; text-align: left; text-indent: 0px; text-transform: none; widows: 2; word-spacing: 0px; -webkit-text-stroke-width: 0px; background-color: rgb(251, 251, 251); text-decoration-thickness: initial; text-decoration-style: initial; text-decoration-color: initial;&quot;&gt;&lt;span style=&quot;border-color: var(--border-color); color: rgb(0, 0, 0); font-size: 14px; font-style: normal; font-variant-ligatures: normal; font-variant-caps: normal; letter-spacing: normal; orphans: 2; text-align: center; text-indent: 0px; text-transform: none; widows: 2; word-spacing: 0px; -webkit-text-stroke-width: 0px; background-color: rgb(251, 251, 251); text-decoration-thickness: initial; text-decoration-style: initial; text-decoration-color: initial; display: inline !important;&quot;&gt;&amp;lt;&amp;lt;component&amp;gt;&amp;gt;&lt;/span&gt;&lt;/b&gt;" style="text;whiteSpace=wrap;html=1;fontFamily=Times New Roman;fontSize=14;" parent="1" vertex="1">
          <mxGeometry x="429.5" y="2750" width="95" height="20" as="geometry" />
        </mxCell>
        <mxCell id="Hje7Pb7ly6nMzVSLejZZ-877" value="" style="html=1;rounded=0;fontFamily=Times New Roman;fontSize=14;" parent="1" vertex="1">
          <mxGeometry x="612.5" y="2871" width="30" height="30" as="geometry" />
        </mxCell>
        <mxCell id="Hje7Pb7ly6nMzVSLejZZ-878" value="" style="endArrow=none;html=1;rounded=0;align=center;verticalAlign=top;endFill=0;labelBackgroundColor=none;endSize=2;fontFamily=Times New Roman;fontSize=14;" parent="1" source="Hje7Pb7ly6nMzVSLejZZ-877" target="Hje7Pb7ly6nMzVSLejZZ-879" edge="1">
          <mxGeometry relative="1" as="geometry" />
        </mxCell>
        <mxCell id="Hje7Pb7ly6nMzVSLejZZ-879" value="" style="ellipse;html=1;fontSize=14;align=center;fillColor=none;points=[];aspect=fixed;resizable=0;verticalAlign=bottom;labelPosition=center;verticalLabelPosition=top;flipH=1;fontFamily=Times New Roman;" parent="1" vertex="1">
          <mxGeometry x="664.5" y="2882" width="8" height="8" as="geometry" />
        </mxCell>
        <mxCell id="Hje7Pb7ly6nMzVSLejZZ-880" value="" style="html=1;rounded=0;direction=south;fontFamily=Times New Roman;fontSize=14;" parent="1" vertex="1">
          <mxGeometry x="335" y="2859" width="30" height="30" as="geometry" />
        </mxCell>
        <mxCell id="Hje7Pb7ly6nMzVSLejZZ-881" value="" style="endArrow=none;html=1;rounded=0;align=center;verticalAlign=top;endFill=0;labelBackgroundColor=none;endSize=2;fontFamily=Times New Roman;fontSize=14;" parent="1" source="Hje7Pb7ly6nMzVSLejZZ-880" target="Hje7Pb7ly6nMzVSLejZZ-882" edge="1">
          <mxGeometry relative="1" as="geometry" />
        </mxCell>
        <mxCell id="Hje7Pb7ly6nMzVSLejZZ-882" value="" style="shape=requiredInterface;html=1;fontSize=14;align=center;fillColor=none;points=[];aspect=fixed;resizable=0;verticalAlign=bottom;labelPosition=center;verticalLabelPosition=top;flipH=1;direction=west;fontFamily=Times New Roman;" parent="1" vertex="1">
          <mxGeometry x="301" y="2869.33" width="5" height="10" as="geometry" />
        </mxCell>
        <mxCell id="Hje7Pb7ly6nMzVSLejZZ-883" value="&lt;b style=&quot;font-size: 14px;&quot;&gt;Lab Technician Management&lt;/b&gt;" style="text;whiteSpace=wrap;html=1;fontFamily=Times New Roman;fontSize=14;" parent="1" vertex="1">
          <mxGeometry x="400.75" y="2797" width="193.5" height="28" as="geometry" />
        </mxCell>
        <mxCell id="Hje7Pb7ly6nMzVSLejZZ-884" value="&lt;b style=&quot;border-color: var(--border-color); color: rgb(0, 0, 0); font-size: 14px; font-style: normal; font-variant-ligatures: normal; font-variant-caps: normal; letter-spacing: normal; orphans: 2; text-align: left; text-indent: 0px; text-transform: none; widows: 2; word-spacing: 0px; -webkit-text-stroke-width: 0px; background-color: rgb(251, 251, 251); text-decoration-thickness: initial; text-decoration-style: initial; text-decoration-color: initial;&quot;&gt;&lt;span style=&quot;border-color: var(--border-color); color: rgb(0, 0, 0); font-size: 14px; font-style: normal; font-variant-ligatures: normal; font-variant-caps: normal; letter-spacing: normal; orphans: 2; text-align: center; text-indent: 0px; text-transform: none; widows: 2; word-spacing: 0px; -webkit-text-stroke-width: 0px; background-color: rgb(251, 251, 251); text-decoration-thickness: initial; text-decoration-style: initial; text-decoration-color: initial; display: inline !important;&quot;&gt;&amp;lt;&amp;lt;service&amp;gt;&amp;gt;&lt;/span&gt;&lt;/b&gt;" style="text;whiteSpace=wrap;html=1;fontFamily=Times New Roman;fontSize=14;" parent="1" vertex="1">
          <mxGeometry x="438" y="2770" width="75.5" height="20" as="geometry" />
        </mxCell>
        <mxCell id="Hje7Pb7ly6nMzVSLejZZ-885" value="&lt;div style=&quot;text-align: justify; font-size: 14px;&quot;&gt;&lt;/div&gt;" style="html=1;dropTarget=0;whiteSpace=wrap;align=left;fontFamily=Times New Roman;fontSize=14;" parent="1" vertex="1">
          <mxGeometry x="357.5" y="3067.5" width="280" height="206" as="geometry" />
        </mxCell>
        <mxCell id="Hje7Pb7ly6nMzVSLejZZ-886" value="" style="shape=module;jettyWidth=8;jettyHeight=4;fontFamily=Times New Roman;fontSize=14;" parent="Hje7Pb7ly6nMzVSLejZZ-885" vertex="1">
          <mxGeometry x="1" width="20" height="20" relative="1" as="geometry">
            <mxPoint x="-27" y="7" as="offset" />
          </mxGeometry>
        </mxCell>
        <mxCell id="Hje7Pb7ly6nMzVSLejZZ-887" value="" style="html=1;rounded=0;fontFamily=Times New Roman;fontSize=14;" parent="1" vertex="1">
          <mxGeometry x="617.5" y="3117.5" width="30" height="30" as="geometry" />
        </mxCell>
        <mxCell id="Hje7Pb7ly6nMzVSLejZZ-888" value="" style="endArrow=none;html=1;rounded=0;align=center;verticalAlign=top;endFill=0;labelBackgroundColor=none;endSize=2;fontFamily=Times New Roman;fontSize=14;" parent="1" source="Hje7Pb7ly6nMzVSLejZZ-887" target="Hje7Pb7ly6nMzVSLejZZ-889" edge="1">
          <mxGeometry relative="1" as="geometry" />
        </mxCell>
        <mxCell id="Hje7Pb7ly6nMzVSLejZZ-889" value="" style="ellipse;html=1;fontSize=14;align=center;fillColor=none;points=[];aspect=fixed;resizable=0;verticalAlign=bottom;labelPosition=center;verticalLabelPosition=top;flipH=1;fontFamily=Times New Roman;" parent="1" vertex="1">
          <mxGeometry x="669.5" y="3128.5" width="8" height="8" as="geometry" />
        </mxCell>
        <mxCell id="Hje7Pb7ly6nMzVSLejZZ-890" value="&lt;b style=&quot;border-color: var(--border-color); color: rgb(0, 0, 0); font-size: 14px; font-style: normal; font-variant-ligatures: normal; font-variant-caps: normal; letter-spacing: normal; orphans: 2; text-align: left; text-indent: 0px; text-transform: none; widows: 2; word-spacing: 0px; -webkit-text-stroke-width: 0px; background-color: rgb(251, 251, 251); text-decoration-thickness: initial; text-decoration-style: initial; text-decoration-color: initial;&quot;&gt;&lt;span style=&quot;border-color: var(--border-color); color: rgb(0, 0, 0); font-size: 14px; font-style: normal; font-variant-ligatures: normal; font-variant-caps: normal; letter-spacing: normal; orphans: 2; text-align: center; text-indent: 0px; text-transform: none; widows: 2; word-spacing: 0px; -webkit-text-stroke-width: 0px; background-color: rgb(251, 251, 251); text-decoration-thickness: initial; text-decoration-style: initial; text-decoration-color: initial; display: inline !important;&quot;&gt;&amp;lt;&amp;lt;component&amp;gt;&amp;gt;&lt;/span&gt;&lt;/b&gt;" style="text;whiteSpace=wrap;html=1;fontFamily=Times New Roman;fontSize=14;" parent="1" vertex="1">
          <mxGeometry x="432.5" y="3067.5" width="95" height="20" as="geometry" />
        </mxCell>
        <mxCell id="Hje7Pb7ly6nMzVSLejZZ-891" value="" style="html=1;rounded=0;fontFamily=Times New Roman;fontSize=14;" parent="1" vertex="1">
          <mxGeometry x="617.5" y="3167.5" width="30" height="30" as="geometry" />
        </mxCell>
        <mxCell id="Hje7Pb7ly6nMzVSLejZZ-892" value="" style="endArrow=none;html=1;rounded=0;align=center;verticalAlign=top;endFill=0;labelBackgroundColor=none;endSize=2;fontFamily=Times New Roman;fontSize=14;" parent="1" edge="1">
          <mxGeometry relative="1" as="geometry">
            <mxPoint x="670" y="3182.5" as="sourcePoint" />
            <mxPoint x="669.5" y="3182.5" as="targetPoint" />
          </mxGeometry>
        </mxCell>
        <mxCell id="Hje7Pb7ly6nMzVSLejZZ-893" value="" style="html=1;rounded=0;direction=south;fontFamily=Times New Roman;fontSize=14;" parent="1" vertex="1">
          <mxGeometry x="337.5" y="3138.5" width="30" height="30" as="geometry" />
        </mxCell>
        <mxCell id="Hje7Pb7ly6nMzVSLejZZ-894" value="" style="endArrow=none;html=1;rounded=0;align=center;verticalAlign=top;endFill=0;labelBackgroundColor=none;endSize=2;fontFamily=Times New Roman;fontSize=14;" parent="1" source="Hje7Pb7ly6nMzVSLejZZ-893" target="Hje7Pb7ly6nMzVSLejZZ-895" edge="1">
          <mxGeometry relative="1" as="geometry" />
        </mxCell>
        <mxCell id="Hje7Pb7ly6nMzVSLejZZ-895" value="" style="shape=requiredInterface;html=1;fontSize=14;align=center;fillColor=none;points=[];aspect=fixed;resizable=0;verticalAlign=bottom;labelPosition=center;verticalLabelPosition=top;flipH=1;direction=west;fontFamily=Times New Roman;" parent="1" vertex="1">
          <mxGeometry x="317.5" y="3148.5" width="5" height="10" as="geometry" />
        </mxCell>
        <mxCell id="Hje7Pb7ly6nMzVSLejZZ-896" value="&lt;b style=&quot;border-color: var(--border-color); color: rgb(0, 0, 0); font-size: 14px; font-style: normal; font-variant-ligatures: normal; font-variant-caps: normal; letter-spacing: normal; orphans: 2; text-align: left; text-indent: 0px; text-transform: none; widows: 2; word-spacing: 0px; -webkit-text-stroke-width: 0px; background-color: rgb(251, 251, 251); text-decoration-thickness: initial; text-decoration-style: initial; text-decoration-color: initial;&quot;&gt;&lt;span style=&quot;border-color: var(--border-color); color: rgb(0, 0, 0); font-size: 14px; font-style: normal; font-variant-ligatures: normal; font-variant-caps: normal; letter-spacing: normal; orphans: 2; text-align: center; text-indent: 0px; text-transform: none; widows: 2; word-spacing: 0px; -webkit-text-stroke-width: 0px; background-color: rgb(251, 251, 251); text-decoration-thickness: initial; text-decoration-style: initial; text-decoration-color: initial; display: inline !important;&quot;&gt;&amp;lt;&amp;lt;service&amp;gt;&amp;gt;&lt;/span&gt;&lt;/b&gt;" style="text;whiteSpace=wrap;html=1;fontFamily=Times New Roman;fontSize=14;" parent="1" vertex="1">
          <mxGeometry x="442" y="3087.5" width="95" height="20" as="geometry" />
        </mxCell>
        <mxCell id="Hje7Pb7ly6nMzVSLejZZ-909" value="&lt;div style=&quot;text-align: justify; font-size: 14px;&quot;&gt;&lt;/div&gt;" style="html=1;dropTarget=0;whiteSpace=wrap;align=left;fontFamily=Times New Roman;fontSize=14;" parent="1" vertex="1">
          <mxGeometry x="363.25" y="3333.5" width="280" height="216.5" as="geometry" />
        </mxCell>
        <mxCell id="Hje7Pb7ly6nMzVSLejZZ-910" value="" style="shape=module;jettyWidth=8;jettyHeight=4;fontFamily=Times New Roman;fontSize=14;" parent="Hje7Pb7ly6nMzVSLejZZ-909" vertex="1">
          <mxGeometry x="1" width="20" height="20" relative="1" as="geometry">
            <mxPoint x="-27" y="7" as="offset" />
          </mxGeometry>
        </mxCell>
        <mxCell id="Hje7Pb7ly6nMzVSLejZZ-911" value="" style="html=1;rounded=0;fontFamily=Times New Roman;fontSize=14;" parent="1" vertex="1">
          <mxGeometry x="623.25" y="3383.5" width="30" height="30" as="geometry" />
        </mxCell>
        <mxCell id="Hje7Pb7ly6nMzVSLejZZ-912" value="" style="endArrow=none;html=1;rounded=0;align=center;verticalAlign=top;endFill=0;labelBackgroundColor=none;endSize=2;fontFamily=Times New Roman;fontSize=14;" parent="1" source="Hje7Pb7ly6nMzVSLejZZ-1208" edge="1">
          <mxGeometry relative="1" as="geometry">
            <mxPoint x="675" y="3398.5263157894738" as="sourcePoint" />
            <mxPoint x="675.25" y="3398.5" as="targetPoint" />
          </mxGeometry>
        </mxCell>
        <mxCell id="Hje7Pb7ly6nMzVSLejZZ-913" value="&lt;b style=&quot;border-color: var(--border-color); color: rgb(0, 0, 0); font-size: 14px; font-style: normal; font-variant-ligatures: normal; font-variant-caps: normal; letter-spacing: normal; orphans: 2; text-align: left; text-indent: 0px; text-transform: none; widows: 2; word-spacing: 0px; -webkit-text-stroke-width: 0px; background-color: rgb(251, 251, 251); text-decoration-thickness: initial; text-decoration-style: initial; text-decoration-color: initial;&quot;&gt;&lt;span style=&quot;border-color: var(--border-color); color: rgb(0, 0, 0); font-size: 14px; font-style: normal; font-variant-ligatures: normal; font-variant-caps: normal; letter-spacing: normal; orphans: 2; text-align: center; text-indent: 0px; text-transform: none; widows: 2; word-spacing: 0px; -webkit-text-stroke-width: 0px; background-color: rgb(251, 251, 251); text-decoration-thickness: initial; text-decoration-style: initial; text-decoration-color: initial; display: inline !important;&quot;&gt;&amp;lt;&amp;lt;component&amp;gt;&amp;gt;&lt;/span&gt;&lt;/b&gt;" style="text;whiteSpace=wrap;html=1;fontFamily=Times New Roman;fontSize=14;" parent="1" vertex="1">
          <mxGeometry x="438.25" y="3333.5" width="95" height="20" as="geometry" />
        </mxCell>
        <mxCell id="Hje7Pb7ly6nMzVSLejZZ-914" value="" style="html=1;rounded=0;fontFamily=Times New Roman;fontSize=14;" parent="1" vertex="1">
          <mxGeometry x="623.25" y="3433.5" width="30" height="30" as="geometry" />
        </mxCell>
        <mxCell id="Hje7Pb7ly6nMzVSLejZZ-915" value="" style="endArrow=none;html=1;rounded=0;align=center;verticalAlign=top;endFill=0;labelBackgroundColor=none;endSize=2;fontFamily=Times New Roman;fontSize=14;" parent="1" source="Hje7Pb7ly6nMzVSLejZZ-914" target="Hje7Pb7ly6nMzVSLejZZ-916" edge="1">
          <mxGeometry relative="1" as="geometry" />
        </mxCell>
        <mxCell id="Hje7Pb7ly6nMzVSLejZZ-916" value="" style="ellipse;html=1;fontSize=14;align=center;fillColor=none;points=[];aspect=fixed;resizable=0;verticalAlign=bottom;labelPosition=center;verticalLabelPosition=top;flipH=1;fontFamily=Times New Roman;" parent="1" vertex="1">
          <mxGeometry x="675.25" y="3444.5" width="8" height="8" as="geometry" />
        </mxCell>
        <mxCell id="Hje7Pb7ly6nMzVSLejZZ-917" value="" style="html=1;rounded=0;direction=south;fontFamily=Times New Roman;fontSize=14;" parent="1" vertex="1">
          <mxGeometry x="343.25" y="3414.5" width="30" height="30" as="geometry" />
        </mxCell>
        <mxCell id="Hje7Pb7ly6nMzVSLejZZ-918" value="" style="endArrow=none;html=1;rounded=0;align=center;verticalAlign=top;endFill=0;labelBackgroundColor=none;endSize=2;fontFamily=Times New Roman;fontSize=14;" parent="1" source="Hje7Pb7ly6nMzVSLejZZ-917" target="Hje7Pb7ly6nMzVSLejZZ-919" edge="1">
          <mxGeometry relative="1" as="geometry" />
        </mxCell>
        <mxCell id="Hje7Pb7ly6nMzVSLejZZ-919" value="" style="shape=requiredInterface;html=1;fontSize=14;align=center;fillColor=none;points=[];aspect=fixed;resizable=0;verticalAlign=bottom;labelPosition=center;verticalLabelPosition=top;flipH=1;direction=west;fontFamily=Times New Roman;" parent="1" vertex="1">
          <mxGeometry x="323.25" y="3414.5" width="5" height="10" as="geometry" />
        </mxCell>
        <mxCell id="Hje7Pb7ly6nMzVSLejZZ-920" value="&lt;b style=&quot;font-size: 14px;&quot;&gt;Lab Instrument&lt;/b&gt;" style="text;whiteSpace=wrap;html=1;fontFamily=Times New Roman;fontSize=14;" parent="1" vertex="1">
          <mxGeometry x="438.25" y="3376" width="150" height="20" as="geometry" />
        </mxCell>
        <mxCell id="Hje7Pb7ly6nMzVSLejZZ-921" value="&lt;b style=&quot;border-color: var(--border-color); color: rgb(0, 0, 0); font-size: 14px; font-style: normal; font-variant-ligatures: normal; font-variant-caps: normal; letter-spacing: normal; orphans: 2; text-align: left; text-indent: 0px; text-transform: none; widows: 2; word-spacing: 0px; -webkit-text-stroke-width: 0px; background-color: rgb(251, 251, 251); text-decoration-thickness: initial; text-decoration-style: initial; text-decoration-color: initial;&quot;&gt;&lt;span style=&quot;border-color: var(--border-color); color: rgb(0, 0, 0); font-size: 14px; font-style: normal; font-variant-ligatures: normal; font-variant-caps: normal; letter-spacing: normal; orphans: 2; text-align: center; text-indent: 0px; text-transform: none; widows: 2; word-spacing: 0px; -webkit-text-stroke-width: 0px; background-color: rgb(251, 251, 251); text-decoration-thickness: initial; text-decoration-style: initial; text-decoration-color: initial; display: inline !important;&quot;&gt;&amp;lt;&amp;lt;service&amp;gt;&amp;gt;&lt;/span&gt;&lt;/b&gt;" style="text;whiteSpace=wrap;html=1;fontFamily=Times New Roman;fontSize=14;" parent="1" vertex="1">
          <mxGeometry x="445" y="3353.5" width="95" height="20" as="geometry" />
        </mxCell>
        <mxCell id="Hje7Pb7ly6nMzVSLejZZ-922" value="&lt;div style=&quot;text-align: justify; font-size: 14px;&quot;&gt;&lt;/div&gt;" style="html=1;dropTarget=0;whiteSpace=wrap;align=left;fontFamily=Times New Roman;fontSize=14;" parent="1" vertex="1">
          <mxGeometry x="357.5" y="3598.5" width="280" height="241.5" as="geometry" />
        </mxCell>
        <mxCell id="Hje7Pb7ly6nMzVSLejZZ-923" value="" style="shape=module;jettyWidth=8;jettyHeight=4;fontFamily=Times New Roman;fontSize=14;" parent="Hje7Pb7ly6nMzVSLejZZ-922" vertex="1">
          <mxGeometry x="1" width="20" height="20" relative="1" as="geometry">
            <mxPoint x="-27" y="7" as="offset" />
          </mxGeometry>
        </mxCell>
        <mxCell id="Hje7Pb7ly6nMzVSLejZZ-924" value="" style="html=1;rounded=0;fontFamily=Times New Roman;fontSize=14;" parent="1" vertex="1">
          <mxGeometry x="617.5" y="3648.5" width="30" height="30" as="geometry" />
        </mxCell>
        <mxCell id="Hje7Pb7ly6nMzVSLejZZ-925" value="" style="endArrow=none;html=1;rounded=0;align=center;verticalAlign=top;endFill=0;labelBackgroundColor=none;endSize=2;fontFamily=Times New Roman;fontSize=14;" parent="1" source="Hje7Pb7ly6nMzVSLejZZ-924" edge="1">
          <mxGeometry relative="1" as="geometry">
            <mxPoint x="669.5" y="3663.5" as="targetPoint" />
          </mxGeometry>
        </mxCell>
        <mxCell id="Hje7Pb7ly6nMzVSLejZZ-926" value="&lt;b style=&quot;border-color: var(--border-color); color: rgb(0, 0, 0); font-size: 14px; font-style: normal; font-variant-ligatures: normal; font-variant-caps: normal; letter-spacing: normal; orphans: 2; text-align: left; text-indent: 0px; text-transform: none; widows: 2; word-spacing: 0px; -webkit-text-stroke-width: 0px; background-color: rgb(251, 251, 251); text-decoration-thickness: initial; text-decoration-style: initial; text-decoration-color: initial;&quot;&gt;&lt;span style=&quot;border-color: var(--border-color); color: rgb(0, 0, 0); font-size: 14px; font-style: normal; font-variant-ligatures: normal; font-variant-caps: normal; letter-spacing: normal; orphans: 2; text-align: center; text-indent: 0px; text-transform: none; widows: 2; word-spacing: 0px; -webkit-text-stroke-width: 0px; background-color: rgb(251, 251, 251); text-decoration-thickness: initial; text-decoration-style: initial; text-decoration-color: initial; display: inline !important;&quot;&gt;&amp;lt;&amp;lt;component&amp;gt;&amp;gt;&lt;/span&gt;&lt;/b&gt;" style="text;whiteSpace=wrap;html=1;fontFamily=Times New Roman;fontSize=14;" parent="1" vertex="1">
          <mxGeometry x="432.5" y="3598.5" width="95" height="20" as="geometry" />
        </mxCell>
        <mxCell id="Hje7Pb7ly6nMzVSLejZZ-927" value="" style="html=1;rounded=0;fontFamily=Times New Roman;fontSize=14;" parent="1" vertex="1">
          <mxGeometry x="617.5" y="3698.5" width="30" height="30" as="geometry" />
        </mxCell>
        <mxCell id="Hje7Pb7ly6nMzVSLejZZ-928" value="" style="endArrow=none;html=1;rounded=0;align=center;verticalAlign=top;endFill=0;labelBackgroundColor=none;endSize=2;fontFamily=Times New Roman;fontSize=14;" parent="1" source="Hje7Pb7ly6nMzVSLejZZ-927" target="Hje7Pb7ly6nMzVSLejZZ-929" edge="1">
          <mxGeometry relative="1" as="geometry" />
        </mxCell>
        <mxCell id="Hje7Pb7ly6nMzVSLejZZ-929" value="" style="ellipse;html=1;fontSize=14;align=center;fillColor=none;points=[];aspect=fixed;resizable=0;verticalAlign=bottom;labelPosition=center;verticalLabelPosition=top;flipH=1;fontFamily=Times New Roman;" parent="1" vertex="1">
          <mxGeometry x="669.5" y="3709.5" width="8" height="8" as="geometry" />
        </mxCell>
        <mxCell id="Hje7Pb7ly6nMzVSLejZZ-930" value="" style="html=1;rounded=0;direction=south;fontFamily=Times New Roman;fontSize=14;" parent="1" vertex="1">
          <mxGeometry x="337.5" y="3669.5" width="30" height="30" as="geometry" />
        </mxCell>
        <mxCell id="Hje7Pb7ly6nMzVSLejZZ-931" value="" style="endArrow=none;html=1;rounded=0;align=center;verticalAlign=top;endFill=0;labelBackgroundColor=none;endSize=2;fontFamily=Times New Roman;fontSize=14;" parent="1" source="Hje7Pb7ly6nMzVSLejZZ-930" target="Hje7Pb7ly6nMzVSLejZZ-932" edge="1">
          <mxGeometry relative="1" as="geometry" />
        </mxCell>
        <mxCell id="Hje7Pb7ly6nMzVSLejZZ-932" value="" style="shape=requiredInterface;html=1;fontSize=14;align=center;fillColor=none;points=[];aspect=fixed;resizable=0;verticalAlign=bottom;labelPosition=center;verticalLabelPosition=top;flipH=1;direction=west;fontFamily=Times New Roman;" parent="1" vertex="1">
          <mxGeometry x="317.5" y="3679.5" width="5" height="10" as="geometry" />
        </mxCell>
        <mxCell id="Hje7Pb7ly6nMzVSLejZZ-933" value="&lt;b style=&quot;font-size: 14px;&quot;&gt;Lab Request&lt;/b&gt;" style="text;whiteSpace=wrap;html=1;fontFamily=Times New Roman;fontSize=14;" parent="1" vertex="1">
          <mxGeometry x="441.75" y="3638" width="190.49" height="20" as="geometry" />
        </mxCell>
        <mxCell id="Hje7Pb7ly6nMzVSLejZZ-934" value="&lt;b style=&quot;border-color: var(--border-color); color: rgb(0, 0, 0); font-size: 14px; font-style: normal; font-variant-ligatures: normal; font-variant-caps: normal; letter-spacing: normal; orphans: 2; text-align: left; text-indent: 0px; text-transform: none; widows: 2; word-spacing: 0px; -webkit-text-stroke-width: 0px; background-color: rgb(251, 251, 251); text-decoration-thickness: initial; text-decoration-style: initial; text-decoration-color: initial;&quot;&gt;&lt;span style=&quot;border-color: var(--border-color); color: rgb(0, 0, 0); font-size: 14px; font-style: normal; font-variant-ligatures: normal; font-variant-caps: normal; letter-spacing: normal; orphans: 2; text-align: center; text-indent: 0px; text-transform: none; widows: 2; word-spacing: 0px; -webkit-text-stroke-width: 0px; background-color: rgb(251, 251, 251); text-decoration-thickness: initial; text-decoration-style: initial; text-decoration-color: initial; display: inline !important;&quot;&gt;&amp;lt;&amp;lt;service&amp;gt;&amp;gt;&lt;/span&gt;&lt;/b&gt;" style="text;whiteSpace=wrap;html=1;fontFamily=Times New Roman;fontSize=14;" parent="1" vertex="1">
          <mxGeometry x="442.5" y="3618.5" width="95" height="20" as="geometry" />
        </mxCell>
        <mxCell id="Hje7Pb7ly6nMzVSLejZZ-935" value="&lt;b style=&quot;font-size: 14px;&quot;&gt;Lab Test&lt;/b&gt;" style="text;whiteSpace=wrap;html=1;fontFamily=Times New Roman;fontSize=14;" parent="1" vertex="1">
          <mxGeometry x="450" y="3110.5" width="170" height="25" as="geometry" />
        </mxCell>
        <mxCell id="Hje7Pb7ly6nMzVSLejZZ-936" value="" style="html=1;dropTarget=0;whiteSpace=wrap;fontFamily=Times New Roman;fontSize=14;" parent="1" vertex="1">
          <mxGeometry x="1632" y="2426" width="992" height="1454" as="geometry" />
        </mxCell>
        <mxCell id="Hje7Pb7ly6nMzVSLejZZ-937" value="" style="shape=module;jettyWidth=8;jettyHeight=4;fontFamily=Times New Roman;fontSize=14;" parent="Hje7Pb7ly6nMzVSLejZZ-936" vertex="1">
          <mxGeometry x="1" width="20" height="20" relative="1" as="geometry">
            <mxPoint x="-27" y="7" as="offset" />
          </mxGeometry>
        </mxCell>
        <mxCell id="Hje7Pb7ly6nMzVSLejZZ-938" value="&lt;div style=&quot;text-align: justify; font-size: 14px;&quot;&gt;&lt;/div&gt;" style="html=1;dropTarget=0;whiteSpace=wrap;align=left;fontFamily=Times New Roman;fontSize=14;" parent="1" vertex="1">
          <mxGeometry x="1752.5" y="2573" width="280" height="150" as="geometry" />
        </mxCell>
        <mxCell id="Hje7Pb7ly6nMzVSLejZZ-939" value="" style="shape=module;jettyWidth=8;jettyHeight=4;fontFamily=Times New Roman;fontSize=14;" parent="Hje7Pb7ly6nMzVSLejZZ-938" vertex="1">
          <mxGeometry x="1" width="20" height="20" relative="1" as="geometry">
            <mxPoint x="-27" y="7" as="offset" />
          </mxGeometry>
        </mxCell>
        <mxCell id="Hje7Pb7ly6nMzVSLejZZ-940" value="" style="html=1;rounded=0;fontFamily=Times New Roman;fontSize=14;" parent="1" vertex="1">
          <mxGeometry x="2017.5" y="2618" width="30" height="30" as="geometry" />
        </mxCell>
        <mxCell id="Hje7Pb7ly6nMzVSLejZZ-941" value="" style="endArrow=none;html=1;rounded=0;align=center;verticalAlign=top;endFill=0;labelBackgroundColor=none;endSize=2;fontFamily=Times New Roman;fontSize=14;" parent="1" edge="1">
          <mxGeometry relative="1" as="geometry">
            <mxPoint x="2069" y="2633.0526315789216" as="sourcePoint" />
            <mxPoint x="2069.499999999767" y="2633" as="targetPoint" />
          </mxGeometry>
        </mxCell>
        <mxCell id="Hje7Pb7ly6nMzVSLejZZ-942" value="&lt;b style=&quot;border-color: var(--border-color); color: rgb(0, 0, 0); font-size: 14px; font-style: normal; font-variant-ligatures: normal; font-variant-caps: normal; letter-spacing: normal; orphans: 2; text-align: left; text-indent: 0px; text-transform: none; widows: 2; word-spacing: 0px; -webkit-text-stroke-width: 0px; background-color: rgb(251, 251, 251); text-decoration-thickness: initial; text-decoration-style: initial; text-decoration-color: initial;&quot;&gt;&lt;span style=&quot;border-color: var(--border-color); color: rgb(0, 0, 0); font-size: 14px; font-style: normal; font-variant-ligatures: normal; font-variant-caps: normal; letter-spacing: normal; orphans: 2; text-align: center; text-indent: 0px; text-transform: none; widows: 2; word-spacing: 0px; -webkit-text-stroke-width: 0px; background-color: rgb(251, 251, 251); text-decoration-thickness: initial; text-decoration-style: initial; text-decoration-color: initial; display: inline !important;&quot;&gt;&amp;lt;&amp;lt;component&amp;gt;&amp;gt;&lt;/span&gt;&lt;/b&gt;" style="text;whiteSpace=wrap;html=1;fontFamily=Times New Roman;fontSize=14;" parent="1" vertex="1">
          <mxGeometry x="1847" y="2585" width="95" height="20" as="geometry" />
        </mxCell>
        <mxCell id="Hje7Pb7ly6nMzVSLejZZ-943" value="" style="html=1;rounded=0;fontFamily=Times New Roman;fontSize=14;" parent="1" vertex="1">
          <mxGeometry x="2017.5" y="2668" width="30" height="30" as="geometry" />
        </mxCell>
        <mxCell id="Hje7Pb7ly6nMzVSLejZZ-944" value="" style="endArrow=none;html=1;rounded=0;align=center;verticalAlign=top;endFill=0;labelBackgroundColor=none;endSize=2;fontFamily=Times New Roman;fontSize=14;" parent="1" source="Hje7Pb7ly6nMzVSLejZZ-1103" edge="1">
          <mxGeometry relative="1" as="geometry">
            <mxPoint x="2069.499999999767" y="2683" as="targetPoint" />
          </mxGeometry>
        </mxCell>
        <mxCell id="Hje7Pb7ly6nMzVSLejZZ-945" value="" style="html=1;rounded=0;direction=south;fontFamily=Times New Roman;fontSize=14;" parent="1" vertex="1">
          <mxGeometry x="1736.5" y="2623" width="30" height="30" as="geometry" />
        </mxCell>
        <mxCell id="Hje7Pb7ly6nMzVSLejZZ-946" value="" style="endArrow=none;html=1;rounded=0;align=center;verticalAlign=top;endFill=0;labelBackgroundColor=none;endSize=2;fontFamily=Times New Roman;fontSize=14;" parent="1" source="Hje7Pb7ly6nMzVSLejZZ-945" target="Hje7Pb7ly6nMzVSLejZZ-947" edge="1">
          <mxGeometry relative="1" as="geometry" />
        </mxCell>
        <mxCell id="Hje7Pb7ly6nMzVSLejZZ-947" value="" style="shape=requiredInterface;html=1;fontSize=14;align=center;fillColor=none;points=[];aspect=fixed;resizable=0;verticalAlign=bottom;labelPosition=center;verticalLabelPosition=top;flipH=1;direction=west;fontFamily=Times New Roman;" parent="1" vertex="1">
          <mxGeometry x="1719" y="2634" width="5" height="10" as="geometry" />
        </mxCell>
        <mxCell id="Hje7Pb7ly6nMzVSLejZZ-948" value="&lt;b style=&quot;border-color: var(--border-color); color: rgb(0, 0, 0); font-size: 14px; font-style: normal; font-variant-ligatures: normal; font-variant-caps: normal; letter-spacing: normal; orphans: 2; text-align: left; text-indent: 0px; text-transform: none; widows: 2; word-spacing: 0px; -webkit-text-stroke-width: 0px; background-color: rgb(251, 251, 251); text-decoration-thickness: initial; text-decoration-style: initial; text-decoration-color: initial;&quot;&gt;&lt;span style=&quot;border-color: var(--border-color); color: rgb(0, 0, 0); font-size: 14px; font-style: normal; font-variant-ligatures: normal; font-variant-caps: normal; letter-spacing: normal; orphans: 2; text-align: center; text-indent: 0px; text-transform: none; widows: 2; word-spacing: 0px; -webkit-text-stroke-width: 0px; background-color: rgb(251, 251, 251); text-decoration-thickness: initial; text-decoration-style: initial; text-decoration-color: initial; display: inline !important;&quot;&gt;&amp;lt;&amp;lt;service&amp;gt;&amp;gt;&lt;/span&gt;&lt;/b&gt;" style="text;whiteSpace=wrap;html=1;fontFamily=Times New Roman;fontSize=14;" parent="1" vertex="1">
          <mxGeometry x="1845" y="2623" width="95" height="20" as="geometry" />
        </mxCell>
        <mxCell id="Hje7Pb7ly6nMzVSLejZZ-949" value="&lt;b style=&quot;font-size: 14px;&quot;&gt;&lt;br style=&quot;border-color: var(--border-color); padding: 0px; margin: 0px; color: rgb(0, 0, 0); font-size: 14px; font-style: normal; font-variant-ligatures: normal; font-variant-caps: normal; letter-spacing: normal; orphans: 2; text-align: center; text-indent: 0px; text-transform: none; widows: 2; word-spacing: 0px; -webkit-text-stroke-width: 0px; background-color: rgb(251, 251, 251); text-decoration-thickness: initial; text-decoration-style: initial; text-decoration-color: initial;&quot;&gt;&lt;span style=&quot;color: rgb(0, 0, 0); font-size: 14px; font-style: normal; font-variant-ligatures: normal; font-variant-caps: normal; letter-spacing: normal; orphans: 2; text-align: center; text-indent: 0px; text-transform: none; widows: 2; word-spacing: 0px; -webkit-text-stroke-width: 0px; background-color: rgb(251, 251, 251); text-decoration-thickness: initial; text-decoration-style: initial; text-decoration-color: initial; float: none; display: inline !important;&quot;&gt;AuthenticationAccountManagement&lt;/span&gt;&lt;/b&gt;" style="text;whiteSpace=wrap;html=1;fontFamily=Times New Roman;fontSize=14;" parent="1" vertex="1">
          <mxGeometry x="1787.5" y="2635" width="210" height="41" as="geometry" />
        </mxCell>
        <mxCell id="Hje7Pb7ly6nMzVSLejZZ-950" value="" style="html=1;rounded=0;direction=south;fontFamily=Times New Roman;fontSize=14;" parent="1" vertex="1">
          <mxGeometry x="1736.5" y="2672" width="30" height="30" as="geometry" />
        </mxCell>
        <mxCell id="Hje7Pb7ly6nMzVSLejZZ-951" value="" style="endArrow=none;html=1;rounded=0;align=center;verticalAlign=top;endFill=0;labelBackgroundColor=none;endSize=2;fontFamily=Times New Roman;fontSize=14;" parent="1" source="Hje7Pb7ly6nMzVSLejZZ-1214" edge="1">
          <mxGeometry relative="1" as="geometry">
            <mxPoint x="1723.8805700005814" y="2688.0298574998546" as="sourcePoint" />
            <mxPoint x="1724" y="2687.916666666667" as="targetPoint" />
          </mxGeometry>
        </mxCell>
        <mxCell id="Hje7Pb7ly6nMzVSLejZZ-952" value="&lt;div style=&quot;text-align: justify; font-size: 14px;&quot;&gt;&lt;/div&gt;" style="html=1;dropTarget=0;whiteSpace=wrap;align=left;fontFamily=Times New Roman;fontSize=14;" parent="1" vertex="1">
          <mxGeometry x="1748" y="2905" width="280" height="155" as="geometry" />
        </mxCell>
        <mxCell id="Hje7Pb7ly6nMzVSLejZZ-953" value="" style="shape=module;jettyWidth=8;jettyHeight=4;fontFamily=Times New Roman;fontSize=14;" parent="Hje7Pb7ly6nMzVSLejZZ-952" vertex="1">
          <mxGeometry x="1" width="20" height="20" relative="1" as="geometry">
            <mxPoint x="-27" y="7" as="offset" />
          </mxGeometry>
        </mxCell>
        <mxCell id="Hje7Pb7ly6nMzVSLejZZ-954" value="" style="html=1;rounded=0;fontFamily=Times New Roman;fontSize=14;" parent="1" vertex="1">
          <mxGeometry x="2017.5" y="2959" width="30" height="30" as="geometry" />
        </mxCell>
        <mxCell id="Hje7Pb7ly6nMzVSLejZZ-955" value="" style="endArrow=none;html=1;rounded=0;align=center;verticalAlign=top;endFill=0;labelBackgroundColor=none;endSize=2;fontFamily=Times New Roman;fontSize=14;" parent="1" edge="1">
          <mxGeometry relative="1" as="geometry">
            <mxPoint x="2069" y="2973.6457756917353" as="sourcePoint" />
            <mxPoint x="2069.50690250729" y="2973.765111912194" as="targetPoint" />
          </mxGeometry>
        </mxCell>
        <mxCell id="Hje7Pb7ly6nMzVSLejZZ-956" value="&lt;b style=&quot;border-color: var(--border-color); color: rgb(0, 0, 0); font-size: 14px; font-style: normal; font-variant-ligatures: normal; font-variant-caps: normal; letter-spacing: normal; orphans: 2; text-align: left; text-indent: 0px; text-transform: none; widows: 2; word-spacing: 0px; -webkit-text-stroke-width: 0px; background-color: rgb(251, 251, 251); text-decoration-thickness: initial; text-decoration-style: initial; text-decoration-color: initial;&quot;&gt;&lt;span style=&quot;border-color: var(--border-color); color: rgb(0, 0, 0); font-size: 14px; font-style: normal; font-variant-ligatures: normal; font-variant-caps: normal; letter-spacing: normal; orphans: 2; text-align: center; text-indent: 0px; text-transform: none; widows: 2; word-spacing: 0px; -webkit-text-stroke-width: 0px; background-color: rgb(251, 251, 251); text-decoration-thickness: initial; text-decoration-style: initial; text-decoration-color: initial; display: inline !important;&quot;&gt;&amp;lt;&amp;lt;component&amp;gt;&amp;gt;&lt;/span&gt;&lt;/b&gt;" style="text;whiteSpace=wrap;html=1;fontFamily=Times New Roman;fontSize=14;" parent="1" vertex="1">
          <mxGeometry x="1835.5" y="2943.5" width="95" height="20" as="geometry" />
        </mxCell>
        <mxCell id="Hje7Pb7ly6nMzVSLejZZ-957" value="" style="html=1;rounded=0;fontFamily=Times New Roman;fontSize=14;" parent="1" vertex="1">
          <mxGeometry x="2017.5" y="3009" width="30" height="30" as="geometry" />
        </mxCell>
        <mxCell id="Hje7Pb7ly6nMzVSLejZZ-958" value="" style="endArrow=none;html=1;rounded=0;align=center;verticalAlign=top;endFill=0;labelBackgroundColor=none;endSize=2;fontFamily=Times New Roman;fontSize=14;" parent="1" source="Hje7Pb7ly6nMzVSLejZZ-1109" edge="1">
          <mxGeometry relative="1" as="geometry">
            <mxPoint x="2069.50690250729" y="3023.765111912194" as="targetPoint" />
          </mxGeometry>
        </mxCell>
        <mxCell id="Hje7Pb7ly6nMzVSLejZZ-959" value="" style="html=1;rounded=0;direction=south;fontFamily=Times New Roman;fontSize=14;" parent="1" vertex="1">
          <mxGeometry x="1732" y="2955" width="30" height="30" as="geometry" />
        </mxCell>
        <mxCell id="Hje7Pb7ly6nMzVSLejZZ-960" value="" style="endArrow=none;html=1;rounded=0;align=center;verticalAlign=top;endFill=0;labelBackgroundColor=none;endSize=2;fontFamily=Times New Roman;fontSize=14;" parent="1" source="Hje7Pb7ly6nMzVSLejZZ-959" target="Hje7Pb7ly6nMzVSLejZZ-961" edge="1">
          <mxGeometry relative="1" as="geometry" />
        </mxCell>
        <mxCell id="Hje7Pb7ly6nMzVSLejZZ-961" value="" style="shape=requiredInterface;html=1;fontSize=14;align=center;fillColor=none;points=[];aspect=fixed;resizable=0;verticalAlign=bottom;labelPosition=center;verticalLabelPosition=top;flipH=1;direction=west;fontFamily=Times New Roman;" parent="1" vertex="1">
          <mxGeometry x="1714.5" y="2966" width="5" height="10" as="geometry" />
        </mxCell>
        <mxCell id="Hje7Pb7ly6nMzVSLejZZ-962" value="&lt;b style=&quot;border-color: var(--border-color); color: rgb(0, 0, 0); font-size: 14px; font-style: normal; font-variant-ligatures: normal; font-variant-caps: normal; letter-spacing: normal; orphans: 2; text-align: left; text-indent: 0px; text-transform: none; widows: 2; word-spacing: 0px; -webkit-text-stroke-width: 0px; background-color: rgb(251, 251, 251); text-decoration-thickness: initial; text-decoration-style: initial; text-decoration-color: initial;&quot;&gt;&lt;span style=&quot;border-color: var(--border-color); color: rgb(0, 0, 0); font-size: 14px; font-style: normal; font-variant-ligatures: normal; font-variant-caps: normal; letter-spacing: normal; orphans: 2; text-align: center; text-indent: 0px; text-transform: none; widows: 2; word-spacing: 0px; -webkit-text-stroke-width: 0px; background-color: rgb(251, 251, 251); text-decoration-thickness: initial; text-decoration-style: initial; text-decoration-color: initial; display: inline !important;&quot;&gt;&amp;lt;&amp;lt;service&amp;gt;&amp;gt;&lt;/span&gt;&lt;/b&gt;" style="text;whiteSpace=wrap;html=1;fontFamily=Times New Roman;fontSize=14;" parent="1" vertex="1">
          <mxGeometry x="1841.5" y="2966.5" width="95" height="20" as="geometry" />
        </mxCell>
        <mxCell id="Hje7Pb7ly6nMzVSLejZZ-963" value="&lt;b style=&quot;font-size: 14px;&quot;&gt;LabTechnicianSystem&lt;/b&gt;" style="text;whiteSpace=wrap;html=1;fontFamily=Times New Roman;fontSize=14;" parent="1" vertex="1">
          <mxGeometry x="1824" y="2986.5" width="175" height="31" as="geometry" />
        </mxCell>
        <mxCell id="Hje7Pb7ly6nMzVSLejZZ-964" value="" style="html=1;rounded=0;direction=south;fontFamily=Times New Roman;fontSize=14;" parent="1" vertex="1">
          <mxGeometry x="1732" y="3004" width="30" height="30" as="geometry" />
        </mxCell>
        <mxCell id="Hje7Pb7ly6nMzVSLejZZ-965" value="" style="endArrow=none;html=1;rounded=0;align=center;verticalAlign=top;endFill=0;labelBackgroundColor=none;endSize=2;fontFamily=Times New Roman;fontSize=14;" parent="1" source="Hje7Pb7ly6nMzVSLejZZ-964" target="Hje7Pb7ly6nMzVSLejZZ-966" edge="1">
          <mxGeometry relative="1" as="geometry" />
        </mxCell>
        <mxCell id="Hje7Pb7ly6nMzVSLejZZ-966" value="" style="shape=requiredInterface;html=1;fontSize=14;align=center;fillColor=none;points=[];aspect=fixed;resizable=0;verticalAlign=bottom;labelPosition=center;verticalLabelPosition=top;flipH=1;direction=west;fontFamily=Times New Roman;" parent="1" vertex="1">
          <mxGeometry x="1714.5" y="3015" width="5" height="10" as="geometry" />
        </mxCell>
        <mxCell id="Hje7Pb7ly6nMzVSLejZZ-967" value="&lt;div style=&quot;text-align: justify; font-size: 14px;&quot;&gt;&lt;/div&gt;" style="html=1;dropTarget=0;whiteSpace=wrap;align=left;fontFamily=Times New Roman;fontSize=14;" parent="1" vertex="1">
          <mxGeometry x="1737.5" y="3195.5" width="280" height="164.5" as="geometry" />
        </mxCell>
        <mxCell id="Hje7Pb7ly6nMzVSLejZZ-968" value="" style="shape=module;jettyWidth=8;jettyHeight=4;fontFamily=Times New Roman;fontSize=14;" parent="Hje7Pb7ly6nMzVSLejZZ-967" vertex="1">
          <mxGeometry x="1" width="20" height="20" relative="1" as="geometry">
            <mxPoint x="-27" y="7" as="offset" />
          </mxGeometry>
        </mxCell>
        <mxCell id="Hje7Pb7ly6nMzVSLejZZ-969" value="" style="html=1;rounded=0;fontFamily=Times New Roman;fontSize=14;" parent="1" vertex="1">
          <mxGeometry x="2004" y="3268" width="30" height="30" as="geometry" />
        </mxCell>
        <mxCell id="Hje7Pb7ly6nMzVSLejZZ-970" value="" style="endArrow=none;html=1;rounded=0;align=center;verticalAlign=top;endFill=0;labelBackgroundColor=none;endSize=2;fontFamily=Times New Roman;fontSize=14;" parent="1" source="Hje7Pb7ly6nMzVSLejZZ-1113" edge="1">
          <mxGeometry relative="1" as="geometry">
            <mxPoint x="2056.000000000076" y="3283" as="targetPoint" />
          </mxGeometry>
        </mxCell>
        <mxCell id="Hje7Pb7ly6nMzVSLejZZ-971" value="&lt;b style=&quot;border-color: var(--border-color); color: rgb(0, 0, 0); font-size: 14px; font-style: normal; font-variant-ligatures: normal; font-variant-caps: normal; letter-spacing: normal; orphans: 2; text-align: left; text-indent: 0px; text-transform: none; widows: 2; word-spacing: 0px; -webkit-text-stroke-width: 0px; background-color: rgb(251, 251, 251); text-decoration-thickness: initial; text-decoration-style: initial; text-decoration-color: initial;&quot;&gt;&lt;span style=&quot;border-color: var(--border-color); color: rgb(0, 0, 0); font-size: 14px; font-style: normal; font-variant-ligatures: normal; font-variant-caps: normal; letter-spacing: normal; orphans: 2; text-align: center; text-indent: 0px; text-transform: none; widows: 2; word-spacing: 0px; -webkit-text-stroke-width: 0px; background-color: rgb(251, 251, 251); text-decoration-thickness: initial; text-decoration-style: initial; text-decoration-color: initial; display: inline !important;&quot;&gt;&amp;lt;&amp;lt;component&amp;gt;&amp;gt;&lt;/span&gt;&lt;/b&gt;" style="text;whiteSpace=wrap;html=1;fontFamily=Times New Roman;fontSize=14;" parent="1" vertex="1">
          <mxGeometry x="1832" y="3227" width="95" height="20" as="geometry" />
        </mxCell>
        <mxCell id="Hje7Pb7ly6nMzVSLejZZ-972" value="" style="html=1;rounded=0;fontFamily=Times New Roman;fontSize=14;" parent="1" vertex="1">
          <mxGeometry x="2004" y="3318" width="30" height="30" as="geometry" />
        </mxCell>
        <mxCell id="Hje7Pb7ly6nMzVSLejZZ-973" value="" style="endArrow=none;html=1;rounded=0;align=center;verticalAlign=top;endFill=0;labelBackgroundColor=none;endSize=2;fontFamily=Times New Roman;fontSize=14;" parent="1" source="Hje7Pb7ly6nMzVSLejZZ-1117" edge="1">
          <mxGeometry relative="1" as="geometry">
            <mxPoint x="2056.000000000076" y="3333" as="targetPoint" />
          </mxGeometry>
        </mxCell>
        <mxCell id="Hje7Pb7ly6nMzVSLejZZ-974" value="" style="html=1;rounded=0;direction=south;fontFamily=Times New Roman;fontSize=14;" parent="1" vertex="1">
          <mxGeometry x="1720.1" y="3217.5" width="30" height="30" as="geometry" />
        </mxCell>
        <mxCell id="Hje7Pb7ly6nMzVSLejZZ-975" value="" style="endArrow=none;html=1;rounded=0;align=center;verticalAlign=top;endFill=0;labelBackgroundColor=none;endSize=2;fontFamily=Times New Roman;fontSize=14;" parent="1" source="Hje7Pb7ly6nMzVSLejZZ-974" target="Hje7Pb7ly6nMzVSLejZZ-976" edge="1">
          <mxGeometry relative="1" as="geometry" />
        </mxCell>
        <mxCell id="Hje7Pb7ly6nMzVSLejZZ-976" value="" style="shape=requiredInterface;html=1;fontSize=14;align=center;fillColor=none;points=[];aspect=fixed;resizable=0;verticalAlign=bottom;labelPosition=center;verticalLabelPosition=top;flipH=1;direction=west;fontFamily=Times New Roman;" parent="1" vertex="1">
          <mxGeometry x="1702.6" y="3228.5" width="5" height="10" as="geometry" />
        </mxCell>
        <mxCell id="Hje7Pb7ly6nMzVSLejZZ-977" value="&lt;b style=&quot;border-color: var(--border-color); color: rgb(0, 0, 0); font-size: 14px; font-style: normal; font-variant-ligatures: normal; font-variant-caps: normal; letter-spacing: normal; orphans: 2; text-align: left; text-indent: 0px; text-transform: none; widows: 2; word-spacing: 0px; -webkit-text-stroke-width: 0px; background-color: rgb(251, 251, 251); text-decoration-thickness: initial; text-decoration-style: initial; text-decoration-color: initial;&quot;&gt;&lt;span style=&quot;border-color: var(--border-color); color: rgb(0, 0, 0); font-size: 14px; font-style: normal; font-variant-ligatures: normal; font-variant-caps: normal; letter-spacing: normal; orphans: 2; text-align: center; text-indent: 0px; text-transform: none; widows: 2; word-spacing: 0px; -webkit-text-stroke-width: 0px; background-color: rgb(251, 251, 251); text-decoration-thickness: initial; text-decoration-style: initial; text-decoration-color: initial; display: inline !important;&quot;&gt;&amp;lt;&amp;lt;service&amp;gt;&amp;gt;&lt;/span&gt;&lt;/b&gt;" style="text;whiteSpace=wrap;html=1;fontFamily=Times New Roman;fontSize=14;" parent="1" vertex="1">
          <mxGeometry x="1845" y="3250.5" width="95" height="20" as="geometry" />
        </mxCell>
        <mxCell id="Hje7Pb7ly6nMzVSLejZZ-978" value="&lt;b style=&quot;font-size: 14px;&quot;&gt;LabTestSystem&lt;/b&gt;" style="text;whiteSpace=wrap;html=1;fontFamily=Times New Roman;fontSize=14;" parent="1" vertex="1">
          <mxGeometry x="1834" y="3270.5" width="175" height="31" as="geometry" />
        </mxCell>
        <mxCell id="Hje7Pb7ly6nMzVSLejZZ-979" value="" style="html=1;rounded=0;direction=south;fontFamily=Times New Roman;fontSize=14;" parent="1" vertex="1">
          <mxGeometry x="1720.1" y="3266.5" width="30" height="30" as="geometry" />
        </mxCell>
        <mxCell id="Hje7Pb7ly6nMzVSLejZZ-980" value="&lt;div style=&quot;text-align: justify; font-size: 14px;&quot;&gt;&lt;/div&gt;" style="html=1;dropTarget=0;whiteSpace=wrap;align=left;fontFamily=Times New Roman;fontSize=14;" parent="1" vertex="1">
          <mxGeometry x="1742.5" y="3412.5" width="280" height="177.5" as="geometry" />
        </mxCell>
        <mxCell id="Hje7Pb7ly6nMzVSLejZZ-981" value="" style="shape=module;jettyWidth=8;jettyHeight=4;fontFamily=Times New Roman;fontSize=14;" parent="Hje7Pb7ly6nMzVSLejZZ-980" vertex="1">
          <mxGeometry x="1" width="20" height="20" relative="1" as="geometry">
            <mxPoint x="-27" y="7" as="offset" />
          </mxGeometry>
        </mxCell>
        <mxCell id="Hje7Pb7ly6nMzVSLejZZ-982" value="" style="html=1;rounded=0;fontFamily=Times New Roman;fontSize=14;" parent="1" vertex="1">
          <mxGeometry x="2009" y="3455" width="30" height="30" as="geometry" />
        </mxCell>
        <mxCell id="Hje7Pb7ly6nMzVSLejZZ-983" value="" style="endArrow=none;html=1;rounded=0;align=center;verticalAlign=top;endFill=0;labelBackgroundColor=none;endSize=2;fontFamily=Times New Roman;fontSize=14;" parent="1" source="Hje7Pb7ly6nMzVSLejZZ-1122" edge="1">
          <mxGeometry relative="1" as="geometry">
            <mxPoint x="2061.000000000076" y="3470" as="targetPoint" />
          </mxGeometry>
        </mxCell>
        <mxCell id="Hje7Pb7ly6nMzVSLejZZ-984" value="&lt;b style=&quot;border-color: var(--border-color); color: rgb(0, 0, 0); font-size: 14px; font-style: normal; font-variant-ligatures: normal; font-variant-caps: normal; letter-spacing: normal; orphans: 2; text-align: left; text-indent: 0px; text-transform: none; widows: 2; word-spacing: 0px; -webkit-text-stroke-width: 0px; background-color: rgb(251, 251, 251); text-decoration-thickness: initial; text-decoration-style: initial; text-decoration-color: initial;&quot;&gt;&lt;span style=&quot;border-color: var(--border-color); color: rgb(0, 0, 0); font-size: 14px; font-style: normal; font-variant-ligatures: normal; font-variant-caps: normal; letter-spacing: normal; orphans: 2; text-align: center; text-indent: 0px; text-transform: none; widows: 2; word-spacing: 0px; -webkit-text-stroke-width: 0px; background-color: rgb(251, 251, 251); text-decoration-thickness: initial; text-decoration-style: initial; text-decoration-color: initial; display: inline !important;&quot;&gt;&amp;lt;&amp;lt;component&amp;gt;&amp;gt;&lt;/span&gt;&lt;/b&gt;" style="text;whiteSpace=wrap;html=1;fontFamily=Times New Roman;fontSize=14;" parent="1" vertex="1">
          <mxGeometry x="1837" y="3452.5" width="95" height="20" as="geometry" />
        </mxCell>
        <mxCell id="Hje7Pb7ly6nMzVSLejZZ-985" value="" style="html=1;rounded=0;fontFamily=Times New Roman;fontSize=14;" parent="1" vertex="1">
          <mxGeometry x="2009" y="3505" width="30" height="30" as="geometry" />
        </mxCell>
        <mxCell id="Hje7Pb7ly6nMzVSLejZZ-986" value="" style="endArrow=none;html=1;rounded=0;align=center;verticalAlign=top;endFill=0;labelBackgroundColor=none;endSize=2;fontFamily=Times New Roman;fontSize=14;" parent="1" source="Hje7Pb7ly6nMzVSLejZZ-1126" edge="1">
          <mxGeometry relative="1" as="geometry">
            <mxPoint x="2061.000000000076" y="3520" as="targetPoint" />
          </mxGeometry>
        </mxCell>
        <mxCell id="Hje7Pb7ly6nMzVSLejZZ-987" value="" style="html=1;rounded=0;direction=south;fontFamily=Times New Roman;fontSize=14;" parent="1" vertex="1">
          <mxGeometry x="1725" y="3435.55" width="30" height="30" as="geometry" />
        </mxCell>
        <mxCell id="Hje7Pb7ly6nMzVSLejZZ-988" value="" style="endArrow=none;html=1;rounded=0;align=center;verticalAlign=top;endFill=0;labelBackgroundColor=none;endSize=2;fontFamily=Times New Roman;fontSize=14;" parent="1" edge="1">
          <mxGeometry relative="1" as="geometry">
            <mxPoint x="1712.9112096562012" y="3451.3881163549004" as="sourcePoint" />
            <mxPoint x="1712.5" y="3451.466666666667" as="targetPoint" />
          </mxGeometry>
        </mxCell>
        <mxCell id="Hje7Pb7ly6nMzVSLejZZ-989" value="&lt;b style=&quot;border-color: var(--border-color); color: rgb(0, 0, 0); font-size: 14px; font-style: normal; font-variant-ligatures: normal; font-variant-caps: normal; letter-spacing: normal; orphans: 2; text-align: left; text-indent: 0px; text-transform: none; widows: 2; word-spacing: 0px; -webkit-text-stroke-width: 0px; background-color: rgb(251, 251, 251); text-decoration-thickness: initial; text-decoration-style: initial; text-decoration-color: initial;&quot;&gt;&lt;span style=&quot;border-color: var(--border-color); color: rgb(0, 0, 0); font-size: 14px; font-style: normal; font-variant-ligatures: normal; font-variant-caps: normal; letter-spacing: normal; orphans: 2; text-align: center; text-indent: 0px; text-transform: none; widows: 2; word-spacing: 0px; -webkit-text-stroke-width: 0px; background-color: rgb(251, 251, 251); text-decoration-thickness: initial; text-decoration-style: initial; text-decoration-color: initial; display: inline !important;&quot;&gt;&amp;lt;&amp;lt;service&amp;gt;&amp;gt;&lt;/span&gt;&lt;/b&gt;" style="text;whiteSpace=wrap;html=1;fontFamily=Times New Roman;fontSize=14;" parent="1" vertex="1">
          <mxGeometry x="1840.5" y="3473.5" width="95" height="20" as="geometry" />
        </mxCell>
        <mxCell id="Hje7Pb7ly6nMzVSLejZZ-990" value="&lt;b style=&quot;border-color: var(--border-color); font-size: 14px;&quot;&gt;LabInstrument&lt;/b&gt;&lt;b style=&quot;font-size: 14px;&quot;&gt;System&lt;/b&gt;" style="text;whiteSpace=wrap;html=1;fontFamily=Times New Roman;fontSize=14;" parent="1" vertex="1">
          <mxGeometry x="1816.5" y="3493.5" width="175" height="31" as="geometry" />
        </mxCell>
        <mxCell id="Hje7Pb7ly6nMzVSLejZZ-991" value="" style="html=1;rounded=0;direction=south;fontFamily=Times New Roman;fontSize=14;" parent="1" vertex="1">
          <mxGeometry x="1725" y="3484.55" width="30" height="30" as="geometry" />
        </mxCell>
        <mxCell id="Hje7Pb7ly6nMzVSLejZZ-992" value="" style="endArrow=none;html=1;rounded=0;align=center;verticalAlign=top;endFill=0;labelBackgroundColor=none;endSize=2;fontFamily=Times New Roman;fontSize=14;" parent="1" source="Hje7Pb7ly6nMzVSLejZZ-991" target="Hje7Pb7ly6nMzVSLejZZ-993" edge="1">
          <mxGeometry relative="1" as="geometry" />
        </mxCell>
        <mxCell id="Hje7Pb7ly6nMzVSLejZZ-993" value="" style="shape=requiredInterface;html=1;fontSize=14;align=center;fillColor=none;points=[];aspect=fixed;resizable=0;verticalAlign=bottom;labelPosition=center;verticalLabelPosition=top;flipH=1;direction=west;fontFamily=Times New Roman;" parent="1" vertex="1">
          <mxGeometry x="1707.5" y="3495.55" width="5" height="10" as="geometry" />
        </mxCell>
        <mxCell id="Hje7Pb7ly6nMzVSLejZZ-994" value="&lt;div style=&quot;text-align: justify; font-size: 14px;&quot;&gt;&lt;/div&gt;" style="html=1;dropTarget=0;whiteSpace=wrap;align=left;fontFamily=Times New Roman;fontSize=14;" parent="1" vertex="1">
          <mxGeometry x="1742.5" y="3632.5" width="280" height="227.5" as="geometry" />
        </mxCell>
        <mxCell id="Hje7Pb7ly6nMzVSLejZZ-995" value="" style="shape=module;jettyWidth=8;jettyHeight=4;fontFamily=Times New Roman;fontSize=14;" parent="Hje7Pb7ly6nMzVSLejZZ-994" vertex="1">
          <mxGeometry x="1" width="20" height="20" relative="1" as="geometry">
            <mxPoint x="-27" y="7" as="offset" />
          </mxGeometry>
        </mxCell>
        <mxCell id="Hje7Pb7ly6nMzVSLejZZ-996" value="" style="html=1;rounded=0;fontFamily=Times New Roman;fontSize=14;" parent="1" vertex="1">
          <mxGeometry x="2011" y="3678" width="30" height="30" as="geometry" />
        </mxCell>
        <mxCell id="Hje7Pb7ly6nMzVSLejZZ-997" value="" style="endArrow=none;html=1;rounded=0;align=center;verticalAlign=top;endFill=0;labelBackgroundColor=none;endSize=2;fontFamily=Times New Roman;fontSize=14;" parent="1" source="Hje7Pb7ly6nMzVSLejZZ-996" edge="1">
          <mxGeometry relative="1" as="geometry">
            <mxPoint x="2063.000000000076" y="3693" as="targetPoint" />
          </mxGeometry>
        </mxCell>
        <mxCell id="Hje7Pb7ly6nMzVSLejZZ-998" value="&lt;b style=&quot;border-color: var(--border-color); color: rgb(0, 0, 0); font-size: 14px; font-style: normal; font-variant-ligatures: normal; font-variant-caps: normal; letter-spacing: normal; orphans: 2; text-align: left; text-indent: 0px; text-transform: none; widows: 2; word-spacing: 0px; -webkit-text-stroke-width: 0px; background-color: rgb(251, 251, 251); text-decoration-thickness: initial; text-decoration-style: initial; text-decoration-color: initial;&quot;&gt;&lt;span style=&quot;border-color: var(--border-color); color: rgb(0, 0, 0); font-size: 14px; font-style: normal; font-variant-ligatures: normal; font-variant-caps: normal; letter-spacing: normal; orphans: 2; text-align: center; text-indent: 0px; text-transform: none; widows: 2; word-spacing: 0px; -webkit-text-stroke-width: 0px; background-color: rgb(251, 251, 251); text-decoration-thickness: initial; text-decoration-style: initial; text-decoration-color: initial; display: inline !important;&quot;&gt;&amp;lt;&amp;lt;component&amp;gt;&amp;gt;&lt;/span&gt;&lt;/b&gt;" style="text;whiteSpace=wrap;html=1;fontFamily=Times New Roman;fontSize=14;" parent="1" vertex="1">
          <mxGeometry x="1835" y="3668.5" width="95" height="20" as="geometry" />
        </mxCell>
        <mxCell id="Hje7Pb7ly6nMzVSLejZZ-999" value="" style="html=1;rounded=0;fontFamily=Times New Roman;fontSize=14;" parent="1" vertex="1">
          <mxGeometry x="2011" y="3767.5" width="30" height="30" as="geometry" />
        </mxCell>
        <mxCell id="Hje7Pb7ly6nMzVSLejZZ-1000" value="" style="endArrow=none;html=1;rounded=0;align=center;verticalAlign=top;endFill=0;labelBackgroundColor=none;endSize=2;entryX=0;entryY=0.5;entryDx=0;entryDy=0;entryPerimeter=0;fontFamily=Times New Roman;fontSize=14;" parent="1" source="Hje7Pb7ly6nMzVSLejZZ-999" target="Hje7Pb7ly6nMzVSLejZZ-1133" edge="1">
          <mxGeometry relative="1" as="geometry">
            <mxPoint x="2063.000000000076" y="3743" as="targetPoint" />
          </mxGeometry>
        </mxCell>
        <mxCell id="Hje7Pb7ly6nMzVSLejZZ-1001" value="" style="html=1;rounded=0;direction=south;fontFamily=Times New Roman;fontSize=14;" parent="1" vertex="1">
          <mxGeometry x="1726" y="3655" width="30" height="30" as="geometry" />
        </mxCell>
        <mxCell id="Hje7Pb7ly6nMzVSLejZZ-1002" value="" style="endArrow=none;html=1;rounded=0;align=center;verticalAlign=top;endFill=0;labelBackgroundColor=none;endSize=2;fontFamily=Times New Roman;fontSize=14;" parent="1" source="Hje7Pb7ly6nMzVSLejZZ-1220" edge="1">
          <mxGeometry relative="1" as="geometry">
            <mxPoint x="1713.5" y="3670.916666666667" as="targetPoint" />
          </mxGeometry>
        </mxCell>
        <mxCell id="Hje7Pb7ly6nMzVSLejZZ-1003" value="&lt;b style=&quot;border-color: var(--border-color); color: rgb(0, 0, 0); font-size: 14px; font-style: normal; font-variant-ligatures: normal; font-variant-caps: normal; letter-spacing: normal; orphans: 2; text-align: left; text-indent: 0px; text-transform: none; widows: 2; word-spacing: 0px; -webkit-text-stroke-width: 0px; background-color: rgb(251, 251, 251); text-decoration-thickness: initial; text-decoration-style: initial; text-decoration-color: initial;&quot;&gt;&lt;span style=&quot;border-color: var(--border-color); color: rgb(0, 0, 0); font-size: 14px; font-style: normal; font-variant-ligatures: normal; font-variant-caps: normal; letter-spacing: normal; orphans: 2; text-align: center; text-indent: 0px; text-transform: none; widows: 2; word-spacing: 0px; -webkit-text-stroke-width: 0px; background-color: rgb(251, 251, 251); text-decoration-thickness: initial; text-decoration-style: initial; text-decoration-color: initial; display: inline !important;&quot;&gt;&amp;lt;&amp;lt;service&amp;gt;&amp;gt;&lt;/span&gt;&lt;/b&gt;" style="text;whiteSpace=wrap;html=1;fontFamily=Times New Roman;fontSize=14;" parent="1" vertex="1">
          <mxGeometry x="1840.5" y="3688.5" width="95" height="20" as="geometry" />
        </mxCell>
        <mxCell id="Hje7Pb7ly6nMzVSLejZZ-1004" value="&lt;b style=&quot;font-size: 14px;&quot;&gt;LabRequestSystem&lt;/b&gt;" style="text;whiteSpace=wrap;html=1;fontFamily=Times New Roman;fontSize=14;" parent="1" vertex="1">
          <mxGeometry x="1824" y="3714" width="88" height="31" as="geometry" />
        </mxCell>
        <mxCell id="Hje7Pb7ly6nMzVSLejZZ-1005" value="" style="html=1;rounded=0;direction=south;fontFamily=Times New Roman;fontSize=14;" parent="1" vertex="1">
          <mxGeometry x="1726" y="3704" width="30" height="30" as="geometry" />
        </mxCell>
        <mxCell id="Hje7Pb7ly6nMzVSLejZZ-1006" value="" style="endArrow=none;html=1;rounded=0;align=center;verticalAlign=top;endFill=0;labelBackgroundColor=none;endSize=2;fontFamily=Times New Roman;fontSize=14;" parent="1" source="Hje7Pb7ly6nMzVSLejZZ-1005" target="Hje7Pb7ly6nMzVSLejZZ-1007" edge="1">
          <mxGeometry relative="1" as="geometry" />
        </mxCell>
        <mxCell id="Hje7Pb7ly6nMzVSLejZZ-1007" value="" style="shape=requiredInterface;html=1;fontSize=14;align=center;fillColor=none;points=[];aspect=fixed;resizable=0;verticalAlign=bottom;labelPosition=center;verticalLabelPosition=top;flipH=1;direction=west;fontFamily=Times New Roman;" parent="1" vertex="1">
          <mxGeometry x="1708.5" y="3715" width="5" height="10" as="geometry" />
        </mxCell>
        <mxCell id="Hje7Pb7ly6nMzVSLejZZ-1008" value="" style="rounded=0;whiteSpace=wrap;html=1;fontFamily=Times New Roman;fontSize=14;" parent="1" vertex="1">
          <mxGeometry x="850" y="2584" width="20" height="151" as="geometry" />
        </mxCell>
        <mxCell id="Hje7Pb7ly6nMzVSLejZZ-1009" value="" style="endArrow=none;html=1;rounded=0;entryX=-0.176;entryY=0.415;entryDx=0;entryDy=0;entryPerimeter=0;fontFamily=Times New Roman;fontSize=14;" parent="1" target="Hje7Pb7ly6nMzVSLejZZ-1008" edge="1">
          <mxGeometry width="50" height="50" relative="1" as="geometry">
            <mxPoint x="673" y="2648.5" as="sourcePoint" />
            <mxPoint x="1020" y="2823.5" as="targetPoint" />
          </mxGeometry>
        </mxCell>
        <mxCell id="Hje7Pb7ly6nMzVSLejZZ-1010" value="" style="endArrow=none;html=1;rounded=0;entryX=0;entryY=0.75;entryDx=0;entryDy=0;exitX=0.061;exitY=0.742;exitDx=0;exitDy=0;exitPerimeter=0;fontFamily=Times New Roman;fontSize=14;" parent="1" source="Hje7Pb7ly6nMzVSLejZZ-1204" target="Hje7Pb7ly6nMzVSLejZZ-1008" edge="1">
          <mxGeometry width="50" height="50" relative="1" as="geometry">
            <mxPoint x="679.5" y="2698.4643874643875" as="sourcePoint" />
            <mxPoint x="990" y="2803.5" as="targetPoint" />
          </mxGeometry>
        </mxCell>
        <mxCell id="Hje7Pb7ly6nMzVSLejZZ-1011" value="login" style="text;html=1;strokeColor=none;fillColor=none;align=center;verticalAlign=middle;whiteSpace=wrap;rounded=0;fontFamily=Times New Roman;fontSize=14;" parent="1" vertex="1">
          <mxGeometry x="680" y="2625" width="43" height="17" as="geometry" />
        </mxCell>
        <mxCell id="Hje7Pb7ly6nMzVSLejZZ-1012" value="logout" style="text;html=1;strokeColor=none;fillColor=none;align=center;verticalAlign=middle;whiteSpace=wrap;rounded=0;fontFamily=Times New Roman;fontSize=14;" parent="1" vertex="1">
          <mxGeometry x="687" y="2676" width="29" height="18.5" as="geometry" />
        </mxCell>
        <mxCell id="Hje7Pb7ly6nMzVSLejZZ-1016" value="" style="rounded=0;whiteSpace=wrap;html=1;fontFamily=Times New Roman;fontSize=14;" parent="1" vertex="1">
          <mxGeometry x="850" y="2821" width="20" height="110" as="geometry" />
        </mxCell>
        <mxCell id="Hje7Pb7ly6nMzVSLejZZ-1017" value="" style="endArrow=none;html=1;rounded=0;exitX=0.165;exitY=0.713;exitDx=0;exitDy=0;exitPerimeter=0;entryX=0.014;entryY=0.145;entryDx=0;entryDy=0;entryPerimeter=0;fontFamily=Times New Roman;fontSize=14;" parent="1" source="Hje7Pb7ly6nMzVSLejZZ-875" target="Hje7Pb7ly6nMzVSLejZZ-1016" edge="1">
          <mxGeometry width="50" height="50" relative="1" as="geometry">
            <mxPoint x="950" y="3021" as="sourcePoint" />
            <mxPoint x="1000" y="2971" as="targetPoint" />
          </mxGeometry>
        </mxCell>
        <mxCell id="Hje7Pb7ly6nMzVSLejZZ-1018" value="" style="endArrow=none;html=1;rounded=0;exitX=-0.129;exitY=0.64;exitDx=0;exitDy=0;exitPerimeter=0;entryX=0.014;entryY=0.604;entryDx=0;entryDy=0;entryPerimeter=0;fontFamily=Times New Roman;fontSize=14;" parent="1" source="Hje7Pb7ly6nMzVSLejZZ-879" target="Hje7Pb7ly6nMzVSLejZZ-1016" edge="1">
          <mxGeometry width="50" height="50" relative="1" as="geometry">
            <mxPoint x="950" y="2961" as="sourcePoint" />
            <mxPoint x="1000" y="2911" as="targetPoint" />
          </mxGeometry>
        </mxCell>
        <mxCell id="Hje7Pb7ly6nMzVSLejZZ-1020" value="processRequest" style="text;whiteSpace=wrap;html=1;fontFamily=Times New Roman;fontSize=14;" parent="1" vertex="1">
          <mxGeometry x="673" y="2807" width="70" height="24" as="geometry" />
        </mxCell>
        <mxCell id="Hje7Pb7ly6nMzVSLejZZ-1021" value="verifyRequest" style="text;whiteSpace=wrap;html=1;fontFamily=Times New Roman;fontSize=14;" parent="1" vertex="1">
          <mxGeometry x="668" y="2857" width="80" height="24" as="geometry" />
        </mxCell>
        <mxCell id="Hje7Pb7ly6nMzVSLejZZ-1024" value="createTest" style="text;whiteSpace=wrap;html=1;fontFamily=Times New Roman;fontSize=14;" parent="1" vertex="1">
          <mxGeometry x="694" y="3109.5" width="90" height="17" as="geometry" />
        </mxCell>
        <mxCell id="Hje7Pb7ly6nMzVSLejZZ-1025" value="" style="endArrow=none;html=1;rounded=0;exitX=-0.092;exitY=0.654;exitDx=0;exitDy=0;exitPerimeter=0;entryX=-0.118;entryY=0.309;entryDx=0;entryDy=0;entryPerimeter=0;fontFamily=Times New Roman;fontSize=14;" parent="1" source="Hje7Pb7ly6nMzVSLejZZ-889" target="Hje7Pb7ly6nMzVSLejZZ-1023" edge="1">
          <mxGeometry width="50" height="50" relative="1" as="geometry">
            <mxPoint x="990" y="3133.5" as="sourcePoint" />
            <mxPoint x="1040" y="3083.5" as="targetPoint" />
          </mxGeometry>
        </mxCell>
        <mxCell id="Hje7Pb7ly6nMzVSLejZZ-1026" value="" style="endArrow=none;html=1;rounded=0;entryX=0.059;entryY=0.585;entryDx=0;entryDy=0;entryPerimeter=0;exitX=0.62;exitY=0.5;exitDx=0;exitDy=0;exitPerimeter=0;fontFamily=Times New Roman;fontSize=14;" parent="1" target="Hje7Pb7ly6nMzVSLejZZ-1023" edge="1">
          <mxGeometry width="50" height="50" relative="1" as="geometry">
            <mxPoint x="673.8" y="3182.5" as="sourcePoint" />
            <mxPoint x="1030" y="3163.5" as="targetPoint" />
          </mxGeometry>
        </mxCell>
        <mxCell id="Hje7Pb7ly6nMzVSLejZZ-1027" value="recordResult" style="text;whiteSpace=wrap;html=1;fontFamily=Times New Roman;fontSize=14;" parent="1" vertex="1">
          <mxGeometry x="690" y="3159.5" width="70" height="13" as="geometry" />
        </mxCell>
        <mxCell id="Hje7Pb7ly6nMzVSLejZZ-1029" value="" style="endArrow=none;html=1;rounded=0;entryX=-0.025;entryY=0.402;entryDx=0;entryDy=0;exitX=0.215;exitY=0.586;exitDx=0;exitDy=0;exitPerimeter=0;entryPerimeter=0;fontFamily=Times New Roman;fontSize=14;" parent="1" source="Hje7Pb7ly6nMzVSLejZZ-1208" target="Hje7Pb7ly6nMzVSLejZZ-1028" edge="1">
          <mxGeometry width="50" height="50" relative="1" as="geometry">
            <mxPoint x="679" y="3398.5" as="sourcePoint" />
            <mxPoint x="940" y="3473.5" as="targetPoint" />
          </mxGeometry>
        </mxCell>
        <mxCell id="Hje7Pb7ly6nMzVSLejZZ-1030" value="" style="endArrow=none;html=1;rounded=0;exitX=0.186;exitY=0.86;exitDx=0;exitDy=0;exitPerimeter=0;entryX=-0.065;entryY=0.695;entryDx=0;entryDy=0;entryPerimeter=0;fontFamily=Times New Roman;fontSize=14;" parent="1" source="Hje7Pb7ly6nMzVSLejZZ-916" target="Hje7Pb7ly6nMzVSLejZZ-1028" edge="1">
          <mxGeometry width="50" height="50" relative="1" as="geometry">
            <mxPoint x="940" y="3513.5" as="sourcePoint" />
            <mxPoint x="990" y="3463.5" as="targetPoint" />
          </mxGeometry>
        </mxCell>
        <mxCell id="Hje7Pb7ly6nMzVSLejZZ-1031" value="listInstrument" style="text;whiteSpace=wrap;html=1;fontFamily=Times New Roman;fontSize=14;" parent="1" vertex="1">
          <mxGeometry x="685" y="3371.85" width="87.75" height="28.3" as="geometry" />
        </mxCell>
        <mxCell id="Hje7Pb7ly6nMzVSLejZZ-1032" value="maintain" style="text;whiteSpace=wrap;html=1;fontFamily=Times New Roman;fontSize=14;" parent="1" vertex="1">
          <mxGeometry x="690" y="3429.5" width="110" height="23" as="geometry" />
        </mxCell>
        <mxCell id="Hje7Pb7ly6nMzVSLejZZ-1034" value="" style="endArrow=none;html=1;rounded=0;entryX=0.059;entryY=0.149;entryDx=0;entryDy=0;entryPerimeter=0;exitX=-0.037;exitY=0.551;exitDx=0;exitDy=0;exitPerimeter=0;fontFamily=Times New Roman;fontSize=14;" parent="1" source="Hje7Pb7ly6nMzVSLejZZ-1209" target="Hje7Pb7ly6nMzVSLejZZ-1033" edge="1">
          <mxGeometry width="50" height="50" relative="1" as="geometry">
            <mxPoint x="678.5" y="3662.995537706381" as="sourcePoint" />
            <mxPoint x="980" y="3718.5" as="targetPoint" />
          </mxGeometry>
        </mxCell>
        <mxCell id="Hje7Pb7ly6nMzVSLejZZ-1035" value="" style="endArrow=none;html=1;rounded=0;exitX=0.013;exitY=0.626;exitDx=0;exitDy=0;exitPerimeter=0;entryX=-0.055;entryY=0.425;entryDx=0;entryDy=0;entryPerimeter=0;fontFamily=Times New Roman;fontSize=14;" parent="1" source="Hje7Pb7ly6nMzVSLejZZ-929" target="Hje7Pb7ly6nMzVSLejZZ-1033" edge="1">
          <mxGeometry width="50" height="50" relative="1" as="geometry">
            <mxPoint x="970" y="3758.5" as="sourcePoint" />
            <mxPoint x="840" y="3715.5" as="targetPoint" />
          </mxGeometry>
        </mxCell>
        <mxCell id="Hje7Pb7ly6nMzVSLejZZ-1036" value="getRequestDetails" style="text;whiteSpace=wrap;html=1;fontFamily=Times New Roman;fontSize=14;" parent="1" vertex="1">
          <mxGeometry x="693" y="3640.5" width="50" height="16" as="geometry" />
        </mxCell>
        <mxCell id="Hje7Pb7ly6nMzVSLejZZ-1037" value="cancelRequest" style="text;whiteSpace=wrap;html=1;fontFamily=Times New Roman;fontSize=14;" parent="1" vertex="1">
          <mxGeometry x="680" y="3693.5" width="100" height="15" as="geometry" />
        </mxCell>
        <mxCell id="Hje7Pb7ly6nMzVSLejZZ-1039" value="" style="rounded=0;whiteSpace=wrap;html=1;fontFamily=Times New Roman;fontSize=14;" parent="1" vertex="1">
          <mxGeometry x="1622" y="2573" width="20" height="170" as="geometry" />
        </mxCell>
        <mxCell id="Hje7Pb7ly6nMzVSLejZZ-1040" value="" style="endArrow=none;html=1;rounded=0;entryX=0.529;entryY=0.194;entryDx=0;entryDy=0;entryPerimeter=0;exitX=1.1;exitY=0.416;exitDx=0;exitDy=0;exitPerimeter=0;fontFamily=Times New Roman;fontSize=14;" parent="1" source="Hje7Pb7ly6nMzVSLejZZ-1039" target="Hje7Pb7ly6nMzVSLejZZ-947" edge="1">
          <mxGeometry width="50" height="50" relative="1" as="geometry">
            <mxPoint x="1484" y="2763" as="sourcePoint" />
            <mxPoint x="1534" y="2713" as="targetPoint" />
          </mxGeometry>
        </mxCell>
        <mxCell id="Hje7Pb7ly6nMzVSLejZZ-1041" value="" style="endArrow=none;html=1;rounded=0;exitX=-0.298;exitY=1.08;exitDx=0;exitDy=0;exitPerimeter=0;entryX=0.633;entryY=0.395;entryDx=0;entryDy=0;entryPerimeter=0;fontFamily=Times New Roman;fontSize=14;" parent="1" source="Hje7Pb7ly6nMzVSLejZZ-1043" target="Hje7Pb7ly6nMzVSLejZZ-1214" edge="1">
          <mxGeometry width="50" height="50" relative="1" as="geometry">
            <mxPoint x="1544" y="2853" as="sourcePoint" />
            <mxPoint x="1716" y="2689" as="targetPoint" />
          </mxGeometry>
        </mxCell>
        <mxCell id="Hje7Pb7ly6nMzVSLejZZ-1042" value="login" style="text;html=1;strokeColor=none;fillColor=none;align=center;verticalAlign=middle;whiteSpace=wrap;rounded=0;fontFamily=Times New Roman;fontSize=14;" parent="1" vertex="1">
          <mxGeometry x="1654" y="2622" width="50" height="20" as="geometry" />
        </mxCell>
        <mxCell id="Hje7Pb7ly6nMzVSLejZZ-1043" value="logout" style="text;html=1;strokeColor=none;fillColor=none;align=center;verticalAlign=middle;whiteSpace=wrap;rounded=0;fontFamily=Times New Roman;fontSize=14;" parent="1" vertex="1">
          <mxGeometry x="1654" y="2663" width="37.5" height="30" as="geometry" />
        </mxCell>
        <mxCell id="Hje7Pb7ly6nMzVSLejZZ-1048" value="" style="endArrow=none;html=1;rounded=0;fontFamily=Times New Roman;fontSize=14;" parent="1" edge="1">
          <mxGeometry width="50" height="50" relative="1" as="geometry">
            <mxPoint x="1640" y="2970" as="sourcePoint" />
            <mxPoint x="1710" y="2970" as="targetPoint" />
          </mxGeometry>
        </mxCell>
        <mxCell id="Hje7Pb7ly6nMzVSLejZZ-1049" value="" style="endArrow=none;html=1;rounded=0;fontFamily=Times New Roman;fontSize=14;" parent="1" edge="1">
          <mxGeometry width="50" height="50" relative="1" as="geometry">
            <mxPoint x="1630" y="3020" as="sourcePoint" />
            <mxPoint x="1710" y="3020" as="targetPoint" />
          </mxGeometry>
        </mxCell>
        <mxCell id="Hje7Pb7ly6nMzVSLejZZ-1051" value="processRequest" style="text;whiteSpace=wrap;html=1;fontFamily=Times New Roman;fontSize=14;" parent="1" vertex="1">
          <mxGeometry x="1649" y="2927" width="70" height="28" as="geometry" />
        </mxCell>
        <mxCell id="Hje7Pb7ly6nMzVSLejZZ-1052" value="verifyRequest" style="text;whiteSpace=wrap;html=1;fontFamily=Times New Roman;fontSize=14;" parent="1" vertex="1">
          <mxGeometry x="1641.5" y="2985" width="80" height="28" as="geometry" />
        </mxCell>
        <mxCell id="Hje7Pb7ly6nMzVSLejZZ-1055" value="" style="endArrow=none;html=1;rounded=0;entryX=0.471;entryY=0.444;entryDx=0;entryDy=0;entryPerimeter=0;exitX=1.09;exitY=0.394;exitDx=0;exitDy=0;exitPerimeter=0;fontFamily=Times New Roman;fontSize=14;" parent="1" target="Hje7Pb7ly6nMzVSLejZZ-976" edge="1">
          <mxGeometry width="50" height="50" relative="1" as="geometry">
            <mxPoint x="1642.4" y="3231.98" as="sourcePoint" />
            <mxPoint x="1572.6" y="3245" as="targetPoint" />
          </mxGeometry>
        </mxCell>
        <mxCell id="Hje7Pb7ly6nMzVSLejZZ-1056" value="" style="endArrow=none;html=1;rounded=0;exitX=1.09;exitY=0.698;exitDx=0;exitDy=0;exitPerimeter=0;entryX=0.957;entryY=0.452;entryDx=0;entryDy=0;entryPerimeter=0;fontFamily=Times New Roman;fontSize=14;" parent="1" target="Hje7Pb7ly6nMzVSLejZZ-1216" edge="1">
          <mxGeometry width="50" height="50" relative="1" as="geometry">
            <mxPoint x="1642.4" y="3283.66" as="sourcePoint" />
            <mxPoint x="1701.1000000001723" y="3281.5" as="targetPoint" />
          </mxGeometry>
        </mxCell>
        <mxCell id="Hje7Pb7ly6nMzVSLejZZ-1057" value="createTest" style="text;whiteSpace=wrap;html=1;fontFamily=Times New Roman;fontSize=14;" parent="1" vertex="1">
          <mxGeometry x="1646.1" y="3205.5" width="90" height="22" as="geometry" />
        </mxCell>
        <mxCell id="Hje7Pb7ly6nMzVSLejZZ-1058" value="recordResult" style="text;whiteSpace=wrap;html=1;fontFamily=Times New Roman;fontSize=14;" parent="1" vertex="1">
          <mxGeometry x="1645.1" y="3245" width="55.5" as="geometry" />
        </mxCell>
        <mxCell id="Hje7Pb7ly6nMzVSLejZZ-1059" value="" style="rounded=0;whiteSpace=wrap;html=1;fontFamily=Times New Roman;fontSize=14;" parent="1" vertex="1">
          <mxGeometry x="1622" y="3407" width="20" height="176" as="geometry" />
        </mxCell>
        <mxCell id="Hje7Pb7ly6nMzVSLejZZ-1060" value="" style="endArrow=none;html=1;rounded=0;exitX=1.041;exitY=0.413;exitDx=0;exitDy=0;exitPerimeter=0;entryX=0.776;entryY=0.469;entryDx=0;entryDy=0;entryPerimeter=0;fontFamily=Times New Roman;fontSize=14;" parent="1" target="Hje7Pb7ly6nMzVSLejZZ-1218" edge="1">
          <mxGeometry width="50" height="50" relative="1" as="geometry">
            <mxPoint x="1641.3199999999997" y="3452.7380000000003" as="sourcePoint" />
            <mxPoint x="1704.9999999999982" y="3450.5499999999997" as="targetPoint" />
          </mxGeometry>
        </mxCell>
        <mxCell id="Hje7Pb7ly6nMzVSLejZZ-1061" value="" style="endArrow=none;html=1;rounded=0;entryX=0.647;entryY=0.221;entryDx=0;entryDy=0;entryPerimeter=0;exitX=0.989;exitY=0.688;exitDx=0;exitDy=0;exitPerimeter=0;fontFamily=Times New Roman;fontSize=14;" parent="1" target="Hje7Pb7ly6nMzVSLejZZ-993" edge="1">
          <mxGeometry width="50" height="50" relative="1" as="geometry">
            <mxPoint x="1640.2799999999997" y="3501.138" as="sourcePoint" />
            <mxPoint x="1592.5" y="3576.05" as="targetPoint" />
          </mxGeometry>
        </mxCell>
        <mxCell id="Hje7Pb7ly6nMzVSLejZZ-1062" value="listInstrument" style="text;whiteSpace=wrap;html=1;fontFamily=Times New Roman;fontSize=14;" parent="1" vertex="1">
          <mxGeometry x="1643.5" y="3417.55" width="90" height="20.5" as="geometry" />
        </mxCell>
        <mxCell id="Hje7Pb7ly6nMzVSLejZZ-1063" value="getRequestDetails" style="text;whiteSpace=wrap;html=1;fontFamily=Times New Roman;fontSize=14;" parent="1" vertex="1">
          <mxGeometry x="1644.5" y="3632.5" width="49.5" height="17" as="geometry" />
        </mxCell>
        <mxCell id="Hje7Pb7ly6nMzVSLejZZ-1064" value="" style="rounded=0;whiteSpace=wrap;html=1;fontFamily=Times New Roman;fontSize=14;" parent="1" vertex="1">
          <mxGeometry x="1622" y="3634" width="20" height="196" as="geometry" />
        </mxCell>
        <mxCell id="Hje7Pb7ly6nMzVSLejZZ-1065" value="" style="endArrow=none;html=1;rounded=0;exitX=1.014;exitY=0.449;exitDx=0;exitDy=0;exitPerimeter=0;entryX=0.776;entryY=0.474;entryDx=0;entryDy=0;entryPerimeter=0;fontFamily=Times New Roman;fontSize=14;" parent="1" target="Hje7Pb7ly6nMzVSLejZZ-1220" edge="1">
          <mxGeometry width="50" height="50" relative="1" as="geometry">
            <mxPoint x="1641.7799999999997" y="3673.4010000000003" as="sourcePoint" />
            <mxPoint x="1701.5" y="3668.5" as="targetPoint" />
          </mxGeometry>
        </mxCell>
        <mxCell id="Hje7Pb7ly6nMzVSLejZZ-1066" value="" style="endArrow=none;html=1;rounded=0;entryX=-0.059;entryY=0.338;entryDx=0;entryDy=0;entryPerimeter=0;exitX=1.014;exitY=0.779;exitDx=0;exitDy=0;exitPerimeter=0;fontFamily=Times New Roman;fontSize=14;" parent="1" target="Hje7Pb7ly6nMzVSLejZZ-1007" edge="1">
          <mxGeometry width="50" height="50" relative="1" as="geometry">
            <mxPoint x="1641.7799999999997" y="3722.571" as="sourcePoint" />
            <mxPoint x="1483.5" y="3835.5" as="targetPoint" />
          </mxGeometry>
        </mxCell>
        <mxCell id="Hje7Pb7ly6nMzVSLejZZ-1067" value="cancelRequest" style="text;whiteSpace=wrap;html=1;fontFamily=Times New Roman;fontSize=14;" parent="1" vertex="1">
          <mxGeometry x="1643.5" y="3685" width="100" height="11" as="geometry" />
        </mxCell>
        <mxCell id="Hje7Pb7ly6nMzVSLejZZ-1068" value="&lt;b style=&quot;font-size: 14px;&quot;&gt;«component»&lt;br style=&quot;font-size: 14px;&quot;&gt;«service»&lt;br style=&quot;font-size: 14px;&quot;&gt;data management&lt;/b&gt;" style="html=1;dropTarget=0;whiteSpace=wrap;fontFamily=Times New Roman;fontSize=14;" parent="1" vertex="1">
          <mxGeometry x="2254" y="3073" width="300" height="540" as="geometry" />
        </mxCell>
        <mxCell id="Hje7Pb7ly6nMzVSLejZZ-1069" value="" style="shape=module;jettyWidth=8;jettyHeight=4;fontFamily=Times New Roman;fontSize=14;" parent="Hje7Pb7ly6nMzVSLejZZ-1068" vertex="1">
          <mxGeometry x="1" width="20" height="20" relative="1" as="geometry">
            <mxPoint x="-27" y="7" as="offset" />
          </mxGeometry>
        </mxCell>
        <mxCell id="Hje7Pb7ly6nMzVSLejZZ-1070" value="" style="whiteSpace=wrap;html=1;aspect=fixed;fontFamily=Times New Roman;fontSize=14;" parent="1" vertex="1">
          <mxGeometry x="2294" y="3063" width="30" height="30" as="geometry" />
        </mxCell>
        <mxCell id="Hje7Pb7ly6nMzVSLejZZ-1072" value="" style="whiteSpace=wrap;html=1;aspect=fixed;fontFamily=Times New Roman;fontSize=14;" parent="1" vertex="1">
          <mxGeometry x="2244" y="3263.5" width="30" height="30" as="geometry" />
        </mxCell>
        <mxCell id="Hje7Pb7ly6nMzVSLejZZ-1073" value="" style="whiteSpace=wrap;html=1;aspect=fixed;fontFamily=Times New Roman;fontSize=14;" parent="1" vertex="1">
          <mxGeometry x="2244" y="3319.5" width="30" height="30" as="geometry" />
        </mxCell>
        <mxCell id="Hje7Pb7ly6nMzVSLejZZ-1074" value="" style="whiteSpace=wrap;html=1;aspect=fixed;fontFamily=Times New Roman;fontSize=14;" parent="1" vertex="1">
          <mxGeometry x="2244" y="3453" width="30" height="30" as="geometry" />
        </mxCell>
        <mxCell id="Hje7Pb7ly6nMzVSLejZZ-1076" value="" style="endArrow=none;html=1;rounded=0;align=center;verticalAlign=top;endFill=0;labelBackgroundColor=none;endSize=2;fontFamily=Times New Roman;fontSize=14;" parent="1" edge="1">
          <mxGeometry relative="1" as="geometry">
            <mxPoint x="2071" y="3078.181818181856" as="sourcePoint" />
            <mxPoint x="2069.999999999767" y="3078" as="targetPoint" />
          </mxGeometry>
        </mxCell>
        <mxCell id="Hje7Pb7ly6nMzVSLejZZ-1077" value="" style="ellipse;whiteSpace=wrap;html=1;align=center;aspect=fixed;fillColor=none;strokeColor=none;resizable=0;perimeter=centerPerimeter;rotatable=0;allowArrows=0;points=[];outlineConnect=1;fontFamily=Times New Roman;fontSize=14;" parent="1" vertex="1">
          <mxGeometry x="2104" y="3083" width="10" height="10" as="geometry" />
        </mxCell>
        <mxCell id="Hje7Pb7ly6nMzVSLejZZ-1078" value="" style="ellipse;whiteSpace=wrap;html=1;align=center;aspect=fixed;fillColor=none;strokeColor=none;resizable=0;perimeter=centerPerimeter;rotatable=0;allowArrows=0;points=[];outlineConnect=1;fontFamily=Times New Roman;fontSize=14;" parent="1" vertex="1">
          <mxGeometry x="2104" y="3206" width="10" height="10" as="geometry" />
        </mxCell>
        <mxCell id="Hje7Pb7ly6nMzVSLejZZ-1079" value="" style="ellipse;whiteSpace=wrap;html=1;align=center;aspect=fixed;fillColor=none;strokeColor=none;resizable=0;perimeter=centerPerimeter;rotatable=0;allowArrows=0;points=[];outlineConnect=1;fontFamily=Times New Roman;fontSize=14;" parent="1" vertex="1">
          <mxGeometry x="2104" y="3206" width="10" height="10" as="geometry" />
        </mxCell>
        <mxCell id="Hje7Pb7ly6nMzVSLejZZ-1080" value="" style="ellipse;whiteSpace=wrap;html=1;align=center;aspect=fixed;fillColor=none;strokeColor=none;resizable=0;perimeter=centerPerimeter;rotatable=0;allowArrows=0;points=[];outlineConnect=1;fontFamily=Times New Roman;fontSize=14;" parent="1" vertex="1">
          <mxGeometry x="2104" y="3206" width="10" height="10" as="geometry" />
        </mxCell>
        <mxCell id="Hje7Pb7ly6nMzVSLejZZ-1081" value="" style="ellipse;whiteSpace=wrap;html=1;align=center;aspect=fixed;fillColor=none;strokeColor=none;resizable=0;perimeter=centerPerimeter;rotatable=0;allowArrows=0;points=[];outlineConnect=1;fontFamily=Times New Roman;fontSize=14;" parent="1" vertex="1">
          <mxGeometry x="2104" y="2723" width="10" height="10" as="geometry" />
        </mxCell>
        <mxCell id="Hje7Pb7ly6nMzVSLejZZ-1082" value="" style="ellipse;whiteSpace=wrap;html=1;align=center;aspect=fixed;fillColor=none;strokeColor=none;resizable=0;perimeter=centerPerimeter;rotatable=0;allowArrows=0;points=[];outlineConnect=1;fontFamily=Times New Roman;fontSize=14;" parent="1" vertex="1">
          <mxGeometry x="2104" y="2723" width="10" height="10" as="geometry" />
        </mxCell>
        <mxCell id="Hje7Pb7ly6nMzVSLejZZ-1083" value="" style="ellipse;whiteSpace=wrap;html=1;align=center;aspect=fixed;fillColor=none;strokeColor=none;resizable=0;perimeter=centerPerimeter;rotatable=0;allowArrows=0;points=[];outlineConnect=1;fontFamily=Times New Roman;fontSize=14;" parent="1" vertex="1">
          <mxGeometry x="1162" y="2797" width="10" height="10" as="geometry" />
        </mxCell>
        <mxCell id="Hje7Pb7ly6nMzVSLejZZ-1084" value="" style="whiteSpace=wrap;html=1;aspect=fixed;fontFamily=Times New Roman;fontSize=14;" parent="1" vertex="1">
          <mxGeometry x="2354" y="3062" width="30" height="30" as="geometry" />
        </mxCell>
        <mxCell id="Hje7Pb7ly6nMzVSLejZZ-1085" value="" style="whiteSpace=wrap;html=1;aspect=fixed;fontFamily=Times New Roman;fontSize=14;" parent="1" vertex="1">
          <mxGeometry x="2414" y="3063" width="30" height="30" as="geometry" />
        </mxCell>
        <mxCell id="Hje7Pb7ly6nMzVSLejZZ-1086" value="" style="whiteSpace=wrap;html=1;aspect=fixed;fontFamily=Times New Roman;fontSize=14;" parent="1" vertex="1">
          <mxGeometry x="2474" y="3065" width="30" height="30" as="geometry" />
        </mxCell>
        <mxCell id="Hje7Pb7ly6nMzVSLejZZ-1087" value="" style="endArrow=none;html=1;rounded=0;align=center;verticalAlign=top;endFill=0;labelBackgroundColor=none;endSize=2;fontFamily=Times New Roman;fontSize=14;" parent="1" edge="1">
          <mxGeometry relative="1" as="geometry">
            <mxPoint x="2069" y="2632.2150537634407" as="sourcePoint" />
            <mxPoint x="2069" y="2632.2150537634407" as="targetPoint" />
          </mxGeometry>
        </mxCell>
        <mxCell id="Hje7Pb7ly6nMzVSLejZZ-1088" value="" style="endArrow=none;html=1;rounded=0;align=center;verticalAlign=top;endFill=0;labelBackgroundColor=none;endSize=2;fontFamily=Times New Roman;fontSize=14;" parent="1" source="Hje7Pb7ly6nMzVSLejZZ-1107" edge="1">
          <mxGeometry relative="1" as="geometry">
            <mxPoint x="2048" y="2974" as="sourcePoint" />
            <mxPoint x="2069" y="2975.5698924731187" as="targetPoint" />
          </mxGeometry>
        </mxCell>
        <mxCell id="Hje7Pb7ly6nMzVSLejZZ-1090" value="" style="endArrow=none;html=1;rounded=0;align=center;verticalAlign=top;endFill=0;labelBackgroundColor=none;endSize=2;fontFamily=Times New Roman;fontSize=14;" parent="1" source="Hje7Pb7ly6nMzVSLejZZ-1105" edge="1">
          <mxGeometry relative="1" as="geometry">
            <mxPoint x="2064" y="2632.430107526882" as="sourcePoint" />
            <mxPoint x="2069" y="2632.2150537634407" as="targetPoint" />
          </mxGeometry>
        </mxCell>
        <mxCell id="Hje7Pb7ly6nMzVSLejZZ-1091" value="" style="endArrow=none;html=1;rounded=0;align=center;verticalAlign=top;endFill=0;labelBackgroundColor=none;endSize=2;fontFamily=Times New Roman;fontSize=14;" parent="1" source="Hje7Pb7ly6nMzVSLejZZ-940" edge="1">
          <mxGeometry relative="1" as="geometry">
            <mxPoint x="2048" y="2633" as="sourcePoint" />
            <mxPoint x="2064" y="2632.240963855422" as="targetPoint" />
          </mxGeometry>
        </mxCell>
        <mxCell id="Hje7Pb7ly6nMzVSLejZZ-1092" value="" style="endArrow=none;html=1;rounded=0;entryX=0.5;entryY=0;entryDx=0;entryDy=0;edgeStyle=orthogonalEdgeStyle;exitX=0;exitY=0.5;exitDx=0;exitDy=0;exitPerimeter=0;fontFamily=Times New Roman;fontSize=14;" parent="1" source="Hje7Pb7ly6nMzVSLejZZ-1105" target="Hje7Pb7ly6nMzVSLejZZ-1086" edge="1">
          <mxGeometry width="50" height="50" relative="1" as="geometry">
            <mxPoint x="2124" y="2633" as="sourcePoint" />
            <mxPoint x="2574" y="2723" as="targetPoint" />
            <Array as="points">
              <mxPoint x="2490" y="2631" />
              <mxPoint x="2490" y="2853" />
            </Array>
          </mxGeometry>
        </mxCell>
        <mxCell id="Hje7Pb7ly6nMzVSLejZZ-1093" value="verify&lt;br style=&quot;font-size: 14px;&quot;&gt;account" style="edgeLabel;html=1;align=center;verticalAlign=middle;resizable=0;points=[];fontFamily=Times New Roman;fontSize=14;" parent="Hje7Pb7ly6nMzVSLejZZ-1092" vertex="1" connectable="0">
          <mxGeometry x="0.364" y="1" relative="1" as="geometry">
            <mxPoint as="offset" />
          </mxGeometry>
        </mxCell>
        <mxCell id="Hje7Pb7ly6nMzVSLejZZ-1094" value="" style="endArrow=none;html=1;rounded=0;entryX=0.75;entryY=0;entryDx=0;entryDy=0;edgeStyle=orthogonalEdgeStyle;exitX=0;exitY=0.5;exitDx=0;exitDy=0;exitPerimeter=0;fontFamily=Times New Roman;fontSize=14;" parent="1" source="Hje7Pb7ly6nMzVSLejZZ-1103" target="Hje7Pb7ly6nMzVSLejZZ-1085" edge="1">
          <mxGeometry width="50" height="50" relative="1" as="geometry">
            <mxPoint x="2114" y="2683" as="sourcePoint" />
            <mxPoint x="2294" y="2743" as="targetPoint" />
          </mxGeometry>
        </mxCell>
        <mxCell id="Hje7Pb7ly6nMzVSLejZZ-1095" value="delete session" style="edgeLabel;html=1;align=center;verticalAlign=middle;resizable=0;points=[];fontFamily=Times New Roman;fontSize=14;" parent="Hje7Pb7ly6nMzVSLejZZ-1094" vertex="1" connectable="0">
          <mxGeometry x="0.4064" relative="1" as="geometry">
            <mxPoint as="offset" />
          </mxGeometry>
        </mxCell>
        <mxCell id="Hje7Pb7ly6nMzVSLejZZ-1096" value="" style="endArrow=none;html=1;rounded=0;entryX=0.5;entryY=0;entryDx=0;entryDy=0;edgeStyle=orthogonalEdgeStyle;exitX=1;exitY=0.5;exitDx=0;exitDy=0;exitPerimeter=0;fontFamily=Times New Roman;fontSize=14;" parent="1" source="Hje7Pb7ly6nMzVSLejZZ-1107" target="Hje7Pb7ly6nMzVSLejZZ-1084" edge="1">
          <mxGeometry width="50" height="50" relative="1" as="geometry">
            <mxPoint x="2124" y="2977" as="sourcePoint" />
            <mxPoint x="2274" y="2953" as="targetPoint" />
          </mxGeometry>
        </mxCell>
        <mxCell id="Hje7Pb7ly6nMzVSLejZZ-1097" value="store&amp;nbsp;process request" style="edgeLabel;html=1;align=center;verticalAlign=middle;resizable=0;points=[];fontFamily=Times New Roman;fontSize=14;" parent="Hje7Pb7ly6nMzVSLejZZ-1096" vertex="1" connectable="0">
          <mxGeometry x="0.0913" y="1" relative="1" as="geometry">
            <mxPoint as="offset" />
          </mxGeometry>
        </mxCell>
        <mxCell id="Hje7Pb7ly6nMzVSLejZZ-1098" value="" style="endArrow=none;html=1;rounded=0;entryX=0.5;entryY=0;entryDx=0;entryDy=0;edgeStyle=orthogonalEdgeStyle;exitX=0;exitY=0.5;exitDx=0;exitDy=0;exitPerimeter=0;fontFamily=Times New Roman;fontSize=14;" parent="1" source="Hje7Pb7ly6nMzVSLejZZ-1109" target="Hje7Pb7ly6nMzVSLejZZ-1070" edge="1">
          <mxGeometry width="50" height="50" relative="1" as="geometry">
            <mxPoint x="2124" y="3025" as="sourcePoint" />
            <mxPoint x="2214" y="3013" as="targetPoint" />
            <Array as="points">
              <mxPoint x="2309" y="3024" />
            </Array>
          </mxGeometry>
        </mxCell>
        <mxCell id="Hje7Pb7ly6nMzVSLejZZ-1099" value="check request&amp;nbsp; is legall" style="edgeLabel;html=1;align=center;verticalAlign=middle;resizable=0;points=[];fontFamily=Times New Roman;fontSize=14;" parent="Hje7Pb7ly6nMzVSLejZZ-1098" vertex="1" connectable="0">
          <mxGeometry x="0.0483" y="-1" relative="1" as="geometry">
            <mxPoint as="offset" />
          </mxGeometry>
        </mxCell>
        <mxCell id="Hje7Pb7ly6nMzVSLejZZ-1102" value="" style="endArrow=none;html=1;rounded=0;align=center;verticalAlign=top;endFill=0;labelBackgroundColor=none;endSize=2;fontFamily=Times New Roman;fontSize=14;" parent="1" source="Hje7Pb7ly6nMzVSLejZZ-943" target="Hje7Pb7ly6nMzVSLejZZ-1103" edge="1">
          <mxGeometry relative="1" as="geometry">
            <mxPoint x="2048" y="2683" as="sourcePoint" />
            <mxPoint x="2069.499999999767" y="2683" as="targetPoint" />
          </mxGeometry>
        </mxCell>
        <mxCell id="Hje7Pb7ly6nMzVSLejZZ-1103" value="" style="shape=providedRequiredInterface;html=1;verticalLabelPosition=bottom;sketch=0;direction=west;fontFamily=Times New Roman;fontSize=14;" parent="1" vertex="1">
          <mxGeometry x="2071" y="2674" width="20" height="20" as="geometry" />
        </mxCell>
        <mxCell id="Hje7Pb7ly6nMzVSLejZZ-1104" value="" style="endArrow=none;html=1;rounded=0;align=center;verticalAlign=top;endFill=0;labelBackgroundColor=none;endSize=2;fontFamily=Times New Roman;fontSize=14;" parent="1" target="Hje7Pb7ly6nMzVSLejZZ-1105" edge="1">
          <mxGeometry relative="1" as="geometry">
            <mxPoint x="2064" y="2632.430107526882" as="sourcePoint" />
            <mxPoint x="2069" y="2632.2150537634407" as="targetPoint" />
          </mxGeometry>
        </mxCell>
        <mxCell id="Hje7Pb7ly6nMzVSLejZZ-1105" value="" style="shape=providedRequiredInterface;html=1;verticalLabelPosition=bottom;sketch=0;movable=1;resizable=1;rotatable=1;deletable=1;editable=1;locked=0;connectable=1;rotation=-180;fontFamily=Times New Roman;fontSize=14;" parent="1" vertex="1">
          <mxGeometry x="2069" y="2621" width="20" height="20" as="geometry" />
        </mxCell>
        <mxCell id="Hje7Pb7ly6nMzVSLejZZ-1106" value="" style="endArrow=none;html=1;rounded=0;align=center;verticalAlign=top;endFill=0;labelBackgroundColor=none;endSize=2;fontFamily=Times New Roman;fontSize=14;" parent="1" source="Hje7Pb7ly6nMzVSLejZZ-954" target="Hje7Pb7ly6nMzVSLejZZ-1107" edge="1">
          <mxGeometry relative="1" as="geometry">
            <mxPoint x="2048" y="2975" as="sourcePoint" />
            <mxPoint x="2069" y="2975.5698924731187" as="targetPoint" />
          </mxGeometry>
        </mxCell>
        <mxCell id="Hje7Pb7ly6nMzVSLejZZ-1107" value="" style="shape=providedRequiredInterface;html=1;verticalLabelPosition=bottom;sketch=0;fontFamily=Times New Roman;fontSize=14;" parent="1" vertex="1">
          <mxGeometry x="2069" y="2964" width="20" height="20" as="geometry" />
        </mxCell>
        <mxCell id="Hje7Pb7ly6nMzVSLejZZ-1108" value="" style="endArrow=none;html=1;rounded=0;align=center;verticalAlign=top;endFill=0;labelBackgroundColor=none;endSize=2;fontFamily=Times New Roman;fontSize=14;" parent="1" source="Hje7Pb7ly6nMzVSLejZZ-957" target="Hje7Pb7ly6nMzVSLejZZ-1109" edge="1">
          <mxGeometry relative="1" as="geometry">
            <mxPoint x="2048" y="3024" as="sourcePoint" />
            <mxPoint x="2069.50690250729" y="3023.765111912194" as="targetPoint" />
          </mxGeometry>
        </mxCell>
        <mxCell id="Hje7Pb7ly6nMzVSLejZZ-1109" value="" style="shape=providedRequiredInterface;html=1;verticalLabelPosition=bottom;sketch=0;rotation=-180;fontFamily=Times New Roman;fontSize=14;" parent="1" vertex="1">
          <mxGeometry x="2069" y="3014" width="20" height="20" as="geometry" />
        </mxCell>
        <mxCell id="Hje7Pb7ly6nMzVSLejZZ-1112" value="" style="endArrow=none;html=1;rounded=0;align=center;verticalAlign=top;endFill=0;labelBackgroundColor=none;endSize=2;fontFamily=Times New Roman;fontSize=14;" parent="1" source="Hje7Pb7ly6nMzVSLejZZ-969" target="Hje7Pb7ly6nMzVSLejZZ-1113" edge="1">
          <mxGeometry relative="1" as="geometry">
            <mxPoint x="2034" y="3283" as="sourcePoint" />
            <mxPoint x="2056.000000000076" y="3283" as="targetPoint" />
          </mxGeometry>
        </mxCell>
        <mxCell id="Hje7Pb7ly6nMzVSLejZZ-1113" value="" style="shape=providedRequiredInterface;html=1;verticalLabelPosition=bottom;sketch=0;fontFamily=Times New Roman;fontSize=14;" parent="1" vertex="1">
          <mxGeometry x="2051" y="3272" width="20" height="20" as="geometry" />
        </mxCell>
        <mxCell id="Hje7Pb7ly6nMzVSLejZZ-1114" value="" style="endArrow=none;html=1;rounded=0;exitX=1;exitY=0.5;exitDx=0;exitDy=0;exitPerimeter=0;entryX=0;entryY=0.5;entryDx=0;entryDy=0;fontFamily=Times New Roman;fontSize=14;" parent="1" source="Hje7Pb7ly6nMzVSLejZZ-1113" target="Hje7Pb7ly6nMzVSLejZZ-1072" edge="1">
          <mxGeometry width="50" height="50" relative="1" as="geometry">
            <mxPoint x="2104" y="3318" as="sourcePoint" />
            <mxPoint x="2154" y="3268" as="targetPoint" />
          </mxGeometry>
        </mxCell>
        <mxCell id="Hje7Pb7ly6nMzVSLejZZ-1115" value="store test result" style="edgeLabel;html=1;align=center;verticalAlign=middle;resizable=0;points=[];fontFamily=Times New Roman;fontSize=14;" parent="Hje7Pb7ly6nMzVSLejZZ-1114" vertex="1" connectable="0">
          <mxGeometry x="-0.1681" y="2" relative="1" as="geometry">
            <mxPoint as="offset" />
          </mxGeometry>
        </mxCell>
        <mxCell id="Hje7Pb7ly6nMzVSLejZZ-1116" value="" style="endArrow=none;html=1;rounded=0;align=center;verticalAlign=top;endFill=0;labelBackgroundColor=none;endSize=2;fontFamily=Times New Roman;fontSize=14;" parent="1" source="Hje7Pb7ly6nMzVSLejZZ-972" target="Hje7Pb7ly6nMzVSLejZZ-1117" edge="1">
          <mxGeometry relative="1" as="geometry">
            <mxPoint x="2034" y="3333" as="sourcePoint" />
            <mxPoint x="2056.000000000076" y="3333" as="targetPoint" />
          </mxGeometry>
        </mxCell>
        <mxCell id="Hje7Pb7ly6nMzVSLejZZ-1117" value="" style="shape=providedRequiredInterface;html=1;verticalLabelPosition=bottom;sketch=0;direction=west;fontFamily=Times New Roman;fontSize=14;" parent="1" vertex="1">
          <mxGeometry x="2055" y="3324.5" width="20" height="20" as="geometry" />
        </mxCell>
        <mxCell id="Hje7Pb7ly6nMzVSLejZZ-1118" value="" style="endArrow=none;html=1;rounded=0;exitX=0;exitY=0.5;exitDx=0;exitDy=0;exitPerimeter=0;entryX=0;entryY=0.5;entryDx=0;entryDy=0;fontFamily=Times New Roman;fontSize=14;" parent="1" source="Hje7Pb7ly6nMzVSLejZZ-1117" target="Hje7Pb7ly6nMzVSLejZZ-1073" edge="1">
          <mxGeometry width="50" height="50" relative="1" as="geometry">
            <mxPoint x="2124" y="3388" as="sourcePoint" />
            <mxPoint x="2174" y="3338" as="targetPoint" />
          </mxGeometry>
        </mxCell>
        <mxCell id="Hje7Pb7ly6nMzVSLejZZ-1119" value="delete test" style="edgeLabel;html=1;align=center;verticalAlign=middle;resizable=0;points=[];fontFamily=Times New Roman;fontSize=14;" parent="Hje7Pb7ly6nMzVSLejZZ-1118" vertex="1" connectable="0">
          <mxGeometry x="-0.2872" y="2" relative="1" as="geometry">
            <mxPoint x="17" y="1" as="offset" />
          </mxGeometry>
        </mxCell>
        <mxCell id="Hje7Pb7ly6nMzVSLejZZ-1120" value="" style="whiteSpace=wrap;html=1;aspect=fixed;fontFamily=Times New Roman;fontSize=14;" parent="1" vertex="1">
          <mxGeometry x="2244" y="3505" width="30" height="30" as="geometry" />
        </mxCell>
        <mxCell id="Hje7Pb7ly6nMzVSLejZZ-1121" value="" style="endArrow=none;html=1;rounded=0;align=center;verticalAlign=top;endFill=0;labelBackgroundColor=none;endSize=2;fontFamily=Times New Roman;fontSize=14;" parent="1" source="Hje7Pb7ly6nMzVSLejZZ-982" target="Hje7Pb7ly6nMzVSLejZZ-1122" edge="1">
          <mxGeometry relative="1" as="geometry">
            <mxPoint x="2039" y="3470" as="sourcePoint" />
            <mxPoint x="2061.000000000076" y="3470" as="targetPoint" />
          </mxGeometry>
        </mxCell>
        <mxCell id="Hje7Pb7ly6nMzVSLejZZ-1122" value="" style="shape=providedRequiredInterface;html=1;verticalLabelPosition=bottom;sketch=0;direction=west;fontFamily=Times New Roman;fontSize=14;" parent="1" vertex="1">
          <mxGeometry x="2063" y="3460" width="20" height="20" as="geometry" />
        </mxCell>
        <mxCell id="Hje7Pb7ly6nMzVSLejZZ-1123" value="" style="endArrow=none;html=1;rounded=0;exitX=0;exitY=0.5;exitDx=0;exitDy=0;exitPerimeter=0;entryX=0;entryY=0.5;entryDx=0;entryDy=0;fontFamily=Times New Roman;fontSize=14;" parent="1" source="Hje7Pb7ly6nMzVSLejZZ-1122" target="Hje7Pb7ly6nMzVSLejZZ-1074" edge="1">
          <mxGeometry width="50" height="50" relative="1" as="geometry">
            <mxPoint x="2164" y="3513" as="sourcePoint" />
            <mxPoint x="2214" y="3463" as="targetPoint" />
          </mxGeometry>
        </mxCell>
        <mxCell id="Hje7Pb7ly6nMzVSLejZZ-1124" value="request for &lt;br style=&quot;font-size: 14px;&quot;&gt;instrument&amp;nbsp;listl" style="edgeLabel;html=1;align=center;verticalAlign=middle;resizable=0;points=[];fontFamily=Times New Roman;fontSize=14;" parent="Hje7Pb7ly6nMzVSLejZZ-1123" vertex="1" connectable="0">
          <mxGeometry x="-0.5017" y="1" relative="1" as="geometry">
            <mxPoint x="19" as="offset" />
          </mxGeometry>
        </mxCell>
        <mxCell id="Hje7Pb7ly6nMzVSLejZZ-1125" value="" style="endArrow=none;html=1;rounded=0;align=center;verticalAlign=top;endFill=0;labelBackgroundColor=none;endSize=2;fontFamily=Times New Roman;fontSize=14;" parent="1" source="Hje7Pb7ly6nMzVSLejZZ-985" target="Hje7Pb7ly6nMzVSLejZZ-1126" edge="1">
          <mxGeometry relative="1" as="geometry">
            <mxPoint x="2039" y="3520" as="sourcePoint" />
            <mxPoint x="2061.000000000076" y="3520" as="targetPoint" />
          </mxGeometry>
        </mxCell>
        <mxCell id="Hje7Pb7ly6nMzVSLejZZ-1126" value="" style="shape=providedRequiredInterface;html=1;verticalLabelPosition=bottom;sketch=0;fontFamily=Times New Roman;fontSize=14;" parent="1" vertex="1">
          <mxGeometry x="2063" y="3510" width="20" height="20" as="geometry" />
        </mxCell>
        <mxCell id="Hje7Pb7ly6nMzVSLejZZ-1127" value="" style="endArrow=none;html=1;rounded=0;exitX=1;exitY=0.5;exitDx=0;exitDy=0;exitPerimeter=0;entryX=0;entryY=0.5;entryDx=0;entryDy=0;fontFamily=Times New Roman;fontSize=14;" parent="1" source="Hje7Pb7ly6nMzVSLejZZ-1126" target="Hje7Pb7ly6nMzVSLejZZ-1120" edge="1">
          <mxGeometry width="50" height="50" relative="1" as="geometry">
            <mxPoint x="2114" y="3553" as="sourcePoint" />
            <mxPoint x="2164" y="3503" as="targetPoint" />
          </mxGeometry>
        </mxCell>
        <mxCell id="Hje7Pb7ly6nMzVSLejZZ-1128" value="store maintain data" style="edgeLabel;html=1;align=center;verticalAlign=middle;resizable=0;points=[];fontFamily=Times New Roman;fontSize=14;" parent="Hje7Pb7ly6nMzVSLejZZ-1127" vertex="1" connectable="0">
          <mxGeometry x="-0.2298" y="1" relative="1" as="geometry">
            <mxPoint as="offset" />
          </mxGeometry>
        </mxCell>
        <mxCell id="Hje7Pb7ly6nMzVSLejZZ-1129" value="" style="whiteSpace=wrap;html=1;aspect=fixed;fontFamily=Times New Roman;fontSize=14;" parent="1" vertex="1">
          <mxGeometry x="2304" y="3593" width="30" height="30" as="geometry" />
        </mxCell>
        <mxCell id="Hje7Pb7ly6nMzVSLejZZ-1130" value="" style="whiteSpace=wrap;html=1;aspect=fixed;fontFamily=Times New Roman;fontSize=14;" parent="1" vertex="1">
          <mxGeometry x="2444" y="3593.5" width="30" height="30" as="geometry" />
        </mxCell>
        <mxCell id="Hje7Pb7ly6nMzVSLejZZ-1131" value="" style="shape=providedRequiredInterface;html=1;verticalLabelPosition=bottom;sketch=0;direction=west;fontFamily=Times New Roman;fontSize=14;" parent="1" vertex="1">
          <mxGeometry x="2063" y="3683" width="20" height="20" as="geometry" />
        </mxCell>
        <mxCell id="Hje7Pb7ly6nMzVSLejZZ-1132" value="" style="endArrow=none;html=1;rounded=0;exitX=0;exitY=0.5;exitDx=0;exitDy=0;exitPerimeter=0;entryX=0.5;entryY=1;entryDx=0;entryDy=0;edgeStyle=orthogonalEdgeStyle;fontFamily=Times New Roman;fontSize=14;" parent="1" source="Hje7Pb7ly6nMzVSLejZZ-1131" target="Hje7Pb7ly6nMzVSLejZZ-1129" edge="1">
          <mxGeometry width="50" height="50" relative="1" as="geometry">
            <mxPoint x="2224" y="3723" as="sourcePoint" />
            <mxPoint x="2274" y="3673" as="targetPoint" />
          </mxGeometry>
        </mxCell>
        <mxCell id="Hje7Pb7ly6nMzVSLejZZ-1133" value="" style="shape=providedRequiredInterface;html=1;verticalLabelPosition=bottom;sketch=0;fontFamily=Times New Roman;fontSize=14;" parent="1" vertex="1">
          <mxGeometry x="2063" y="3772.5" width="20" height="20" as="geometry" />
        </mxCell>
        <mxCell id="Hje7Pb7ly6nMzVSLejZZ-1134" value="" style="endArrow=none;html=1;rounded=0;exitX=1;exitY=0.5;exitDx=0;exitDy=0;exitPerimeter=0;entryX=0.5;entryY=1;entryDx=0;entryDy=0;edgeStyle=orthogonalEdgeStyle;fontFamily=Times New Roman;fontSize=14;" parent="1" source="Hje7Pb7ly6nMzVSLejZZ-1133" target="Hje7Pb7ly6nMzVSLejZZ-1130" edge="1">
          <mxGeometry width="50" height="50" relative="1" as="geometry">
            <mxPoint x="2144" y="3763" as="sourcePoint" />
            <mxPoint x="2194" y="3713" as="targetPoint" />
            <Array as="points">
              <mxPoint x="2459" y="3783" />
            </Array>
          </mxGeometry>
        </mxCell>
        <mxCell id="Hje7Pb7ly6nMzVSLejZZ-1135" value="store&amp;nbsp; rejected reason" style="edgeLabel;html=1;align=center;verticalAlign=middle;resizable=0;points=[];fontFamily=Times New Roman;fontSize=14;" parent="Hje7Pb7ly6nMzVSLejZZ-1134" vertex="1" connectable="0">
          <mxGeometry x="-0.5324" y="-3" relative="1" as="geometry">
            <mxPoint as="offset" />
          </mxGeometry>
        </mxCell>
        <mxCell id="Hje7Pb7ly6nMzVSLejZZ-1136" value="&lt;b style=&quot;font-size: 14px;&quot;&gt;&lt;span style=&quot;color: rgb(0, 0, 0); font-style: normal; font-variant-ligatures: normal; font-variant-caps: normal; letter-spacing: normal; orphans: 2; text-align: center; text-indent: 0px; text-transform: none; widows: 2; word-spacing: 0px; -webkit-text-stroke-width: 0px; background-color: rgb(251, 251, 251); text-decoration-thickness: initial; text-decoration-style: initial; text-decoration-color: initial; float: none; display: inline !important; font-size: 14px;&quot;&gt;&lt;span style=&quot;white-space: pre; font-size: 14px;&quot;&gt;&lt;span style=&quot;font-size: 14px;&quot;&gt;&#x9;&lt;/span&gt;&lt;span style=&quot;white-space: pre; font-size: 14px;&quot;&gt;&lt;font style=&quot;font-size: 14px;&quot;&gt;&#x9;&lt;span style=&quot;white-space: pre; font-size: 14px;&quot;&gt;&#x9;&lt;/span&gt;&lt;/font&gt;&lt;/span&gt;&lt;/span&gt;&lt;font style=&quot;font-size: 14px;&quot;&gt;&amp;lt;&amp;lt;component&amp;gt;&amp;gt;&lt;/font&gt;&lt;/span&gt;&lt;font style=&quot;font-size: 14px;&quot;&gt;&lt;br style=&quot;border-color: var(--border-color); padding: 0px; margin: 0px; color: rgb(0, 0, 0); font-style: normal; font-variant-ligatures: normal; font-variant-caps: normal; letter-spacing: normal; orphans: 2; text-align: center; text-indent: 0px; text-transform: none; widows: 2; word-spacing: 0px; -webkit-text-stroke-width: 0px; background-color: rgb(251, 251, 251); text-decoration-thickness: initial; text-decoration-style: initial; text-decoration-color: initial; font-size: 14px;&quot;&gt;&lt;/font&gt;&lt;/b&gt;&lt;span style=&quot;color: rgb(0, 0, 0); font-style: normal; font-variant-ligatures: normal; font-variant-caps: normal; letter-spacing: normal; orphans: 2; text-align: center; text-indent: 0px; text-transform: none; widows: 2; word-spacing: 0px; -webkit-text-stroke-width: 0px; background-color: rgb(251, 251, 251); text-decoration-thickness: initial; text-decoration-style: initial; text-decoration-color: initial; float: none; font-size: 14px; display: inline !important;&quot;&gt;&lt;b style=&quot;font-size: 14px;&quot;&gt;&lt;font style=&quot;font-size: 14px;&quot;&gt;&lt;span style=&quot;white-space: pre; font-size: 14px;&quot;&gt;&#x9;&lt;/span&gt;&amp;nbsp; HealthGuardianLabSubsystem&lt;br style=&quot;font-size: 14px;&quot;&gt;&lt;span style=&quot;white-space: pre; font-size: 14px;&quot;&gt;&#x9;&lt;/span&gt;&lt;span style=&quot;white-space: pre; font-size: 14px;&quot;&gt;&#x9;&lt;span style=&quot;white-space: pre; font-size: 14px;&quot;&gt;&#x9;&lt;span style=&quot;white-space: pre; font-size: 14px;&quot;&gt;&#x9;&lt;/span&gt; &lt;/span&gt; S&lt;/span&gt;aas&lt;/font&gt;&lt;/b&gt;&lt;br style=&quot;font-size: 14px;&quot;&gt;&lt;/span&gt;" style="text;whiteSpace=wrap;html=1;fontFamily=Times New Roman;fontSize=14;" parent="1" vertex="1">
          <mxGeometry x="2051" y="2433" width="230" height="50" as="geometry" />
        </mxCell>
        <mxCell id="Hje7Pb7ly6nMzVSLejZZ-1140" value="&lt;&lt;interface&gt;&gt;&#xa;ILabTechnician" style="swimlane;fontStyle=1;align=center;verticalAlign=top;childLayout=stackLayout;horizontal=1;startSize=43.8;horizontalStack=0;resizeParent=1;resizeParentMax=0;resizeLast=0;collapsible=0;marginBottom=0;swimlaneFillColor=none;swimlaneLine=1;fontFamily=Times New Roman;fontSize=14;" parent="1" vertex="1">
          <mxGeometry x="1083.5" y="2621.6" width="317" height="163.8" as="geometry" />
        </mxCell>
        <mxCell id="Hje7Pb7ly6nMzVSLejZZ-1141" value="+login(int technicianID,: String password): Boolean" style="text;html=1;align=center;verticalAlign=middle;resizable=0;points=[];autosize=1;strokeColor=none;fillColor=none;fontFamily=Times New Roman;fontSize=14;" parent="Hje7Pb7ly6nMzVSLejZZ-1140" vertex="1">
          <mxGeometry y="43.8" width="317" height="30" as="geometry" />
        </mxCell>
        <mxCell id="Hje7Pb7ly6nMzVSLejZZ-1142" value="+logout(): Boolean" style="text;html=1;align=center;verticalAlign=middle;resizable=0;points=[];autosize=1;strokeColor=none;fillColor=none;fontFamily=Times New Roman;fontSize=14;" parent="Hje7Pb7ly6nMzVSLejZZ-1140" vertex="1">
          <mxGeometry y="73.8" width="317" height="30" as="geometry" />
        </mxCell>
        <mxCell id="Hje7Pb7ly6nMzVSLejZZ-1143" value="+processRequest(int requestID): Boolean" style="text;html=1;align=center;verticalAlign=middle;resizable=0;points=[];autosize=1;strokeColor=none;fillColor=none;fontFamily=Times New Roman;fontSize=14;" parent="Hje7Pb7ly6nMzVSLejZZ-1140" vertex="1">
          <mxGeometry y="103.8" width="317" height="30" as="geometry" />
        </mxCell>
        <mxCell id="Hje7Pb7ly6nMzVSLejZZ-1279" value="+verifyRequest(int doctorID, int requestID): Boolean" style="text;html=1;align=center;verticalAlign=middle;resizable=0;points=[];autosize=1;strokeColor=none;fillColor=none;fontFamily=Times New Roman;fontSize=14;" parent="Hje7Pb7ly6nMzVSLejZZ-1140" vertex="1">
          <mxGeometry y="133.8" width="317" height="30" as="geometry" />
        </mxCell>
        <mxCell id="Hje7Pb7ly6nMzVSLejZZ-1144" value="&lt;&lt;interface&gt;&gt;&#xa;ILabTest" style="swimlane;fontStyle=1;align=center;verticalAlign=top;childLayout=stackLayout;horizontal=1;startSize=43.8;horizontalStack=0;resizeParent=1;resizeParentMax=0;resizeLast=0;collapsible=0;marginBottom=0;fontFamily=Times New Roman;fontSize=14;" parent="1" vertex="1">
          <mxGeometry x="1083.5" y="2959" width="278" height="203.8" as="geometry" />
        </mxCell>
        <mxCell id="Hje7Pb7ly6nMzVSLejZZ-1145" value="+createTest(int patientID, int technicianID, &lt;br style=&quot;font-size: 14px;&quot;&gt;int instrumentID, String testItems,&lt;br style=&quot;font-size: 14px;&quot;&gt;DateTime testDate, name, &lt;br style=&quot;font-size: 14px;&quot;&gt;description): Boolean" style="text;html=1;align=center;verticalAlign=middle;resizable=0;points=[];autosize=1;strokeColor=none;fillColor=none;fontFamily=Times New Roman;fontSize=14;" parent="Hje7Pb7ly6nMzVSLejZZ-1144" vertex="1">
          <mxGeometry y="43.8" width="278" height="80" as="geometry" />
        </mxCell>
        <mxCell id="Hje7Pb7ly6nMzVSLejZZ-1146" value="+recordResults(int testID, String testResult, &lt;br style=&quot;font-size: 14px;&quot;&gt;DateTime testDate): boolean" style="text;html=1;align=center;verticalAlign=middle;resizable=0;points=[];autosize=1;strokeColor=none;fillColor=none;fontFamily=Times New Roman;fontSize=14;" parent="Hje7Pb7ly6nMzVSLejZZ-1144" vertex="1">
          <mxGeometry y="123.8" width="278" height="50" as="geometry" />
        </mxCell>
        <mxCell id="Hje7Pb7ly6nMzVSLejZZ-1280" value="+cancelTest(int testID): Boolean" style="text;html=1;align=center;verticalAlign=middle;resizable=0;points=[];autosize=1;strokeColor=none;fillColor=none;fontFamily=Times New Roman;fontSize=14;" parent="Hje7Pb7ly6nMzVSLejZZ-1144" vertex="1">
          <mxGeometry y="173.8" width="278" height="30" as="geometry" />
        </mxCell>
        <mxCell id="Hje7Pb7ly6nMzVSLejZZ-1150" value="&lt;&lt;interface&gt;&gt;&#xa;LabRequest" style="swimlane;fontStyle=1;align=center;verticalAlign=top;childLayout=stackLayout;horizontal=1;startSize=43.8;horizontalStack=0;resizeParent=1;resizeParentMax=0;resizeLast=0;collapsible=0;marginBottom=0;fontFamily=Times New Roman;fontSize=14;" parent="1" vertex="1">
          <mxGeometry x="1070" y="3598.5" width="357" height="183.8" as="geometry" />
        </mxCell>
        <mxCell id="Hje7Pb7ly6nMzVSLejZZ-1151" value="+getRequestDetails(int requestID): Request" style="text;html=1;align=center;verticalAlign=middle;resizable=0;points=[];autosize=1;strokeColor=none;fillColor=none;fontFamily=Times New Roman;fontSize=14;" parent="Hje7Pb7ly6nMzVSLejZZ-1150" vertex="1">
          <mxGeometry y="43.8" width="357" height="30" as="geometry" />
        </mxCell>
        <mxCell id="Hje7Pb7ly6nMzVSLejZZ-1152" value="+cancelRequest(int&amp;nbsp;requestID): Boolean" style="text;html=1;align=center;verticalAlign=middle;resizable=0;points=[];autosize=1;strokeColor=none;fillColor=none;fontFamily=Times New Roman;fontSize=14;" parent="Hje7Pb7ly6nMzVSLejZZ-1150" vertex="1">
          <mxGeometry y="73.8" width="357" height="30" as="geometry" />
        </mxCell>
        <mxCell id="Hje7Pb7ly6nMzVSLejZZ-1290" value="+specifyReason(int requestID): Boolean" style="text;html=1;align=center;verticalAlign=middle;resizable=0;points=[];autosize=1;strokeColor=none;fillColor=none;fontFamily=Times New Roman;fontSize=14;" parent="Hje7Pb7ly6nMzVSLejZZ-1150" vertex="1">
          <mxGeometry y="103.8" width="357" height="30" as="geometry" />
        </mxCell>
        <mxCell id="Hje7Pb7ly6nMzVSLejZZ-1346" value="+createRequest(int&amp;nbsp;doctorID, int patientID, int instrumentID, &lt;br style=&quot;font-size: 14px;&quot;&gt;String testType, DateTime requestedDate): void" style="text;html=1;align=center;verticalAlign=middle;resizable=0;points=[];autosize=1;strokeColor=none;fillColor=none;fontFamily=Times New Roman;fontSize=14;" parent="Hje7Pb7ly6nMzVSLejZZ-1150" vertex="1">
          <mxGeometry y="133.8" width="357" height="50" as="geometry" />
        </mxCell>
        <mxCell id="Hje7Pb7ly6nMzVSLejZZ-1153" value="&lt;&lt;interface&gt;&gt;&#xa;ILabInstrument" style="swimlane;fontStyle=1;align=center;verticalAlign=top;childLayout=stackLayout;horizontal=1;startSize=43.8;horizontalStack=0;resizeParent=1;resizeParentMax=0;resizeLast=0;collapsible=0;marginBottom=0;fontFamily=Times New Roman;fontSize=14;" parent="1" vertex="1">
          <mxGeometry x="1044.5" y="3299.2" width="388" height="133.8" as="geometry" />
        </mxCell>
        <mxCell id="Hje7Pb7ly6nMzVSLejZZ-1154" value="+listInstrument(requestID): List&amp;lt;Instrument&amp;gt;" style="text;html=1;align=center;verticalAlign=middle;resizable=0;points=[];autosize=1;strokeColor=none;fillColor=none;fontFamily=Times New Roman;fontSize=14;" parent="Hje7Pb7ly6nMzVSLejZZ-1153" vertex="1">
          <mxGeometry y="43.8" width="388" height="30" as="geometry" />
        </mxCell>
        <mxCell id="Hje7Pb7ly6nMzVSLejZZ-1155" value="+maintain(int&amp;nbsp;instrumentID, String maintenanceDetails): Boolean" style="text;html=1;align=center;verticalAlign=middle;resizable=0;points=[];autosize=1;strokeColor=none;fillColor=none;fontFamily=Times New Roman;fontSize=14;" parent="Hje7Pb7ly6nMzVSLejZZ-1153" vertex="1">
          <mxGeometry y="73.8" width="388" height="30" as="geometry" />
        </mxCell>
        <mxCell id="Hje7Pb7ly6nMzVSLejZZ-1289" value="+reportInstrumentIssue(int instrumentID): Boolean" style="text;html=1;align=center;verticalAlign=middle;resizable=0;points=[];autosize=1;strokeColor=none;fillColor=none;fontFamily=Times New Roman;fontSize=14;" parent="Hje7Pb7ly6nMzVSLejZZ-1153" vertex="1">
          <mxGeometry y="103.8" width="388" height="30" as="geometry" />
        </mxCell>
        <mxCell id="Hje7Pb7ly6nMzVSLejZZ-1156" value="" style="endArrow=none;html=1;rounded=0;align=center;verticalAlign=top;endFill=0;labelBackgroundColor=none;endSize=2;fontFamily=Times New Roman;fontSize=14;" parent="1" source="Hje7Pb7ly6nMzVSLejZZ-1206" edge="1">
          <mxGeometry relative="1" as="geometry">
            <mxPoint x="648" y="3182.5" as="sourcePoint" />
            <mxPoint x="670" y="3182.5" as="targetPoint" />
          </mxGeometry>
        </mxCell>
        <mxCell id="Hje7Pb7ly6nMzVSLejZZ-1157" value="" style="endArrow=none;html=1;rounded=0;align=center;verticalAlign=top;endFill=0;labelBackgroundColor=none;endSize=2;fontFamily=Times New Roman;fontSize=14;" parent="1" source="Hje7Pb7ly6nMzVSLejZZ-911" edge="1">
          <mxGeometry relative="1" as="geometry">
            <mxPoint x="653" y="3398.5" as="sourcePoint" />
            <mxPoint x="675" y="3398.059880239521" as="targetPoint" />
          </mxGeometry>
        </mxCell>
        <mxCell id="Hje7Pb7ly6nMzVSLejZZ-1158" value="" style="endArrow=none;html=1;rounded=0;align=center;verticalAlign=top;endFill=0;labelBackgroundColor=none;endSize=2;fontFamily=Times New Roman;fontSize=14;" parent="1" source="Hje7Pb7ly6nMzVSLejZZ-979" edge="1">
          <mxGeometry relative="1" as="geometry">
            <mxPoint x="1720.6" y="3282" as="sourcePoint" />
            <mxPoint x="1709.0999999998276" y="3281.5" as="targetPoint" />
          </mxGeometry>
        </mxCell>
        <mxCell id="Hje7Pb7ly6nMzVSLejZZ-1159" value="" style="endArrow=none;html=1;rounded=0;align=center;verticalAlign=top;endFill=0;labelBackgroundColor=none;endSize=2;fontFamily=Times New Roman;fontSize=14;" parent="1" source="Hje7Pb7ly6nMzVSLejZZ-1218" edge="1">
          <mxGeometry relative="1" as="geometry">
            <mxPoint x="1725.5" y="3451.05" as="sourcePoint" />
            <mxPoint x="1712.9998816620541" y="3450.580768320477" as="targetPoint" />
          </mxGeometry>
        </mxCell>
        <mxCell id="Hje7Pb7ly6nMzVSLejZZ-1160" value="uses" style="startArrow=none;endArrow=open;endSize=12;exitX=1;exitY=0.5;entryX=-0.003;entryY=0.657;rounded=0;exitDx=0;exitDy=0;entryDx=0;entryDy=0;entryPerimeter=0;edgeStyle=orthogonalEdgeStyle;fontFamily=Times New Roman;fontSize=14;" parent="1" source="Hje7Pb7ly6nMzVSLejZZ-1008" target="Hje7Pb7ly6nMzVSLejZZ-1142" edge="1">
          <mxGeometry relative="1" as="geometry">
            <mxPoint x="986" y="3787" as="sourcePoint" />
            <mxPoint x="1072.13" y="2646.02" as="targetPoint" />
            <Array as="points">
              <mxPoint x="970" y="2660" />
              <mxPoint x="970" y="2715" />
            </Array>
          </mxGeometry>
        </mxCell>
        <mxCell id="Hje7Pb7ly6nMzVSLejZZ-1161" value="" style="startArrow=none;endArrow=block;endSize=16;endFill=0;exitX=-0.021;exitY=0.316;entryX=0.998;entryY=0.592;rounded=0;exitDx=0;exitDy=0;exitPerimeter=0;entryDx=0;entryDy=0;entryPerimeter=0;edgeStyle=orthogonalEdgeStyle;fontFamily=Times New Roman;fontSize=14;" parent="1" source="Hje7Pb7ly6nMzVSLejZZ-1039" target="Hje7Pb7ly6nMzVSLejZZ-1141" edge="1">
          <mxGeometry relative="1" as="geometry">
            <mxPoint x="1625" y="3763" as="sourcePoint" />
            <mxPoint x="1398.8299999999995" y="2631.02" as="targetPoint" />
          </mxGeometry>
        </mxCell>
        <mxCell id="Hje7Pb7ly6nMzVSLejZZ-1162" value="uses" style="startArrow=none;endArrow=open;endSize=12;entryX=-0.009;entryY=0.672;rounded=0;entryDx=0;entryDy=0;entryPerimeter=0;exitX=1;exitY=0.5;exitDx=0;exitDy=0;edgeStyle=orthogonalEdgeStyle;fontFamily=Times New Roman;fontSize=14;" parent="1" source="Hje7Pb7ly6nMzVSLejZZ-1016" target="Hje7Pb7ly6nMzVSLejZZ-1143" edge="1">
          <mxGeometry relative="1" as="geometry">
            <mxPoint x="862" y="2976" as="sourcePoint" />
            <mxPoint x="1082" y="2656" as="targetPoint" />
            <Array as="points">
              <mxPoint x="970" y="2869" />
              <mxPoint x="970" y="2746" />
            </Array>
          </mxGeometry>
        </mxCell>
        <mxCell id="Hje7Pb7ly6nMzVSLejZZ-1163" value="" style="startArrow=none;endArrow=block;endSize=16;endFill=0;exitX=-0.093;exitY=0.303;entryX=1.001;entryY=0.593;rounded=0;exitDx=0;exitDy=0;exitPerimeter=0;entryDx=0;entryDy=0;entryPerimeter=0;edgeStyle=orthogonalEdgeStyle;fontFamily=Times New Roman;fontSize=14;" parent="1" source="Hje7Pb7ly6nMzVSLejZZ-1047" target="Hje7Pb7ly6nMzVSLejZZ-1143" edge="1">
          <mxGeometry relative="1" as="geometry">
            <mxPoint x="1632" y="2637" as="sourcePoint" />
            <mxPoint x="1409" y="2641" as="targetPoint" />
          </mxGeometry>
        </mxCell>
        <mxCell id="Hje7Pb7ly6nMzVSLejZZ-1164" value="" style="startArrow=none;endArrow=block;endSize=16;endFill=0;exitX=0;exitY=0.25;entryX=0.997;entryY=0.38;rounded=0;exitDx=0;exitDy=0;entryDx=0;entryDy=0;entryPerimeter=0;edgeStyle=orthogonalEdgeStyle;fontFamily=Times New Roman;fontSize=14;" parent="1" source="Hje7Pb7ly6nMzVSLejZZ-1054" target="Hje7Pb7ly6nMzVSLejZZ-1145" edge="1">
          <mxGeometry relative="1" as="geometry">
            <mxPoint x="1630" y="2981" as="sourcePoint" />
            <mxPoint x="1389" y="2904" as="targetPoint" />
            <Array as="points">
              <mxPoint x="1500" y="3236" />
              <mxPoint x="1500" y="3033" />
            </Array>
          </mxGeometry>
        </mxCell>
        <mxCell id="Hje7Pb7ly6nMzVSLejZZ-1165" value="uses" style="startArrow=none;endArrow=open;endSize=12;entryX=0.007;entryY=0.496;rounded=0;entryDx=0;entryDy=0;entryPerimeter=0;exitX=1;exitY=0.5;exitDx=0;exitDy=0;edgeStyle=orthogonalEdgeStyle;fontFamily=Times New Roman;fontSize=14;" parent="1" source="Hje7Pb7ly6nMzVSLejZZ-1023" target="Hje7Pb7ly6nMzVSLejZZ-1145" edge="1">
          <mxGeometry relative="1" as="geometry">
            <mxPoint x="879" y="3010" as="sourcePoint" />
            <mxPoint x="1090" y="2898" as="targetPoint" />
            <Array as="points">
              <mxPoint x="970" y="3166" />
              <mxPoint x="970" y="3042" />
            </Array>
          </mxGeometry>
        </mxCell>
        <mxCell id="Hje7Pb7ly6nMzVSLejZZ-1166" value="uses" style="startArrow=none;endArrow=open;endSize=12;entryX=-0.003;entryY=0.866;rounded=0;entryDx=0;entryDy=0;entryPerimeter=0;exitX=1;exitY=0.5;exitDx=0;exitDy=0;edgeStyle=orthogonalEdgeStyle;fontFamily=Times New Roman;fontSize=14;" parent="1" source="Hje7Pb7ly6nMzVSLejZZ-1028" target="Hje7Pb7ly6nMzVSLejZZ-1154" edge="1">
          <mxGeometry relative="1" as="geometry">
            <mxPoint x="879" y="3293" as="sourcePoint" />
            <mxPoint x="1093" y="3160" as="targetPoint" />
            <Array as="points">
              <mxPoint x="970" y="3422" />
              <mxPoint x="970" y="3369" />
            </Array>
          </mxGeometry>
        </mxCell>
        <mxCell id="Hje7Pb7ly6nMzVSLejZZ-1167" value="" style="startArrow=none;endArrow=block;endSize=16;endFill=0;entryX=1.004;entryY=1.157;rounded=0;entryDx=0;entryDy=0;exitX=0.121;exitY=0.429;exitDx=0;exitDy=0;exitPerimeter=0;entryPerimeter=0;edgeStyle=orthogonalEdgeStyle;fontFamily=Times New Roman;fontSize=14;" parent="1" source="Hje7Pb7ly6nMzVSLejZZ-1059" target="Hje7Pb7ly6nMzVSLejZZ-1154" edge="1">
          <mxGeometry relative="1" as="geometry">
            <mxPoint x="1592" y="3396" as="sourcePoint" />
            <mxPoint x="1373" y="3151" as="targetPoint" />
            <Array as="points">
              <mxPoint x="1500" y="3483" />
              <mxPoint x="1500" y="3378" />
            </Array>
          </mxGeometry>
        </mxCell>
        <mxCell id="Hje7Pb7ly6nMzVSLejZZ-1168" value="uses" style="startArrow=none;endArrow=open;endSize=12;entryX=-0.004;entryY=0.902;rounded=0;entryDx=0;entryDy=0;entryPerimeter=0;exitX=0.96;exitY=0.438;exitDx=0;exitDy=0;exitPerimeter=0;edgeStyle=orthogonalEdgeStyle;fontFamily=Times New Roman;fontSize=14;" parent="1" source="Hje7Pb7ly6nMzVSLejZZ-1033" target="Hje7Pb7ly6nMzVSLejZZ-1151" edge="1">
          <mxGeometry relative="1" as="geometry">
            <mxPoint x="879" y="3530" as="sourcePoint" />
            <mxPoint x="1047" y="3425" as="targetPoint" />
          </mxGeometry>
        </mxCell>
        <mxCell id="Hje7Pb7ly6nMzVSLejZZ-1169" value="" style="startArrow=none;endArrow=block;endSize=16;endFill=0;entryX=1.018;entryY=0.283;rounded=0;entryDx=0;entryDy=0;exitX=0;exitY=0.5;exitDx=0;exitDy=0;entryPerimeter=0;edgeStyle=orthogonalEdgeStyle;fontFamily=Times New Roman;fontSize=14;" parent="1" source="Hje7Pb7ly6nMzVSLejZZ-1064" target="Hje7Pb7ly6nMzVSLejZZ-1151" edge="1">
          <mxGeometry relative="1" as="geometry">
            <mxPoint x="1634" y="3493" as="sourcePoint" />
            <mxPoint x="1409" y="3389" as="targetPoint" />
          </mxGeometry>
        </mxCell>
        <mxCell id="Hje7Pb7ly6nMzVSLejZZ-1182" value="" style="ellipse;whiteSpace=wrap;html=1;align=center;aspect=fixed;fillColor=none;strokeColor=none;resizable=0;perimeter=centerPerimeter;rotatable=0;allowArrows=0;points=[];outlineConnect=1;fontFamily=Times New Roman;fontSize=14;" parent="1" vertex="1">
          <mxGeometry x="1422" y="4040.5" width="10" height="10" as="geometry" />
        </mxCell>
        <mxCell id="Hje7Pb7ly6nMzVSLejZZ-1198" value="request for request details" style="edgeLabel;html=1;align=center;verticalAlign=middle;resizable=0;points=[];fontFamily=Times New Roman;fontSize=14;" parent="1" vertex="1" connectable="0">
          <mxGeometry x="2169.363636363636" y="3693" as="geometry" />
        </mxCell>
        <mxCell id="Hje7Pb7ly6nMzVSLejZZ-1203" value="" style="endArrow=none;html=1;rounded=0;align=center;verticalAlign=top;endFill=0;labelBackgroundColor=none;endSize=2;fontFamily=Times New Roman;fontSize=14;" parent="1" source="Hje7Pb7ly6nMzVSLejZZ-866" target="Hje7Pb7ly6nMzVSLejZZ-1204" edge="1">
          <mxGeometry relative="1" as="geometry">
            <mxPoint x="648" y="2698.5" as="sourcePoint" />
            <mxPoint x="669.5" y="2698.5" as="targetPoint" />
          </mxGeometry>
        </mxCell>
        <mxCell id="Hje7Pb7ly6nMzVSLejZZ-1204" value="" style="ellipse;html=1;fontSize=14;align=center;fillColor=none;points=[];aspect=fixed;resizable=0;verticalAlign=bottom;labelPosition=center;verticalLabelPosition=top;flipH=1;fontFamily=Times New Roman;" parent="1" vertex="1">
          <mxGeometry x="669.5" y="2694.5" width="8" height="8" as="geometry" />
        </mxCell>
        <mxCell id="Hje7Pb7ly6nMzVSLejZZ-1205" value="" style="endArrow=none;html=1;rounded=0;align=center;verticalAlign=top;endFill=0;labelBackgroundColor=none;endSize=2;entryX=1.031;entryY=0.542;entryDx=0;entryDy=0;entryPerimeter=0;fontFamily=Times New Roman;fontSize=14;" parent="1" source="Hje7Pb7ly6nMzVSLejZZ-891" target="Hje7Pb7ly6nMzVSLejZZ-1206" edge="1">
          <mxGeometry relative="1" as="geometry">
            <mxPoint x="648" y="3182.5" as="sourcePoint" />
            <mxPoint x="670" y="3182.5" as="targetPoint" />
          </mxGeometry>
        </mxCell>
        <mxCell id="Hje7Pb7ly6nMzVSLejZZ-1206" value="" style="ellipse;html=1;fontSize=14;align=center;fillColor=none;points=[];aspect=fixed;resizable=0;verticalAlign=bottom;labelPosition=center;verticalLabelPosition=top;flipH=1;fontFamily=Times New Roman;" parent="1" vertex="1">
          <mxGeometry x="667.25" y="3178.5" width="8" height="8" as="geometry" />
        </mxCell>
        <mxCell id="Hje7Pb7ly6nMzVSLejZZ-1207" value="" style="endArrow=none;html=1;rounded=0;align=center;verticalAlign=top;endFill=0;labelBackgroundColor=none;endSize=2;fontFamily=Times New Roman;fontSize=14;" parent="1" target="Hje7Pb7ly6nMzVSLejZZ-1208" edge="1">
          <mxGeometry relative="1" as="geometry">
            <mxPoint x="675" y="3398.5263157894738" as="sourcePoint" />
            <mxPoint x="675.25" y="3398.5" as="targetPoint" />
          </mxGeometry>
        </mxCell>
        <mxCell id="Hje7Pb7ly6nMzVSLejZZ-1208" value="" style="ellipse;html=1;fontSize=14;align=center;fillColor=none;points=[];aspect=fixed;resizable=0;verticalAlign=bottom;labelPosition=center;verticalLabelPosition=top;flipH=1;fontFamily=Times New Roman;" parent="1" vertex="1">
          <mxGeometry x="674.5" y="3393.5" width="8" height="8" as="geometry" />
        </mxCell>
        <mxCell id="Hje7Pb7ly6nMzVSLejZZ-1209" value="" style="ellipse;html=1;fontSize=14;align=center;fillColor=none;points=[];aspect=fixed;resizable=0;verticalAlign=bottom;labelPosition=center;verticalLabelPosition=top;flipH=1;fontFamily=Times New Roman;" parent="1" vertex="1">
          <mxGeometry x="669.5" y="3660" width="8" height="8" as="geometry" />
        </mxCell>
        <mxCell id="Hje7Pb7ly6nMzVSLejZZ-1212" value="" style="ellipse;whiteSpace=wrap;html=1;align=center;aspect=fixed;fillColor=none;strokeColor=none;resizable=0;perimeter=centerPerimeter;rotatable=0;allowArrows=0;points=[];outlineConnect=1;fontFamily=Times New Roman;fontSize=14;" parent="1" vertex="1">
          <mxGeometry x="1701.5" y="2713" width="10" height="10" as="geometry" />
        </mxCell>
        <mxCell id="Hje7Pb7ly6nMzVSLejZZ-1213" value="" style="endArrow=none;html=1;rounded=0;align=center;verticalAlign=top;endFill=0;labelBackgroundColor=none;endSize=2;fontFamily=Times New Roman;fontSize=14;" parent="1" target="Hje7Pb7ly6nMzVSLejZZ-1214" edge="1">
          <mxGeometry relative="1" as="geometry">
            <mxPoint x="1723.8805700005814" y="2688.0298574998546" as="sourcePoint" />
            <mxPoint x="1724" y="2687.916666666667" as="targetPoint" />
          </mxGeometry>
        </mxCell>
        <mxCell id="Hje7Pb7ly6nMzVSLejZZ-1214" value="" style="shape=requiredInterface;html=1;fontSize=14;align=center;fillColor=none;points=[];aspect=fixed;resizable=0;verticalAlign=bottom;labelPosition=center;verticalLabelPosition=top;flipH=1;direction=west;fontFamily=Times New Roman;" parent="1" vertex="1">
          <mxGeometry x="1719.5" y="2682" width="5" height="10" as="geometry" />
        </mxCell>
        <mxCell id="Hje7Pb7ly6nMzVSLejZZ-1215" value="" style="endArrow=none;html=1;rounded=0;align=center;verticalAlign=top;endFill=0;labelBackgroundColor=none;endSize=2;entryX=1.11;entryY=0.49;entryDx=0;entryDy=0;entryPerimeter=0;exitX=0.5;exitY=1;exitDx=0;exitDy=0;fontFamily=Times New Roman;fontSize=14;" parent="1" source="Hje7Pb7ly6nMzVSLejZZ-950" target="Hje7Pb7ly6nMzVSLejZZ-1214" edge="1">
          <mxGeometry relative="1" as="geometry">
            <mxPoint x="1747" y="2648" as="sourcePoint" />
            <mxPoint x="1734" y="2649" as="targetPoint" />
          </mxGeometry>
        </mxCell>
        <mxCell id="Hje7Pb7ly6nMzVSLejZZ-1216" value="" style="shape=requiredInterface;html=1;fontSize=14;align=center;fillColor=none;points=[];aspect=fixed;resizable=0;verticalAlign=bottom;labelPosition=center;verticalLabelPosition=top;flipH=1;direction=west;fontFamily=Times New Roman;" parent="1" vertex="1">
          <mxGeometry x="1704.1" y="3276" width="5" height="10" as="geometry" />
        </mxCell>
        <mxCell id="Hje7Pb7ly6nMzVSLejZZ-1217" value="" style="endArrow=none;html=1;rounded=0;align=center;verticalAlign=top;endFill=0;labelBackgroundColor=none;endSize=2;fontFamily=Times New Roman;fontSize=14;" parent="1" source="Hje7Pb7ly6nMzVSLejZZ-987" target="Hje7Pb7ly6nMzVSLejZZ-1218" edge="1">
          <mxGeometry relative="1" as="geometry">
            <mxPoint x="1725.5" y="3451.05" as="sourcePoint" />
            <mxPoint x="1712.9998816620541" y="3450.580768320477" as="targetPoint" />
          </mxGeometry>
        </mxCell>
        <mxCell id="Hje7Pb7ly6nMzVSLejZZ-1218" value="" style="shape=requiredInterface;html=1;fontSize=14;align=center;fillColor=none;points=[];aspect=fixed;resizable=0;verticalAlign=bottom;labelPosition=center;verticalLabelPosition=top;flipH=1;direction=west;fontFamily=Times New Roman;" parent="1" vertex="1">
          <mxGeometry x="1708" y="3445.55" width="5" height="10" as="geometry" />
        </mxCell>
        <mxCell id="Hje7Pb7ly6nMzVSLejZZ-1219" value="" style="endArrow=none;html=1;rounded=0;align=center;verticalAlign=top;endFill=0;labelBackgroundColor=none;endSize=2;fontFamily=Times New Roman;fontSize=14;" parent="1" source="Hje7Pb7ly6nMzVSLejZZ-1001" target="Hje7Pb7ly6nMzVSLejZZ-1220" edge="1">
          <mxGeometry relative="1" as="geometry">
            <mxPoint x="1726.5" y="3670.5" as="sourcePoint" />
            <mxPoint x="1713.5" y="3670.916666666667" as="targetPoint" />
          </mxGeometry>
        </mxCell>
        <mxCell id="Hje7Pb7ly6nMzVSLejZZ-1220" value="" style="shape=requiredInterface;html=1;fontSize=14;align=center;fillColor=none;points=[];aspect=fixed;resizable=0;verticalAlign=bottom;labelPosition=center;verticalLabelPosition=top;flipH=1;direction=west;fontFamily=Times New Roman;" parent="1" vertex="1">
          <mxGeometry x="1709" y="3666" width="5" height="10" as="geometry" />
        </mxCell>
        <mxCell id="Hje7Pb7ly6nMzVSLejZZ-1223" value="maintain" style="text;html=1;strokeColor=none;fillColor=none;align=center;verticalAlign=middle;whiteSpace=wrap;rounded=0;fontFamily=Times New Roman;fontSize=14;" parent="1" vertex="1">
          <mxGeometry x="1651" y="3467.55" width="51" height="28" as="geometry" />
        </mxCell>
        <mxCell id="Hje7Pb7ly6nMzVSLejZZ-1224" value="" style="endArrow=none;html=1;rounded=0;entryX=0.5;entryY=1;entryDx=0;entryDy=0;exitX=-0.049;exitY=0.574;exitDx=0;exitDy=0;exitPerimeter=0;fontFamily=Times New Roman;fontSize=14;" parent="1" source="Hje7Pb7ly6nMzVSLejZZ-1225" target="Hje7Pb7ly6nMzVSLejZZ-868" edge="1">
          <mxGeometry width="50" height="50" relative="1" as="geometry">
            <mxPoint x="313" y="2679.5" as="sourcePoint" />
            <mxPoint x="303" y="2669.5" as="targetPoint" />
          </mxGeometry>
        </mxCell>
        <mxCell id="Hje7Pb7ly6nMzVSLejZZ-1225" value="" style="ellipse;html=1;fontSize=14;align=center;fillColor=none;points=[];aspect=fixed;resizable=0;verticalAlign=bottom;labelPosition=center;verticalLabelPosition=top;flipH=1;fontFamily=Times New Roman;" parent="1" vertex="1">
          <mxGeometry x="153" y="3054.75" width="8" height="8" as="geometry" />
        </mxCell>
        <mxCell id="Hje7Pb7ly6nMzVSLejZZ-1226" value="" style="startArrow=none;endArrow=open;endSize=12;rounded=0;dashed=1;fontFamily=Times New Roman;fontSize=14;" parent="1" target="Hje7Pb7ly6nMzVSLejZZ-882" edge="1">
          <mxGeometry relative="1" as="geometry">
            <mxPoint x="161" y="3063.5" as="sourcePoint" />
            <mxPoint x="323.5" y="2717.33" as="targetPoint" />
          </mxGeometry>
        </mxCell>
        <mxCell id="Hje7Pb7ly6nMzVSLejZZ-1227" value="accept&amp;nbsp;lab technician&amp;nbsp;data" style="edgeLabel;html=1;align=center;verticalAlign=middle;resizable=0;points=[];fontFamily=Times New Roman;fontSize=14;" parent="Hje7Pb7ly6nMzVSLejZZ-1226" vertex="1" connectable="0">
          <mxGeometry x="0.0321" y="2" relative="1" as="geometry">
            <mxPoint x="43" y="-2" as="offset" />
          </mxGeometry>
        </mxCell>
        <mxCell id="Hje7Pb7ly6nMzVSLejZZ-1228" value="" style="startArrow=none;endArrow=open;endSize=12;rounded=0;exitX=0.698;exitY=1.11;exitDx=0;exitDy=0;exitPerimeter=0;dashed=1;fontFamily=Times New Roman;fontSize=14;" parent="1" source="Hje7Pb7ly6nMzVSLejZZ-1225" target="Hje7Pb7ly6nMzVSLejZZ-895" edge="1">
          <mxGeometry relative="1" as="geometry">
            <mxPoint x="288" y="2681.5" as="sourcePoint" />
            <mxPoint x="324" y="2854.5" as="targetPoint" />
          </mxGeometry>
        </mxCell>
        <mxCell id="Hje7Pb7ly6nMzVSLejZZ-1229" value="accept lab test data" style="edgeLabel;html=1;align=center;verticalAlign=middle;resizable=0;points=[];fontFamily=Times New Roman;fontSize=14;" parent="Hje7Pb7ly6nMzVSLejZZ-1228" vertex="1" connectable="0">
          <mxGeometry x="-0.128" y="1" relative="1" as="geometry">
            <mxPoint x="26" y="-2" as="offset" />
          </mxGeometry>
        </mxCell>
        <mxCell id="Hje7Pb7ly6nMzVSLejZZ-1230" value="" style="startArrow=none;endArrow=open;endSize=12;rounded=0;exitX=0.523;exitY=0.907;exitDx=0;exitDy=0;exitPerimeter=0;dashed=1;fontFamily=Times New Roman;fontSize=14;" parent="1" source="Hje7Pb7ly6nMzVSLejZZ-1225" edge="1">
          <mxGeometry relative="1" as="geometry">
            <mxPoint x="288" y="2681.5" as="sourcePoint" />
            <mxPoint x="323" y="3415" as="targetPoint" />
          </mxGeometry>
        </mxCell>
        <mxCell id="Hje7Pb7ly6nMzVSLejZZ-1231" value="accept lab&amp;nbsp;Instrument data" style="edgeLabel;html=1;align=center;verticalAlign=middle;resizable=0;points=[];fontFamily=Times New Roman;fontSize=14;" parent="Hje7Pb7ly6nMzVSLejZZ-1230" vertex="1" connectable="0">
          <mxGeometry x="0.3191" y="-1" relative="1" as="geometry">
            <mxPoint x="37" y="1" as="offset" />
          </mxGeometry>
        </mxCell>
        <mxCell id="Hje7Pb7ly6nMzVSLejZZ-1232" value="" style="startArrow=none;endArrow=open;endSize=12;rounded=0;exitX=0.875;exitY=0.75;exitDx=0;exitDy=0;exitPerimeter=0;dashed=1;entryX=0.384;entryY=0.335;entryDx=0;entryDy=0;entryPerimeter=0;fontFamily=Times New Roman;fontSize=14;" parent="1" source="Hje7Pb7ly6nMzVSLejZZ-1225" target="Hje7Pb7ly6nMzVSLejZZ-932" edge="1">
          <mxGeometry relative="1" as="geometry">
            <mxPoint x="288" y="2681.5" as="sourcePoint" />
            <mxPoint x="324" y="2854.5" as="targetPoint" />
          </mxGeometry>
        </mxCell>
        <mxCell id="Hje7Pb7ly6nMzVSLejZZ-1233" value="accept lab request data" style="edgeLabel;html=1;align=center;verticalAlign=middle;resizable=0;points=[];fontFamily=Times New Roman;fontSize=14;" parent="Hje7Pb7ly6nMzVSLejZZ-1232" vertex="1" connectable="0">
          <mxGeometry x="0.5585" relative="1" as="geometry">
            <mxPoint x="-23" y="-96" as="offset" />
          </mxGeometry>
        </mxCell>
        <mxCell id="Hje7Pb7ly6nMzVSLejZZ-1236" value="Lab account data" style="text;html=1;strokeColor=none;fillColor=none;align=center;verticalAlign=middle;whiteSpace=wrap;rounded=0;fontFamily=Times New Roman;fontSize=14;" parent="1" vertex="1">
          <mxGeometry x="93" y="3031.5" width="70" height="45" as="geometry" />
        </mxCell>
        <mxCell id="Hje7Pb7ly6nMzVSLejZZ-1239" value="UserAuthentication" style="rounded=0;whiteSpace=wrap;html=1;fontFamily=Times New Roman;fontSize=14;" parent="1" vertex="1">
          <mxGeometry x="443" y="2655.5" width="120" height="60" as="geometry" />
        </mxCell>
        <mxCell id="Hje7Pb7ly6nMzVSLejZZ-1240" value="" style="endArrow=none;html=1;rounded=0;exitX=1;exitY=0.25;exitDx=0;exitDy=0;entryX=0;entryY=0.5;entryDx=0;entryDy=0;edgeStyle=orthogonalEdgeStyle;fontFamily=Times New Roman;fontSize=14;" parent="1" source="Hje7Pb7ly6nMzVSLejZZ-1239" target="Hje7Pb7ly6nMzVSLejZZ-862" edge="1">
          <mxGeometry width="50" height="50" relative="1" as="geometry">
            <mxPoint x="683" y="2789.5" as="sourcePoint" />
            <mxPoint x="733" y="2739.5" as="targetPoint" />
          </mxGeometry>
        </mxCell>
        <mxCell id="Hje7Pb7ly6nMzVSLejZZ-1241" value="" style="endArrow=none;html=1;rounded=0;exitX=1;exitY=0.75;exitDx=0;exitDy=0;entryX=0;entryY=0.5;entryDx=0;entryDy=0;edgeStyle=orthogonalEdgeStyle;fontFamily=Times New Roman;fontSize=14;" parent="1" source="Hje7Pb7ly6nMzVSLejZZ-1239" target="Hje7Pb7ly6nMzVSLejZZ-866" edge="1">
          <mxGeometry width="50" height="50" relative="1" as="geometry">
            <mxPoint x="693" y="2779.5" as="sourcePoint" />
            <mxPoint x="743" y="2729.5" as="targetPoint" />
          </mxGeometry>
        </mxCell>
        <mxCell id="Hje7Pb7ly6nMzVSLejZZ-1242" value="" style="endArrow=none;html=1;rounded=0;entryX=0;entryY=0.25;entryDx=0;entryDy=0;fontFamily=Times New Roman;fontSize=14;" parent="1" target="Hje7Pb7ly6nMzVSLejZZ-1239" edge="1">
          <mxGeometry width="50" height="50" relative="1" as="geometry">
            <mxPoint x="363" y="2669.5" as="sourcePoint" />
            <mxPoint x="423" y="2689.5" as="targetPoint" />
          </mxGeometry>
        </mxCell>
        <mxCell id="Hje7Pb7ly6nMzVSLejZZ-1243" value="Lab Technician" style="rounded=0;whiteSpace=wrap;html=1;fontFamily=Times New Roman;fontSize=14;" parent="1" vertex="1">
          <mxGeometry x="443" y="2834.5" width="120" height="115.5" as="geometry" />
        </mxCell>
        <mxCell id="Hje7Pb7ly6nMzVSLejZZ-1244" value="" style="endArrow=none;html=1;rounded=0;exitX=1;exitY=0.25;exitDx=0;exitDy=0;entryX=0;entryY=0.5;entryDx=0;entryDy=0;edgeStyle=orthogonalEdgeStyle;fontFamily=Times New Roman;fontSize=14;" parent="1" source="Hje7Pb7ly6nMzVSLejZZ-1243" target="Hje7Pb7ly6nMzVSLejZZ-873" edge="1">
          <mxGeometry width="50" height="50" relative="1" as="geometry">
            <mxPoint x="683" y="3029.5" as="sourcePoint" />
            <mxPoint x="733" y="2979.5" as="targetPoint" />
            <Array as="points">
              <mxPoint x="563" y="2850" />
              <mxPoint x="588" y="2850" />
              <mxPoint x="588" y="2836" />
            </Array>
          </mxGeometry>
        </mxCell>
        <mxCell id="Hje7Pb7ly6nMzVSLejZZ-1245" value="" style="endArrow=none;html=1;rounded=0;exitX=1;exitY=0.75;exitDx=0;exitDy=0;entryX=0;entryY=0.75;entryDx=0;entryDy=0;edgeStyle=orthogonalEdgeStyle;fontFamily=Times New Roman;fontSize=14;" parent="1" source="Hje7Pb7ly6nMzVSLejZZ-1243" target="Hje7Pb7ly6nMzVSLejZZ-877" edge="1">
          <mxGeometry width="50" height="50" relative="1" as="geometry">
            <mxPoint x="683" y="3039.5" as="sourcePoint" />
            <mxPoint x="733" y="2989.5" as="targetPoint" />
            <Array as="points">
              <mxPoint x="563" y="2894" />
            </Array>
          </mxGeometry>
        </mxCell>
        <mxCell id="Hje7Pb7ly6nMzVSLejZZ-1247" value="" style="endArrow=none;html=1;rounded=0;exitX=0.5;exitY=0;exitDx=0;exitDy=0;entryX=0.005;entryY=0.343;entryDx=0;entryDy=0;entryPerimeter=0;fontFamily=Times New Roman;fontSize=14;" parent="1" source="Hje7Pb7ly6nMzVSLejZZ-880" target="Hje7Pb7ly6nMzVSLejZZ-1243" edge="1">
          <mxGeometry width="50" height="50" relative="1" as="geometry">
            <mxPoint x="433" y="3039.5" as="sourcePoint" />
            <mxPoint x="483" y="2989.5" as="targetPoint" />
          </mxGeometry>
        </mxCell>
        <mxCell id="Hje7Pb7ly6nMzVSLejZZ-1248" value="Lab Test" style="rounded=0;whiteSpace=wrap;html=1;fontFamily=Times New Roman;fontSize=14;" parent="1" vertex="1">
          <mxGeometry x="443" y="3140" width="120" height="113.5" as="geometry" />
        </mxCell>
        <mxCell id="Hje7Pb7ly6nMzVSLejZZ-1249" value="" style="endArrow=none;html=1;rounded=0;exitX=0.5;exitY=0;exitDx=0;exitDy=0;entryX=0;entryY=0.25;entryDx=0;entryDy=0;edgeStyle=orthogonalEdgeStyle;fontFamily=Times New Roman;fontSize=14;" parent="1" source="Hje7Pb7ly6nMzVSLejZZ-893" target="Hje7Pb7ly6nMzVSLejZZ-1248" edge="1">
          <mxGeometry width="50" height="50" relative="1" as="geometry">
            <mxPoint x="423" y="3269.5" as="sourcePoint" />
            <mxPoint x="473" y="3219.5" as="targetPoint" />
          </mxGeometry>
        </mxCell>
        <mxCell id="Hje7Pb7ly6nMzVSLejZZ-1250" value="" style="endArrow=none;html=1;rounded=0;exitX=1.004;exitY=0.156;exitDx=0;exitDy=0;exitPerimeter=0;entryX=0;entryY=0.5;entryDx=0;entryDy=0;edgeStyle=orthogonalEdgeStyle;fontFamily=Times New Roman;fontSize=14;" parent="1" source="Hje7Pb7ly6nMzVSLejZZ-1248" target="Hje7Pb7ly6nMzVSLejZZ-887" edge="1">
          <mxGeometry width="50" height="50" relative="1" as="geometry">
            <mxPoint x="693" y="3289.5" as="sourcePoint" />
            <mxPoint x="743" y="3239.5" as="targetPoint" />
          </mxGeometry>
        </mxCell>
        <mxCell id="Hje7Pb7ly6nMzVSLejZZ-1251" value="" style="endArrow=none;html=1;rounded=0;exitX=1;exitY=0.5;exitDx=0;exitDy=0;entryX=0;entryY=0.5;entryDx=0;entryDy=0;edgeStyle=orthogonalEdgeStyle;fontFamily=Times New Roman;fontSize=14;" parent="1" source="Hje7Pb7ly6nMzVSLejZZ-1248" target="Hje7Pb7ly6nMzVSLejZZ-891" edge="1">
          <mxGeometry width="50" height="50" relative="1" as="geometry">
            <mxPoint x="653" y="3299.5" as="sourcePoint" />
            <mxPoint x="703" y="3249.5" as="targetPoint" />
          </mxGeometry>
        </mxCell>
        <mxCell id="Hje7Pb7ly6nMzVSLejZZ-1252" value="Lab Instrument" style="rounded=0;whiteSpace=wrap;html=1;fontFamily=Times New Roman;fontSize=14;" parent="1" vertex="1">
          <mxGeometry x="444" y="3404.5" width="120" height="105.5" as="geometry" />
        </mxCell>
        <mxCell id="Hje7Pb7ly6nMzVSLejZZ-1253" value="" style="endArrow=none;html=1;rounded=0;exitX=0.5;exitY=0;exitDx=0;exitDy=0;entryX=0;entryY=0.25;entryDx=0;entryDy=0;fontFamily=Times New Roman;fontSize=14;" parent="1" source="Hje7Pb7ly6nMzVSLejZZ-917" target="Hje7Pb7ly6nMzVSLejZZ-1252" edge="1">
          <mxGeometry width="50" height="50" relative="1" as="geometry">
            <mxPoint x="423" y="3509.5" as="sourcePoint" />
            <mxPoint x="473" y="3459.5" as="targetPoint" />
          </mxGeometry>
        </mxCell>
        <mxCell id="Hje7Pb7ly6nMzVSLejZZ-1254" value="" style="endArrow=none;html=1;rounded=0;exitX=1;exitY=0.25;exitDx=0;exitDy=0;entryX=0;entryY=0.5;entryDx=0;entryDy=0;edgeStyle=orthogonalEdgeStyle;fontFamily=Times New Roman;fontSize=14;" parent="1" source="Hje7Pb7ly6nMzVSLejZZ-1252" target="Hje7Pb7ly6nMzVSLejZZ-911" edge="1">
          <mxGeometry width="50" height="50" relative="1" as="geometry">
            <mxPoint x="654.25" y="3513.5" as="sourcePoint" />
            <mxPoint x="704.25" y="3463.5" as="targetPoint" />
          </mxGeometry>
        </mxCell>
        <mxCell id="Hje7Pb7ly6nMzVSLejZZ-1255" value="" style="endArrow=none;html=1;rounded=0;entryX=0;entryY=0.5;entryDx=0;entryDy=0;exitX=1;exitY=0.5;exitDx=0;exitDy=0;edgeStyle=orthogonalEdgeStyle;fontFamily=Times New Roman;fontSize=14;" parent="1" source="Hje7Pb7ly6nMzVSLejZZ-1252" target="Hje7Pb7ly6nMzVSLejZZ-914" edge="1">
          <mxGeometry width="50" height="50" relative="1" as="geometry">
            <mxPoint x="564" y="3448" as="sourcePoint" />
            <mxPoint x="743" y="3489.5" as="targetPoint" />
          </mxGeometry>
        </mxCell>
        <mxCell id="Hje7Pb7ly6nMzVSLejZZ-1256" value="Lab Request" style="rounded=0;whiteSpace=wrap;html=1;container=0;fontFamily=Times New Roman;fontSize=14;" parent="1" vertex="1">
          <mxGeometry x="438" y="3665.5" width="120" height="144.5" as="geometry" />
        </mxCell>
        <mxCell id="Hje7Pb7ly6nMzVSLejZZ-1257" value="" style="endArrow=none;html=1;rounded=0;exitX=0.991;exitY=0.126;exitDx=0;exitDy=0;entryX=0;entryY=0.5;entryDx=0;entryDy=0;edgeStyle=orthogonalEdgeStyle;exitPerimeter=0;fontFamily=Times New Roman;fontSize=14;" parent="1" source="Hje7Pb7ly6nMzVSLejZZ-1256" target="Hje7Pb7ly6nMzVSLejZZ-924" edge="1">
          <mxGeometry width="50" height="50" relative="1" as="geometry">
            <mxPoint x="648" y="3803.5" as="sourcePoint" />
            <mxPoint x="698" y="3753.5" as="targetPoint" />
          </mxGeometry>
        </mxCell>
        <mxCell id="Hje7Pb7ly6nMzVSLejZZ-1258" value="" style="endArrow=none;html=1;rounded=0;exitX=1.007;exitY=0.356;exitDx=0;exitDy=0;exitPerimeter=0;edgeStyle=orthogonalEdgeStyle;fontFamily=Times New Roman;fontSize=14;" parent="1" source="Hje7Pb7ly6nMzVSLejZZ-1256" edge="1">
          <mxGeometry width="50" height="50" relative="1" as="geometry">
            <mxPoint x="618" y="3803.5" as="sourcePoint" />
            <mxPoint x="618" y="3713.5" as="targetPoint" />
          </mxGeometry>
        </mxCell>
        <mxCell id="Hje7Pb7ly6nMzVSLejZZ-1259" value="" style="endArrow=none;html=1;rounded=0;exitX=0.5;exitY=0;exitDx=0;exitDy=0;edgeStyle=orthogonalEdgeStyle;fontFamily=Times New Roman;fontSize=14;" parent="1" source="Hje7Pb7ly6nMzVSLejZZ-930" edge="1">
          <mxGeometry width="50" height="50" relative="1" as="geometry">
            <mxPoint x="468" y="3793.5" as="sourcePoint" />
            <mxPoint x="438" y="3694" as="targetPoint" />
          </mxGeometry>
        </mxCell>
        <mxCell id="Hje7Pb7ly6nMzVSLejZZ-1264" value="" style="html=1;rounded=0;fontFamily=Times New Roman;fontSize=14;" parent="1" vertex="1">
          <mxGeometry x="616.5" y="3210.5" width="30" height="30" as="geometry" />
        </mxCell>
        <mxCell id="Hje7Pb7ly6nMzVSLejZZ-1265" value="" style="endArrow=none;html=1;rounded=0;align=center;verticalAlign=top;endFill=0;labelBackgroundColor=none;endSize=2;fontFamily=Times New Roman;fontSize=14;" parent="1" source="Hje7Pb7ly6nMzVSLejZZ-1264" target="Hje7Pb7ly6nMzVSLejZZ-1266" edge="1">
          <mxGeometry relative="1" as="geometry" />
        </mxCell>
        <mxCell id="Hje7Pb7ly6nMzVSLejZZ-1266" value="" style="ellipse;html=1;fontSize=14;align=center;fillColor=none;points=[];aspect=fixed;resizable=0;verticalAlign=bottom;labelPosition=center;verticalLabelPosition=top;flipH=1;fontFamily=Times New Roman;" parent="1" vertex="1">
          <mxGeometry x="668.5" y="3221.5" width="8" height="8" as="geometry" />
        </mxCell>
        <mxCell id="Hje7Pb7ly6nMzVSLejZZ-1267" value="" style="endArrow=none;html=1;rounded=0;exitX=-0.213;exitY=0.618;exitDx=0;exitDy=0;exitPerimeter=0;entryX=0.064;entryY=0.856;entryDx=0;entryDy=0;entryPerimeter=0;fontFamily=Times New Roman;fontSize=14;" parent="1" source="Hje7Pb7ly6nMzVSLejZZ-1266" target="Hje7Pb7ly6nMzVSLejZZ-1023" edge="1">
          <mxGeometry width="50" height="50" relative="1" as="geometry">
            <mxPoint x="933.5" y="3241.5" as="sourcePoint" />
            <mxPoint x="853.5" y="3216.5" as="targetPoint" />
          </mxGeometry>
        </mxCell>
        <mxCell id="Hje7Pb7ly6nMzVSLejZZ-1268" value="cancelTest" style="text;whiteSpace=wrap;html=1;fontFamily=Times New Roman;fontSize=14;" parent="1" vertex="1">
          <mxGeometry x="694" y="3197.5" width="46.5" height="18" as="geometry" />
        </mxCell>
        <mxCell id="Hje7Pb7ly6nMzVSLejZZ-1269" value="" style="endArrow=none;html=1;rounded=0;exitX=1;exitY=0.75;exitDx=0;exitDy=0;entryX=0;entryY=0.75;entryDx=0;entryDy=0;edgeStyle=orthogonalEdgeStyle;fontFamily=Times New Roman;fontSize=14;" parent="1" source="Hje7Pb7ly6nMzVSLejZZ-1248" target="Hje7Pb7ly6nMzVSLejZZ-1264" edge="1">
          <mxGeometry width="50" height="50" relative="1" as="geometry">
            <mxPoint x="565.5" y="3222.5" as="sourcePoint" />
            <mxPoint x="696.5" y="3287.5" as="targetPoint" />
          </mxGeometry>
        </mxCell>
        <mxCell id="Hje7Pb7ly6nMzVSLejZZ-1023" value="" style="rounded=0;whiteSpace=wrap;html=1;fontFamily=Times New Roman;fontSize=14;" parent="1" vertex="1">
          <mxGeometry x="850" y="3078.5" width="20" height="175" as="geometry" />
        </mxCell>
        <mxCell id="Hje7Pb7ly6nMzVSLejZZ-1271" value="" style="html=1;rounded=0;fontFamily=Times New Roman;fontSize=14;" parent="1" vertex="1">
          <mxGeometry x="620" y="3742.5" width="30" height="30" as="geometry" />
        </mxCell>
        <mxCell id="Hje7Pb7ly6nMzVSLejZZ-1272" value="" style="endArrow=none;html=1;rounded=0;align=center;verticalAlign=top;endFill=0;labelBackgroundColor=none;endSize=2;fontFamily=Times New Roman;fontSize=14;" parent="1" source="Hje7Pb7ly6nMzVSLejZZ-1271" target="Hje7Pb7ly6nMzVSLejZZ-1273" edge="1">
          <mxGeometry relative="1" as="geometry" />
        </mxCell>
        <mxCell id="Hje7Pb7ly6nMzVSLejZZ-1273" value="" style="ellipse;html=1;fontSize=14;align=center;fillColor=none;points=[];aspect=fixed;resizable=0;verticalAlign=bottom;labelPosition=center;verticalLabelPosition=top;flipH=1;fontFamily=Times New Roman;" parent="1" vertex="1">
          <mxGeometry x="672" y="3753.5" width="8" height="8" as="geometry" />
        </mxCell>
        <mxCell id="Hje7Pb7ly6nMzVSLejZZ-1274" value="" style="endArrow=none;html=1;rounded=0;exitX=0.013;exitY=0.626;exitDx=0;exitDy=0;exitPerimeter=0;entryX=0.021;entryY=0.654;entryDx=0;entryDy=0;entryPerimeter=0;fontFamily=Times New Roman;fontSize=14;" parent="1" source="Hje7Pb7ly6nMzVSLejZZ-1273" target="Hje7Pb7ly6nMzVSLejZZ-1033" edge="1">
          <mxGeometry width="50" height="50" relative="1" as="geometry">
            <mxPoint x="972.5" y="3802.5" as="sourcePoint" />
            <mxPoint x="847.5" y="3754.5" as="targetPoint" />
          </mxGeometry>
        </mxCell>
        <mxCell id="Hje7Pb7ly6nMzVSLejZZ-1275" value="specifyReason" style="text;whiteSpace=wrap;html=1;fontFamily=Times New Roman;fontSize=14;" parent="1" vertex="1">
          <mxGeometry x="682.5" y="3737.5" width="100" height="15" as="geometry" />
        </mxCell>
        <mxCell id="Hje7Pb7ly6nMzVSLejZZ-1276" value="" style="endArrow=none;html=1;rounded=0;edgeStyle=orthogonalEdgeStyle;exitX=1;exitY=0.5;exitDx=0;exitDy=0;fontFamily=Times New Roman;fontSize=14;" parent="1" source="Hje7Pb7ly6nMzVSLejZZ-1256" edge="1">
          <mxGeometry width="50" height="50" relative="1" as="geometry">
            <mxPoint x="550" y="3761" as="sourcePoint" />
            <mxPoint x="620.5" y="3757.5" as="targetPoint" />
          </mxGeometry>
        </mxCell>
        <mxCell id="Hje7Pb7ly6nMzVSLejZZ-1033" value="" style="rounded=0;whiteSpace=wrap;html=1;fontFamily=Times New Roman;fontSize=14;" parent="1" vertex="1">
          <mxGeometry x="845" y="3630" width="25" height="200" as="geometry" />
        </mxCell>
        <mxCell id="Hje7Pb7ly6nMzVSLejZZ-858" value="" style="shape=module;jettyWidth=8;jettyHeight=4;fontFamily=Times New Roman;fontSize=14;" parent="1" vertex="1">
          <mxGeometry x="832" y="2427" width="20" height="20" as="geometry">
            <mxPoint x="-27" y="7" as="offset" />
          </mxGeometry>
        </mxCell>
        <mxCell id="Hje7Pb7ly6nMzVSLejZZ-864" value="" style="ellipse;html=1;fontSize=14;align=center;fillColor=none;points=[];aspect=fixed;resizable=0;verticalAlign=bottom;labelPosition=center;verticalLabelPosition=top;flipH=1;fontFamily=Times New Roman;" parent="1" vertex="1">
          <mxGeometry x="669.5" y="2644.5" width="8" height="8" as="geometry" />
        </mxCell>
        <mxCell id="Hje7Pb7ly6nMzVSLejZZ-863" value="" style="endArrow=none;html=1;rounded=0;align=center;verticalAlign=top;endFill=0;labelBackgroundColor=none;endSize=2;fontFamily=Times New Roman;fontSize=14;" parent="1" source="Hje7Pb7ly6nMzVSLejZZ-862" target="Hje7Pb7ly6nMzVSLejZZ-864" edge="1">
          <mxGeometry relative="1" as="geometry" />
        </mxCell>
        <mxCell id="Hje7Pb7ly6nMzVSLejZZ-1281" value="" style="html=1;rounded=0;fontFamily=Times New Roman;fontSize=14;" parent="1" vertex="1">
          <mxGeometry x="623.75" y="3479.3" width="30" height="30" as="geometry" />
        </mxCell>
        <mxCell id="Hje7Pb7ly6nMzVSLejZZ-1282" value="" style="endArrow=none;html=1;rounded=0;align=center;verticalAlign=top;endFill=0;labelBackgroundColor=none;endSize=2;fontFamily=Times New Roman;fontSize=14;" parent="1" source="Hje7Pb7ly6nMzVSLejZZ-1281" target="Hje7Pb7ly6nMzVSLejZZ-1283" edge="1">
          <mxGeometry relative="1" as="geometry" />
        </mxCell>
        <mxCell id="Hje7Pb7ly6nMzVSLejZZ-1283" value="" style="ellipse;html=1;fontSize=14;align=center;fillColor=none;points=[];aspect=fixed;resizable=0;verticalAlign=bottom;labelPosition=center;verticalLabelPosition=top;flipH=1;fontFamily=Times New Roman;" parent="1" vertex="1">
          <mxGeometry x="675.75" y="3490.3" width="8" height="8" as="geometry" />
        </mxCell>
        <mxCell id="Hje7Pb7ly6nMzVSLejZZ-1284" value="" style="endArrow=none;html=1;rounded=0;exitX=0.186;exitY=0.86;exitDx=0;exitDy=0;exitPerimeter=0;entryX=0.075;entryY=0.911;entryDx=0;entryDy=0;entryPerimeter=0;fontFamily=Times New Roman;fontSize=14;" parent="1" source="Hje7Pb7ly6nMzVSLejZZ-1283" target="Hje7Pb7ly6nMzVSLejZZ-1028" edge="1">
          <mxGeometry width="50" height="50" relative="1" as="geometry">
            <mxPoint x="940.5" y="3559.3" as="sourcePoint" />
            <mxPoint x="851.5" y="3499.8" as="targetPoint" />
          </mxGeometry>
        </mxCell>
        <mxCell id="Hje7Pb7ly6nMzVSLejZZ-1285" value="" style="endArrow=none;html=1;rounded=0;entryX=0;entryY=0.5;entryDx=0;entryDy=0;exitX=1;exitY=0.75;exitDx=0;exitDy=0;edgeStyle=orthogonalEdgeStyle;fontFamily=Times New Roman;fontSize=14;" parent="1" source="Hje7Pb7ly6nMzVSLejZZ-1252" target="Hje7Pb7ly6nMzVSLejZZ-1281" edge="1">
          <mxGeometry width="50" height="50" relative="1" as="geometry">
            <mxPoint x="564.5" y="3495.8" as="sourcePoint" />
            <mxPoint x="743.5" y="3535.3" as="targetPoint" />
          </mxGeometry>
        </mxCell>
        <mxCell id="Hje7Pb7ly6nMzVSLejZZ-1028" value="" style="rounded=0;whiteSpace=wrap;html=1;fontFamily=Times New Roman;fontSize=14;" parent="1" vertex="1">
          <mxGeometry x="850" y="3333.5" width="20" height="176.5" as="geometry" />
        </mxCell>
        <mxCell id="Hje7Pb7ly6nMzVSLejZZ-1288" value="reportInstrumentIssue" style="text;whiteSpace=wrap;html=1;fontFamily=Times New Roman;fontSize=14;" parent="1" vertex="1">
          <mxGeometry x="685" y="3475.3" width="110" height="23" as="geometry" />
        </mxCell>
        <mxCell id="Hje7Pb7ly6nMzVSLejZZ-1292" value="" style="html=1;rounded=0;direction=south;fontFamily=Times New Roman;fontSize=14;" parent="1" vertex="1">
          <mxGeometry x="1722.6" y="3305.5" width="30" height="30" as="geometry" />
        </mxCell>
        <mxCell id="Hje7Pb7ly6nMzVSLejZZ-1293" value="" style="endArrow=none;html=1;rounded=0;entryX=0.957;entryY=0.452;entryDx=0;entryDy=0;entryPerimeter=0;fontFamily=Times New Roman;fontSize=14;" parent="1" target="Hje7Pb7ly6nMzVSLejZZ-1295" edge="1">
          <mxGeometry width="50" height="50" relative="1" as="geometry">
            <mxPoint x="1640" y="3320" as="sourcePoint" />
            <mxPoint x="1703.6000000001723" y="3320.5" as="targetPoint" />
          </mxGeometry>
        </mxCell>
        <mxCell id="Hje7Pb7ly6nMzVSLejZZ-1294" value="" style="endArrow=none;html=1;rounded=0;align=center;verticalAlign=top;endFill=0;labelBackgroundColor=none;endSize=2;fontFamily=Times New Roman;fontSize=14;" parent="1" source="Hje7Pb7ly6nMzVSLejZZ-1292" edge="1">
          <mxGeometry relative="1" as="geometry">
            <mxPoint x="1723.1" y="3321" as="sourcePoint" />
            <mxPoint x="1711.5999999998276" y="3320.5" as="targetPoint" />
          </mxGeometry>
        </mxCell>
        <mxCell id="Hje7Pb7ly6nMzVSLejZZ-1295" value="" style="shape=requiredInterface;html=1;fontSize=14;align=center;fillColor=none;points=[];aspect=fixed;resizable=0;verticalAlign=bottom;labelPosition=center;verticalLabelPosition=top;flipH=1;direction=west;fontFamily=Times New Roman;" parent="1" vertex="1">
          <mxGeometry x="1706.6" y="3315" width="5" height="10" as="geometry" />
        </mxCell>
        <mxCell id="Hje7Pb7ly6nMzVSLejZZ-1296" value="cancelTest" style="text;whiteSpace=wrap;html=1;fontFamily=Times New Roman;fontSize=14;" parent="1" vertex="1">
          <mxGeometry x="1644" y="3296.5" width="90" height="22" as="geometry" />
        </mxCell>
        <mxCell id="Hje7Pb7ly6nMzVSLejZZ-1054" value="" style="rounded=0;whiteSpace=wrap;html=1;fontFamily=Times New Roman;fontSize=14;" parent="1" vertex="1">
          <mxGeometry x="1622" y="3193" width="20" height="170" as="geometry" />
        </mxCell>
        <mxCell id="Hje7Pb7ly6nMzVSLejZZ-1297" value="" style="html=1;rounded=0;direction=south;fontFamily=Times New Roman;fontSize=14;" parent="1" vertex="1">
          <mxGeometry x="1726" y="3550" width="30" height="30" as="geometry" />
        </mxCell>
        <mxCell id="Hje7Pb7ly6nMzVSLejZZ-1298" value="" style="endArrow=none;html=1;rounded=0;align=center;verticalAlign=top;endFill=0;labelBackgroundColor=none;endSize=2;fontFamily=Times New Roman;fontSize=14;" parent="1" source="Hje7Pb7ly6nMzVSLejZZ-1297" target="Hje7Pb7ly6nMzVSLejZZ-1299" edge="1">
          <mxGeometry relative="1" as="geometry" />
        </mxCell>
        <mxCell id="Hje7Pb7ly6nMzVSLejZZ-1299" value="" style="shape=requiredInterface;html=1;fontSize=14;align=center;fillColor=none;points=[];aspect=fixed;resizable=0;verticalAlign=bottom;labelPosition=center;verticalLabelPosition=top;flipH=1;direction=west;fontFamily=Times New Roman;" parent="1" vertex="1">
          <mxGeometry x="1708.5" y="3561" width="5" height="10" as="geometry" />
        </mxCell>
        <mxCell id="Hje7Pb7ly6nMzVSLejZZ-1300" value="" style="endArrow=none;html=1;rounded=0;entryX=0.647;entryY=0.221;entryDx=0;entryDy=0;entryPerimeter=0;exitX=0.989;exitY=0.688;exitDx=0;exitDy=0;exitPerimeter=0;fontFamily=Times New Roman;fontSize=14;" parent="1" target="Hje7Pb7ly6nMzVSLejZZ-1299" edge="1">
          <mxGeometry width="50" height="50" relative="1" as="geometry">
            <mxPoint x="1641.5" y="3566.5" as="sourcePoint" />
            <mxPoint x="1593.5" y="3641.5" as="targetPoint" />
          </mxGeometry>
        </mxCell>
        <mxCell id="Hje7Pb7ly6nMzVSLejZZ-1301" value="reportInstrument&lt;br style=&quot;font-size: 14px;&quot;&gt;Issue" style="text;html=1;strokeColor=none;fillColor=none;align=center;verticalAlign=middle;whiteSpace=wrap;rounded=0;fontFamily=Times New Roman;fontSize=14;" parent="1" vertex="1">
          <mxGeometry x="1641.85" y="3535" width="98.5" height="28" as="geometry" />
        </mxCell>
        <mxCell id="Hje7Pb7ly6nMzVSLejZZ-1302" value="" style="html=1;rounded=0;direction=south;fontFamily=Times New Roman;fontSize=14;" parent="1" vertex="1">
          <mxGeometry x="1725.5" y="3753" width="30" height="30" as="geometry" />
        </mxCell>
        <mxCell id="Hje7Pb7ly6nMzVSLejZZ-1303" value="" style="endArrow=none;html=1;rounded=0;align=center;verticalAlign=top;endFill=0;labelBackgroundColor=none;endSize=2;fontFamily=Times New Roman;fontSize=14;" parent="1" source="Hje7Pb7ly6nMzVSLejZZ-1302" target="Hje7Pb7ly6nMzVSLejZZ-1304" edge="1">
          <mxGeometry relative="1" as="geometry" />
        </mxCell>
        <mxCell id="Hje7Pb7ly6nMzVSLejZZ-1304" value="" style="shape=requiredInterface;html=1;fontSize=14;align=center;fillColor=none;points=[];aspect=fixed;resizable=0;verticalAlign=bottom;labelPosition=center;verticalLabelPosition=top;flipH=1;direction=west;fontFamily=Times New Roman;" parent="1" vertex="1">
          <mxGeometry x="1708" y="3764" width="5" height="10" as="geometry" />
        </mxCell>
        <mxCell id="Hje7Pb7ly6nMzVSLejZZ-1305" value="" style="endArrow=none;html=1;rounded=0;entryX=-0.059;entryY=0.338;entryDx=0;entryDy=0;entryPerimeter=0;exitX=1.014;exitY=0.779;exitDx=0;exitDy=0;exitPerimeter=0;fontFamily=Times New Roman;fontSize=14;" parent="1" target="Hje7Pb7ly6nMzVSLejZZ-1304" edge="1">
          <mxGeometry width="50" height="50" relative="1" as="geometry">
            <mxPoint x="1641" y="3771.5" as="sourcePoint" />
            <mxPoint x="1483" y="3884.5" as="targetPoint" />
          </mxGeometry>
        </mxCell>
        <mxCell id="Hje7Pb7ly6nMzVSLejZZ-1306" value="specifyReason" style="text;whiteSpace=wrap;html=1;fontFamily=Times New Roman;fontSize=14;" parent="1" vertex="1">
          <mxGeometry x="1643" y="3734" width="100" height="11" as="geometry" />
        </mxCell>
        <mxCell id="Hje7Pb7ly6nMzVSLejZZ-1307" value="" style="html=1;rounded=0;fontFamily=Times New Roman;fontSize=14;" parent="1" vertex="1">
          <mxGeometry x="2004" y="3230.5" width="30" height="30" as="geometry" />
        </mxCell>
        <mxCell id="Hje7Pb7ly6nMzVSLejZZ-1308" value="" style="endArrow=none;html=1;rounded=0;align=center;verticalAlign=top;endFill=0;labelBackgroundColor=none;endSize=2;fontFamily=Times New Roman;fontSize=14;" parent="1" source="Hje7Pb7ly6nMzVSLejZZ-1311" edge="1">
          <mxGeometry relative="1" as="geometry">
            <mxPoint x="2056.000000000076" y="3245.5" as="targetPoint" />
          </mxGeometry>
        </mxCell>
        <mxCell id="Hje7Pb7ly6nMzVSLejZZ-1309" value="" style="whiteSpace=wrap;html=1;aspect=fixed;fontFamily=Times New Roman;fontSize=14;" parent="1" vertex="1">
          <mxGeometry x="2244" y="3226" width="30" height="30" as="geometry" />
        </mxCell>
        <mxCell id="Hje7Pb7ly6nMzVSLejZZ-1310" value="" style="endArrow=none;html=1;rounded=0;align=center;verticalAlign=top;endFill=0;labelBackgroundColor=none;endSize=2;fontFamily=Times New Roman;fontSize=14;" parent="1" source="Hje7Pb7ly6nMzVSLejZZ-1307" target="Hje7Pb7ly6nMzVSLejZZ-1311" edge="1">
          <mxGeometry relative="1" as="geometry">
            <mxPoint x="2034" y="3245.5" as="sourcePoint" />
            <mxPoint x="2056.000000000076" y="3245.5" as="targetPoint" />
          </mxGeometry>
        </mxCell>
        <mxCell id="Hje7Pb7ly6nMzVSLejZZ-1311" value="" style="shape=providedRequiredInterface;html=1;verticalLabelPosition=bottom;sketch=0;fontFamily=Times New Roman;fontSize=14;" parent="1" vertex="1">
          <mxGeometry x="2051" y="3234.5" width="20" height="20" as="geometry" />
        </mxCell>
        <mxCell id="Hje7Pb7ly6nMzVSLejZZ-1312" value="" style="endArrow=none;html=1;rounded=0;exitX=1;exitY=0.5;exitDx=0;exitDy=0;exitPerimeter=0;entryX=0;entryY=0.5;entryDx=0;entryDy=0;fontFamily=Times New Roman;fontSize=14;" parent="1" source="Hje7Pb7ly6nMzVSLejZZ-1311" target="Hje7Pb7ly6nMzVSLejZZ-1309" edge="1">
          <mxGeometry width="50" height="50" relative="1" as="geometry">
            <mxPoint x="2104" y="3280.5" as="sourcePoint" />
            <mxPoint x="2154" y="3230.5" as="targetPoint" />
          </mxGeometry>
        </mxCell>
        <mxCell id="Hje7Pb7ly6nMzVSLejZZ-1313" value="add new test" style="edgeLabel;html=1;align=center;verticalAlign=middle;resizable=0;points=[];fontFamily=Times New Roman;fontSize=14;" parent="Hje7Pb7ly6nMzVSLejZZ-1312" vertex="1" connectable="0">
          <mxGeometry x="-0.1681" y="2" relative="1" as="geometry">
            <mxPoint as="offset" />
          </mxGeometry>
        </mxCell>
        <mxCell id="Hje7Pb7ly6nMzVSLejZZ-1322" value="" style="html=1;rounded=0;fontFamily=Times New Roman;fontSize=14;" parent="1" vertex="1">
          <mxGeometry x="2009" y="3553" width="30" height="30" as="geometry" />
        </mxCell>
        <mxCell id="Hje7Pb7ly6nMzVSLejZZ-1323" value="" style="endArrow=none;html=1;rounded=0;align=center;verticalAlign=top;endFill=0;labelBackgroundColor=none;endSize=2;fontFamily=Times New Roman;fontSize=14;" parent="1" source="Hje7Pb7ly6nMzVSLejZZ-1326" edge="1">
          <mxGeometry relative="1" as="geometry">
            <mxPoint x="2061.000000000076" y="3568" as="targetPoint" />
          </mxGeometry>
        </mxCell>
        <mxCell id="Hje7Pb7ly6nMzVSLejZZ-1324" value="" style="whiteSpace=wrap;html=1;aspect=fixed;fontFamily=Times New Roman;fontSize=14;" parent="1" vertex="1">
          <mxGeometry x="2244" y="3553" width="30" height="30" as="geometry" />
        </mxCell>
        <mxCell id="Hje7Pb7ly6nMzVSLejZZ-1325" value="" style="endArrow=none;html=1;rounded=0;align=center;verticalAlign=top;endFill=0;labelBackgroundColor=none;endSize=2;fontFamily=Times New Roman;fontSize=14;" parent="1" source="Hje7Pb7ly6nMzVSLejZZ-1322" target="Hje7Pb7ly6nMzVSLejZZ-1326" edge="1">
          <mxGeometry relative="1" as="geometry">
            <mxPoint x="2039" y="3568" as="sourcePoint" />
            <mxPoint x="2061.000000000076" y="3568" as="targetPoint" />
          </mxGeometry>
        </mxCell>
        <mxCell id="Hje7Pb7ly6nMzVSLejZZ-1326" value="" style="shape=providedRequiredInterface;html=1;verticalLabelPosition=bottom;sketch=0;fontFamily=Times New Roman;fontSize=14;" parent="1" vertex="1">
          <mxGeometry x="2063" y="3558" width="20" height="20" as="geometry" />
        </mxCell>
        <mxCell id="Hje7Pb7ly6nMzVSLejZZ-1327" value="" style="endArrow=none;html=1;rounded=0;exitX=1;exitY=0.5;exitDx=0;exitDy=0;exitPerimeter=0;entryX=0;entryY=0.5;entryDx=0;entryDy=0;fontFamily=Times New Roman;fontSize=14;" parent="1" source="Hje7Pb7ly6nMzVSLejZZ-1326" target="Hje7Pb7ly6nMzVSLejZZ-1324" edge="1">
          <mxGeometry width="50" height="50" relative="1" as="geometry">
            <mxPoint x="2114" y="3601" as="sourcePoint" />
            <mxPoint x="2164" y="3551" as="targetPoint" />
          </mxGeometry>
        </mxCell>
        <mxCell id="Hje7Pb7ly6nMzVSLejZZ-1328" value="store instrument&lt;br style=&quot;font-size: 14px;&quot;&gt;issue" style="edgeLabel;html=1;align=center;verticalAlign=middle;resizable=0;points=[];fontFamily=Times New Roman;fontSize=14;" parent="Hje7Pb7ly6nMzVSLejZZ-1327" vertex="1" connectable="0">
          <mxGeometry x="-0.2298" y="1" relative="1" as="geometry">
            <mxPoint as="offset" />
          </mxGeometry>
        </mxCell>
        <mxCell id="Hje7Pb7ly6nMzVSLejZZ-1333" value="" style="html=1;rounded=0;fontFamily=Times New Roman;fontSize=14;" parent="1" vertex="1">
          <mxGeometry x="2011" y="3725.5" width="30" height="30" as="geometry" />
        </mxCell>
        <mxCell id="Hje7Pb7ly6nMzVSLejZZ-1334" value="" style="whiteSpace=wrap;html=1;aspect=fixed;fontFamily=Times New Roman;fontSize=14;" parent="1" vertex="1">
          <mxGeometry x="2370" y="3593" width="30" height="30" as="geometry" />
        </mxCell>
        <mxCell id="Hje7Pb7ly6nMzVSLejZZ-1335" value="" style="shape=providedRequiredInterface;html=1;verticalLabelPosition=bottom;sketch=0;direction=west;fontFamily=Times New Roman;fontSize=14;" parent="1" vertex="1">
          <mxGeometry x="2063" y="3730.5" width="20" height="20" as="geometry" />
        </mxCell>
        <mxCell id="Hje7Pb7ly6nMzVSLejZZ-1336" value="" style="endArrow=none;html=1;rounded=0;exitX=0;exitY=0.5;exitDx=0;exitDy=0;exitPerimeter=0;entryX=0.5;entryY=1;entryDx=0;entryDy=0;edgeStyle=orthogonalEdgeStyle;fontFamily=Times New Roman;fontSize=14;" parent="1" source="Hje7Pb7ly6nMzVSLejZZ-1335" target="Hje7Pb7ly6nMzVSLejZZ-1334" edge="1">
          <mxGeometry width="50" height="50" relative="1" as="geometry">
            <mxPoint x="2224" y="3770.5" as="sourcePoint" />
            <mxPoint x="2274" y="3720.5" as="targetPoint" />
          </mxGeometry>
        </mxCell>
        <mxCell id="Hje7Pb7ly6nMzVSLejZZ-1337" value="delete request" style="edgeLabel;html=1;align=center;verticalAlign=middle;resizable=0;points=[];fontFamily=Times New Roman;fontSize=14;" parent="1" vertex="1" connectable="0">
          <mxGeometry x="2169.363636363636" y="3740.5" as="geometry" />
        </mxCell>
        <mxCell id="Hje7Pb7ly6nMzVSLejZZ-1338" value="" style="endArrow=none;html=1;rounded=0;align=center;verticalAlign=top;endFill=0;labelBackgroundColor=none;endSize=2;fontFamily=Times New Roman;fontSize=14;" parent="1" edge="1">
          <mxGeometry relative="1" as="geometry">
            <mxPoint x="2063.000000000076" y="3741" as="targetPoint" />
            <mxPoint x="2041" y="3741" as="sourcePoint" />
          </mxGeometry>
        </mxCell>
        <mxCell id="Hje7Pb7ly6nMzVSLejZZ-1339" value="" style="html=1;rounded=0;fontFamily=Times New Roman;fontSize=14;" parent="1" vertex="1">
          <mxGeometry x="619.5" y="3790" width="30" height="30" as="geometry" />
        </mxCell>
        <mxCell id="Hje7Pb7ly6nMzVSLejZZ-1340" value="" style="endArrow=none;html=1;rounded=0;align=center;verticalAlign=top;endFill=0;labelBackgroundColor=none;endSize=2;fontFamily=Times New Roman;fontSize=14;" parent="1" source="Hje7Pb7ly6nMzVSLejZZ-1339" target="Hje7Pb7ly6nMzVSLejZZ-1341" edge="1">
          <mxGeometry relative="1" as="geometry" />
        </mxCell>
        <mxCell id="Hje7Pb7ly6nMzVSLejZZ-1341" value="" style="ellipse;html=1;fontSize=14;align=center;fillColor=none;points=[];aspect=fixed;resizable=0;verticalAlign=bottom;labelPosition=center;verticalLabelPosition=top;flipH=1;fontFamily=Times New Roman;" parent="1" vertex="1">
          <mxGeometry x="671.5" y="3801" width="8" height="8" as="geometry" />
        </mxCell>
        <mxCell id="Hje7Pb7ly6nMzVSLejZZ-1342" value="" style="endArrow=none;html=1;rounded=0;exitX=0.013;exitY=0.626;exitDx=0;exitDy=0;exitPerimeter=0;entryX=0.021;entryY=0.654;entryDx=0;entryDy=0;entryPerimeter=0;fontFamily=Times New Roman;fontSize=14;" parent="1" source="Hje7Pb7ly6nMzVSLejZZ-1341" edge="1">
          <mxGeometry width="50" height="50" relative="1" as="geometry">
            <mxPoint x="972" y="3850" as="sourcePoint" />
            <mxPoint x="845.5" y="3808.5" as="targetPoint" />
          </mxGeometry>
        </mxCell>
        <mxCell id="Hje7Pb7ly6nMzVSLejZZ-1343" value="createRequest" style="text;whiteSpace=wrap;html=1;fontFamily=Times New Roman;fontSize=14;" parent="1" vertex="1">
          <mxGeometry x="682" y="3785" width="100" height="15" as="geometry" />
        </mxCell>
        <mxCell id="Hje7Pb7ly6nMzVSLejZZ-1345" value="" style="endArrow=none;html=1;rounded=0;entryX=0;entryY=0.5;entryDx=0;entryDy=0;exitX=1;exitY=0.75;exitDx=0;exitDy=0;edgeStyle=orthogonalEdgeStyle;fontFamily=Times New Roman;fontSize=14;" parent="1" source="Hje7Pb7ly6nMzVSLejZZ-1256" target="Hje7Pb7ly6nMzVSLejZZ-1339" edge="1">
          <mxGeometry width="50" height="50" relative="1" as="geometry">
            <mxPoint x="560" y="3830" as="sourcePoint" />
            <mxPoint x="610" y="3780" as="targetPoint" />
          </mxGeometry>
        </mxCell>
        <mxCell id="Hje7Pb7ly6nMzVSLejZZ-1357" value="" style="html=1;rounded=0;direction=south;fontFamily=Times New Roman;fontSize=14;" parent="1" vertex="1">
          <mxGeometry x="1725.5" y="3797.5" width="30" height="30" as="geometry" />
        </mxCell>
        <mxCell id="Hje7Pb7ly6nMzVSLejZZ-1358" value="" style="endArrow=none;html=1;rounded=0;align=center;verticalAlign=top;endFill=0;labelBackgroundColor=none;endSize=2;fontFamily=Times New Roman;fontSize=14;" parent="1" source="Hje7Pb7ly6nMzVSLejZZ-1357" target="Hje7Pb7ly6nMzVSLejZZ-1359" edge="1">
          <mxGeometry relative="1" as="geometry" />
        </mxCell>
        <mxCell id="Hje7Pb7ly6nMzVSLejZZ-1359" value="" style="shape=requiredInterface;html=1;fontSize=14;align=center;fillColor=none;points=[];aspect=fixed;resizable=0;verticalAlign=bottom;labelPosition=center;verticalLabelPosition=top;flipH=1;direction=west;fontFamily=Times New Roman;" parent="1" vertex="1">
          <mxGeometry x="1708" y="3808.5" width="5" height="10" as="geometry" />
        </mxCell>
        <mxCell id="Hje7Pb7ly6nMzVSLejZZ-1360" value="" style="endArrow=none;html=1;rounded=0;entryX=-0.059;entryY=0.338;entryDx=0;entryDy=0;entryPerimeter=0;exitX=1.014;exitY=0.779;exitDx=0;exitDy=0;exitPerimeter=0;fontFamily=Times New Roman;fontSize=14;" parent="1" target="Hje7Pb7ly6nMzVSLejZZ-1359" edge="1">
          <mxGeometry width="50" height="50" relative="1" as="geometry">
            <mxPoint x="1641" y="3816" as="sourcePoint" />
            <mxPoint x="1483" y="3929" as="targetPoint" />
          </mxGeometry>
        </mxCell>
        <mxCell id="Hje7Pb7ly6nMzVSLejZZ-1361" value="createRequest" style="text;whiteSpace=wrap;html=1;fontFamily=Times New Roman;fontSize=14;" parent="1" vertex="1">
          <mxGeometry x="1642.5" y="3790" width="100" height="11" as="geometry" />
        </mxCell>
        <mxCell id="Hje7Pb7ly6nMzVSLejZZ-1362" value="" style="html=1;rounded=0;direction=south;fontFamily=Times New Roman;fontSize=14;" parent="1" vertex="1">
          <mxGeometry x="2011" y="3818.5" width="30" height="30" as="geometry" />
        </mxCell>
        <mxCell id="Hje7Pb7ly6nMzVSLejZZ-1363" value="" style="whiteSpace=wrap;html=1;aspect=fixed;fontFamily=Times New Roman;fontSize=14;" parent="1" vertex="1">
          <mxGeometry x="2506" y="3598.5" width="30" height="30" as="geometry" />
        </mxCell>
        <mxCell id="Hje7Pb7ly6nMzVSLejZZ-1364" value="" style="shape=providedRequiredInterface;html=1;verticalLabelPosition=bottom;sketch=0;fontFamily=Times New Roman;fontSize=14;" parent="1" vertex="1">
          <mxGeometry x="2063" y="3823.5" width="20" height="20" as="geometry" />
        </mxCell>
        <mxCell id="Hje7Pb7ly6nMzVSLejZZ-1365" value="" style="endArrow=none;html=1;rounded=0;exitX=1;exitY=0.5;exitDx=0;exitDy=0;exitPerimeter=0;entryX=0.5;entryY=1;entryDx=0;entryDy=0;edgeStyle=orthogonalEdgeStyle;fontFamily=Times New Roman;fontSize=14;" parent="1" source="Hje7Pb7ly6nMzVSLejZZ-1364" target="Hje7Pb7ly6nMzVSLejZZ-1363" edge="1">
          <mxGeometry width="50" height="50" relative="1" as="geometry">
            <mxPoint x="2206" y="3768" as="sourcePoint" />
            <mxPoint x="2256" y="3718" as="targetPoint" />
            <Array as="points">
              <mxPoint x="2521" y="3833" />
            </Array>
          </mxGeometry>
        </mxCell>
        <mxCell id="Hje7Pb7ly6nMzVSLejZZ-1366" value="add new request" style="edgeLabel;html=1;align=center;verticalAlign=middle;resizable=0;points=[];fontFamily=Times New Roman;fontSize=14;" parent="Hje7Pb7ly6nMzVSLejZZ-1365" vertex="1" connectable="0">
          <mxGeometry x="-0.5324" y="-3" relative="1" as="geometry">
            <mxPoint as="offset" />
          </mxGeometry>
        </mxCell>
        <mxCell id="Hje7Pb7ly6nMzVSLejZZ-1367" value="" style="endArrow=none;html=1;rounded=0;exitX=0.5;exitY=0;exitDx=0;exitDy=0;entryX=0;entryY=0.5;entryDx=0;entryDy=0;entryPerimeter=0;fontFamily=Times New Roman;fontSize=14;" parent="1" source="Hje7Pb7ly6nMzVSLejZZ-1362" target="Hje7Pb7ly6nMzVSLejZZ-1364" edge="1">
          <mxGeometry width="50" height="50" relative="1" as="geometry">
            <mxPoint x="1990" y="3600" as="sourcePoint" />
            <mxPoint x="2040" y="3550" as="targetPoint" />
          </mxGeometry>
        </mxCell>
        <mxCell id="Hje7Pb7ly6nMzVSLejZZ-1368" value="" style="html=1;rounded=0;direction=south;fontFamily=Times New Roman;fontSize=14;" parent="1" vertex="1">
          <mxGeometry x="343.25" y="3498.3" width="30" height="30" as="geometry" />
        </mxCell>
        <mxCell id="Hje7Pb7ly6nMzVSLejZZ-1369" value="" style="rounded=0;orthogonalLoop=1;jettySize=auto;html=1;endArrow=oval;endFill=0;endSize=8;strokeWidth=1;sketch=0;fontSize=14;curved=1;startSize=8;entryX=0.219;entryY=0.224;entryDx=0;entryDy=0;entryPerimeter=0;fontFamily=Times New Roman;" parent="1" target="Hje7Pb7ly6nMzVSLejZZ-1370" edge="1">
          <mxGeometry relative="1" as="geometry">
            <mxPoint x="343" y="3515" as="sourcePoint" />
          </mxGeometry>
        </mxCell>
        <mxCell id="Hje7Pb7ly6nMzVSLejZZ-1370" value="" style="ellipse;whiteSpace=wrap;html=1;align=center;aspect=fixed;fillColor=none;strokeColor=none;resizable=0;perimeter=centerPerimeter;rotatable=0;allowArrows=0;points=[];outlineConnect=1;fontFamily=Times New Roman;fontSize=14;" parent="1" vertex="1">
          <mxGeometry x="151" y="3510" width="10" height="10" as="geometry" />
        </mxCell>
        <mxCell id="Hje7Pb7ly6nMzVSLejZZ-1371" value="" style="html=1;rounded=0;direction=south;fontFamily=Times New Roman;fontSize=14;" parent="1" vertex="1">
          <mxGeometry x="337.5" y="3778.5" width="30" height="30" as="geometry" />
        </mxCell>
        <mxCell id="Hje7Pb7ly6nMzVSLejZZ-1372" value="" style="endArrow=none;html=1;rounded=0;align=center;verticalAlign=top;endFill=0;labelBackgroundColor=none;endSize=2;fontFamily=Times New Roman;fontSize=14;" parent="1" source="Hje7Pb7ly6nMzVSLejZZ-1371" target="Hje7Pb7ly6nMzVSLejZZ-1373" edge="1">
          <mxGeometry relative="1" as="geometry" />
        </mxCell>
        <mxCell id="Hje7Pb7ly6nMzVSLejZZ-1373" value="" style="shape=requiredInterface;html=1;fontSize=14;align=center;fillColor=none;points=[];aspect=fixed;resizable=0;verticalAlign=bottom;labelPosition=center;verticalLabelPosition=top;flipH=1;direction=west;fontFamily=Times New Roman;" parent="1" vertex="1">
          <mxGeometry x="317.5" y="3788.5" width="5" height="10" as="geometry" />
        </mxCell>
        <mxCell id="Hje7Pb7ly6nMzVSLejZZ-1374" value="" style="html=1;rounded=0;direction=south;fontFamily=Times New Roman;fontSize=14;" parent="1" vertex="1">
          <mxGeometry x="337.5" y="3205.5" width="30" height="30" as="geometry" />
        </mxCell>
        <mxCell id="Hje7Pb7ly6nMzVSLejZZ-1375" value="" style="endArrow=none;html=1;rounded=0;align=center;verticalAlign=top;endFill=0;labelBackgroundColor=none;endSize=2;fontFamily=Times New Roman;fontSize=14;" parent="1" source="Hje7Pb7ly6nMzVSLejZZ-1374" target="Hje7Pb7ly6nMzVSLejZZ-1376" edge="1">
          <mxGeometry relative="1" as="geometry" />
        </mxCell>
        <mxCell id="Hje7Pb7ly6nMzVSLejZZ-1376" value="" style="shape=requiredInterface;html=1;fontSize=14;align=center;fillColor=none;points=[];aspect=fixed;resizable=0;verticalAlign=bottom;labelPosition=center;verticalLabelPosition=top;flipH=1;direction=west;fontFamily=Times New Roman;" parent="1" vertex="1">
          <mxGeometry x="317.5" y="3214.5" width="5" height="10" as="geometry" />
        </mxCell>
        <mxCell id="Hje7Pb7ly6nMzVSLejZZ-1377" value="" style="startArrow=none;endArrow=open;endSize=12;rounded=0;exitX=0.695;exitY=1.367;exitDx=0;exitDy=0;exitPerimeter=0;dashed=1;fontFamily=Times New Roman;fontSize=14;" parent="1" source="Hje7Pb7ly6nMzVSLejZZ-1370" edge="1">
          <mxGeometry relative="1" as="geometry">
            <mxPoint x="164" y="3071" as="sourcePoint" />
            <mxPoint x="320" y="3794" as="targetPoint" />
          </mxGeometry>
        </mxCell>
        <mxCell id="Hje7Pb7ly6nMzVSLejZZ-1387" value="accept lab&amp;nbsp;Instrument data" style="edgeLabel;html=1;align=center;verticalAlign=middle;resizable=0;points=[];fontFamily=Times New Roman;fontSize=14;" parent="Hje7Pb7ly6nMzVSLejZZ-1377" vertex="1" connectable="0">
          <mxGeometry x="-0.1156" y="-3" relative="1" as="geometry">
            <mxPoint as="offset" />
          </mxGeometry>
        </mxCell>
        <mxCell id="Hje7Pb7ly6nMzVSLejZZ-1380" value="" style="startArrow=none;endArrow=open;endSize=12;rounded=0;exitX=1.262;exitY=0.7;exitDx=0;exitDy=0;exitPerimeter=0;dashed=1;entryX=-0.11;entryY=0.94;entryDx=0;entryDy=0;entryPerimeter=0;fontFamily=Times New Roman;fontSize=14;" parent="1" source="Hje7Pb7ly6nMzVSLejZZ-1370" target="Hje7Pb7ly6nMzVSLejZZ-1376" edge="1">
          <mxGeometry relative="1" as="geometry">
            <mxPoint x="137" y="3373.8" as="sourcePoint" />
            <mxPoint x="301" y="3652.8" as="targetPoint" />
          </mxGeometry>
        </mxCell>
        <mxCell id="Hje7Pb7ly6nMzVSLejZZ-1383" value="Instrument&lt;br style=&quot;font-size: 14px;&quot;&gt;data" style="text;html=1;strokeColor=none;fillColor=none;align=center;verticalAlign=middle;whiteSpace=wrap;rounded=0;fontFamily=Times New Roman;fontSize=14;" parent="1" vertex="1">
          <mxGeometry x="100" y="3496" width="60" height="30" as="geometry" />
        </mxCell>
        <mxCell id="Hje7Pb7ly6nMzVSLejZZ-1388" value="" style="endArrow=none;html=1;rounded=0;exitX=0.5;exitY=0;exitDx=0;exitDy=0;entryX=0;entryY=0.75;entryDx=0;entryDy=0;edgeStyle=orthogonalEdgeStyle;fontFamily=Times New Roman;fontSize=14;" parent="1" source="Hje7Pb7ly6nMzVSLejZZ-1374" target="Hje7Pb7ly6nMzVSLejZZ-1248" edge="1">
          <mxGeometry width="50" height="50" relative="1" as="geometry">
            <mxPoint x="640" y="3460" as="sourcePoint" />
            <mxPoint x="690" y="3410" as="targetPoint" />
            <Array as="points">
              <mxPoint x="443" y="3221" />
            </Array>
          </mxGeometry>
        </mxCell>
        <mxCell id="Hje7Pb7ly6nMzVSLejZZ-1389" value="" style="endArrow=none;html=1;rounded=0;exitX=0.25;exitY=0;exitDx=0;exitDy=0;entryX=-0.009;entryY=0.831;entryDx=0;entryDy=0;entryPerimeter=0;fontFamily=Times New Roman;fontSize=14;" parent="1" source="Hje7Pb7ly6nMzVSLejZZ-1371" target="Hje7Pb7ly6nMzVSLejZZ-1256" edge="1">
          <mxGeometry width="50" height="50" relative="1" as="geometry">
            <mxPoint x="640" y="3740" as="sourcePoint" />
            <mxPoint x="690" y="3690" as="targetPoint" />
          </mxGeometry>
        </mxCell>
        <mxCell id="Hje7Pb7ly6nMzVSLejZZ-1047" value="" style="rounded=0;whiteSpace=wrap;html=1;fontFamily=Times New Roman;fontSize=14;" parent="1" vertex="1">
          <mxGeometry x="1622" y="2905" width="20" height="155" as="geometry" />
        </mxCell>
        <mxCell id="Hje7Pb7ly6nMzVSLejZZ-1391" value="&lt;div style=&quot;text-align: justify; font-size: 14px;&quot;&gt;&lt;/div&gt;" style="html=1;dropTarget=0;whiteSpace=wrap;align=left;fontFamily=Times New Roman;fontSize=14;" parent="1" vertex="1">
          <mxGeometry x="1072" y="3870" width="350" height="90" as="geometry" />
        </mxCell>
        <mxCell id="Hje7Pb7ly6nMzVSLejZZ-1392" value="" style="shape=module;jettyWidth=8;jettyHeight=4;fontFamily=Times New Roman;fontSize=14;" parent="Hje7Pb7ly6nMzVSLejZZ-1391" vertex="1">
          <mxGeometry x="1" width="20" height="20" relative="1" as="geometry">
            <mxPoint x="-27" y="7" as="offset" />
          </mxGeometry>
        </mxCell>
        <mxCell id="Hje7Pb7ly6nMzVSLejZZ-1393" value="&lt;b style=&quot;font-size: 14px;&quot;&gt;&lt;font style=&quot;font-size: 14px;&quot;&gt;&lt;span style=&quot;color: rgb(0, 0, 0); font-style: normal; font-variant-ligatures: normal; font-variant-caps: normal; letter-spacing: normal; orphans: 2; text-align: center; text-indent: 0px; text-transform: none; widows: 2; word-spacing: 0px; -webkit-text-stroke-width: 0px; background-color: rgb(251, 251, 251); text-decoration-thickness: initial; text-decoration-style: initial; text-decoration-color: initial; float: none; display: inline !important; font-size: 14px;&quot;&gt;&lt;span style=&quot;font-size: 14px;&quot;&gt;&lt;span style=&quot;font-size: 14px;&quot;&gt;&amp;nbsp;&amp;nbsp;&amp;nbsp;&amp;nbsp;&lt;/span&gt;&lt;/span&gt;&lt;span style=&quot;font-size: 14px;&quot;&gt;&lt;span style=&quot;font-size: 14px;&quot;&gt;&amp;nbsp;&amp;nbsp;&amp;nbsp;&amp;nbsp;&lt;span style=&quot;white-space: pre; font-size: 14px;&quot;&gt;&#x9;&lt;/span&gt;&lt;/span&gt;&lt;/span&gt;&amp;lt;&amp;lt;component&amp;gt;&amp;gt;&lt;/span&gt;&lt;br style=&quot;border-color: var(--border-color); padding: 0px; margin: 0px; color: rgb(0, 0, 0); font-style: normal; font-variant-ligatures: normal; font-variant-caps: normal; letter-spacing: normal; orphans: 2; text-align: center; text-indent: 0px; text-transform: none; widows: 2; word-spacing: 0px; -webkit-text-stroke-width: 0px; background-color: rgb(251, 251, 251); text-decoration-thickness: initial; text-decoration-style: initial; text-decoration-color: initial; font-size: 14px;&quot;&gt;&lt;/font&gt;&lt;/b&gt;&lt;span style=&quot;color: rgb(0, 0, 0); font-style: normal; font-variant-ligatures: normal; font-variant-caps: normal; letter-spacing: normal; orphans: 2; text-align: center; text-indent: 0px; text-transform: none; widows: 2; word-spacing: 0px; -webkit-text-stroke-width: 0px; background-color: rgb(251, 251, 251); text-decoration-thickness: initial; text-decoration-style: initial; text-decoration-color: initial; float: none; font-size: 14px; display: inline !important;&quot;&gt;&lt;b style=&quot;font-size: 14px;&quot;&gt;&lt;font style=&quot;font-size: 14px;&quot;&gt;&amp;nbsp; HealthGuardian&lt;/font&gt;&lt;/b&gt;&lt;b style=&quot;border-color: var(--border-color); font-size: 14px;&quot;&gt;&lt;font style=&quot;border-color: var(--border-color); font-size: 14px;&quot;&gt;Doctor&lt;/font&gt;&lt;/b&gt;&lt;b style=&quot;font-size: 14px;&quot;&gt;&lt;font style=&quot;font-size: 14px;&quot;&gt;Subsystem&lt;br style=&quot;font-size: 14px;&quot;&gt;&lt;span style=&quot;font-size: 14px;&quot;&gt;&lt;span style=&quot;font-size: 14px;&quot;&gt;&amp;nbsp;&amp;nbsp;&amp;nbsp;&amp;nbsp;&lt;/span&gt;&lt;/span&gt;&lt;span style=&quot;font-size: 14px;&quot;&gt;&lt;span style=&quot;font-size: 14px;&quot;&gt;&amp;nbsp;&amp;nbsp;&amp;nbsp;&amp;nbsp;&lt;/span&gt;&lt;/span&gt;&amp;nbsp; &amp;nbsp; &amp;nbsp;&amp;nbsp;&lt;/font&gt;&lt;/b&gt;&lt;b style=&quot;border-color: var(--border-color); font-size: 14px;&quot;&gt;&lt;font style=&quot;border-color: var(--border-color); font-size: 14px;&quot;&gt;Doctor&lt;/font&gt;&lt;/b&gt;&lt;b style=&quot;font-size: 14px;&quot;&gt;&lt;font style=&quot;font-size: 14px;&quot;&gt;&amp;nbsp;Desktop App&lt;/font&gt;&lt;/b&gt;&lt;br style=&quot;font-size: 14px;&quot;&gt;&lt;/span&gt;" style="text;whiteSpace=wrap;html=1;fontFamily=Times New Roman;fontSize=14;" parent="1" vertex="1">
          <mxGeometry x="1134" y="3870" width="265" height="50" as="geometry" />
        </mxCell>
        <mxCell id="Hje7Pb7ly6nMzVSLejZZ-1394" value="" style="endArrow=none;html=1;rounded=0;exitX=0;exitY=0.5;exitDx=0;exitDy=0;edgeStyle=orthogonalEdgeStyle;fontFamily=Times New Roman;fontSize=14;" parent="1" source="Hje7Pb7ly6nMzVSLejZZ-1391" edge="1">
          <mxGeometry width="50" height="50" relative="1" as="geometry">
            <mxPoint x="1230" y="3710" as="sourcePoint" />
            <mxPoint x="675" y="3810" as="targetPoint" />
            <Array as="points">
              <mxPoint x="675" y="3915" />
            </Array>
          </mxGeometry>
        </mxCell>
      </root>
    </mxGraphModel>
  </diagram>
</mxfile>
